<svg preserveAspectRatio="none" width="300" height="300" viewBox="0 0 263 259" fill="none" xmlns="http://www.w3.org/2000/svg">
<path d="M261.987 129.396C261.987 162.44 263.492 212.239 242.369 234.416C219.855 258.054 165.255 258.326 130.033 258.326C94.8121 258.326 45.0046 258.054 22.4902 234.416C1.36738 212.239 0.0107422 162.44 0.0107422 129.396C0.0107422 98.7032 3.9714 48.7721 22.4902 27.16C45.1602 0.703181 92.4605 0.211399 130.033 0.211399C170.156 0.211399 219.788 -2.46152 242.369 27.16C258.209 47.9379 261.987 101.252 261.987 129.396Z" fill="#D1EABF" fill-opacity="0.5"/>
<path d="M91.7858 42.4428C92.4445 42.0482 93.153 41.7435 93.8925 41.5367L94.3229 39.4572L97.8386 39.3938L98.346 41.4597C99.0913 41.6435 99.8088 41.9253 100.48 42.2979L102.256 41.1335L104.788 43.58L103.688 45.3922C104.082 46.0492 104.387 46.7562 104.594 47.4944L106.673 47.9248L106.737 51.4404L104.671 51.9433C104.488 52.6888 104.206 53.4065 103.832 54.0772L104.997 55.8577L102.55 58.3857L100.738 57.2848C100.081 57.6797 99.3741 57.9844 98.636 58.1909L98.1829 60.2704L94.6673 60.3338L94.1598 58.2679C93.416 58.0841 92.7 57.8023 92.0305 57.4298L90.25 58.5941L87.7084 56.1522L88.8093 54.34C88.4146 53.6813 88.1099 52.9728 87.9032 52.2333L85.8237 51.7802L85.7603 48.2646L87.8262 47.7571C88.0099 47.0119 88.2918 46.2943 88.6643 45.6233L87.5 43.8428L89.9736 41.3419L91.7858 42.4428ZM93.6615 47.1274C93.1428 47.6641 92.7949 48.3426 92.6618 49.077C92.5287 49.8114 92.6164 50.5688 92.9137 51.2534C93.211 51.938 93.7047 52.519 94.3322 52.9231C94.9598 53.3271 95.693 53.536 96.4393 53.5233C97.1856 53.5107 97.9113 53.277 98.5248 52.8519C99.1383 52.4268 99.6119 51.8293 99.8858 51.135C100.16 50.4407 100.222 49.6808 100.064 48.9513C99.9057 48.2218 99.535 47.5556 98.9984 47.0368C98.6414 46.6901 98.2194 46.4173 97.7567 46.2341C97.294 46.0509 96.7997 45.961 96.3021 45.9694C95.8045 45.9778 95.3135 46.0845 94.8572 46.2832C94.4009 46.4819 93.9884 46.7688 93.6434 47.1274H93.6615Z" fill="#E0E0E0"/>
<path d="M92.601 159.122C92.9804 158.893 93.3888 158.717 93.8152 158.596L94.0644 157.396L96.0941 157.36L96.384 158.551C96.8145 158.655 97.229 158.817 97.6163 159.031L98.6402 158.361L100.099 159.77L99.4874 160.807C99.7161 161.187 99.8929 161.595 100.013 162.022L101.214 162.271L101.25 164.3L100.058 164.59C99.9542 165.021 99.7927 165.435 99.578 165.823L100.249 166.847L98.8396 168.305L97.793 167.671C97.4128 167.899 97.0047 168.078 96.5788 168.201L96.3161 169.415L94.2864 169.452L93.9964 168.26C93.566 168.156 93.1515 167.994 92.7641 167.78L91.7402 168.45L90.2814 167.041L90.9157 165.995C90.6874 165.615 90.5093 165.206 90.3856 164.781L89.1896 164.531L89.1533 162.502L90.3448 162.212C90.4489 161.781 90.6104 161.367 90.8251 160.979L90.1546 159.956L91.5636 158.497L92.6101 159.131L92.601 159.122ZM93.6838 161.84C93.3838 162.15 93.1824 162.542 93.1052 162.966C93.028 163.391 93.0785 163.828 93.2503 164.224C93.422 164.62 93.7073 164.955 94.07 165.189C94.4327 165.422 94.8565 165.543 95.2877 165.535C95.719 165.528 96.1383 165.392 96.4925 165.146C96.8467 164.9 97.12 164.554 97.2776 164.153C97.4353 163.751 97.4702 163.312 97.3781 162.891C97.286 162.469 97.0709 162.085 96.7601 161.786C96.5557 161.586 96.3141 161.429 96.0489 161.322C95.7837 161.216 95.5001 161.163 95.2144 161.167C94.9288 161.17 94.6465 161.23 94.3839 161.342C94.1213 161.455 93.8834 161.618 93.6838 161.822V161.84Z" fill="#E0E0E0"/>
<path d="M48.4198 53.6285C48.679 53.4718 48.9578 53.3499 49.2489 53.2661L49.4211 52.446H50.8029L51.0113 53.2344C51.3049 53.3089 51.588 53.4201 51.854 53.5651L52.5517 53.112L53.5484 54.0725L53.0953 54.7883C53.2521 55.0475 53.374 55.3263 53.4578 55.6174L54.2778 55.7896V57.1487L53.4623 57.3481C53.3914 57.6422 53.2817 57.9255 53.1361 58.1907L53.5892 58.8884L52.6287 59.8852L51.9129 59.4321C51.6536 59.5889 51.3749 59.7107 51.0838 59.7945L50.9116 60.6146H49.5525L49.3531 59.7991C49.059 59.7281 48.7757 59.6184 48.5104 59.4729L47.8127 59.9259L46.816 58.9609L47.2691 58.2496C47.1123 57.9904 46.9905 57.7117 46.9066 57.4206L46.0866 57.2484L46.064 55.8892L46.8749 55.6899C46.9495 55.3963 47.0606 55.1132 47.2057 54.8472L46.7526 54.1495L47.7131 53.1528L48.4289 53.6059L48.4198 53.6285ZM49.1583 55.4724C48.9542 55.6839 48.8174 55.951 48.7652 56.2402C48.7129 56.5294 48.7476 56.8275 48.8647 57.097C48.9819 57.3665 49.1764 57.5952 49.4235 57.7542C49.6706 57.9131 49.9593 57.9953 50.2531 57.9902C50.5469 57.9852 50.8326 57.8931 51.0741 57.7257C51.3156 57.5583 51.502 57.323 51.6099 57.0497C51.7177 56.7763 51.742 56.4771 51.6798 56.19C51.6176 55.9028 51.4717 55.6404 51.2605 55.4362C51.1201 55.3005 50.9544 55.1937 50.7727 55.1221C50.5911 55.0504 50.3971 55.0153 50.2019 55.0187C50.0066 55.022 49.814 55.0638 49.6349 55.1417C49.4559 55.2196 49.2939 55.3319 49.1583 55.4724Z" fill="#E0E0E0"/>
<path d="M116.051 50.7154C116.562 50.4066 117.112 50.1674 117.687 50.0041L118.022 48.3868L120.74 48.3369L121.135 49.9452C121.715 50.0873 122.275 50.3067 122.797 50.5976L124.156 49.6915L126.163 51.6215L125.312 53.0169C125.622 53.5291 125.861 54.0807 126.023 54.657L127.645 54.9922L127.69 57.7106L126.086 58.1047C125.94 58.6886 125.718 59.2507 125.425 59.7765L126.331 61.1628L124.433 63.1291L123.019 62.2728C122.508 62.5807 121.958 62.8199 121.384 62.9841L121.044 64.6015L118.326 64.6513L117.931 63.043C117.344 62.9043 116.779 62.6863 116.251 62.3951L114.891 63.3012L112.921 61.4029L113.777 59.9894C113.469 59.4764 113.23 58.925 113.066 58.3494L111.448 58.0141L111.398 55.2958L113.007 54.9016C113.149 54.3221 113.368 53.7644 113.659 53.2435L112.753 51.8571L114.651 49.8909L116.051 50.7154ZM117.51 54.3398C117.107 54.7579 116.837 55.2861 116.734 55.8577C116.631 56.4292 116.7 57.0184 116.932 57.5507C117.165 58.083 117.549 58.5346 118.038 58.8482C118.527 59.1618 119.097 59.3235 119.678 59.3127C120.259 59.302 120.823 59.1192 121.3 58.7877C121.777 58.4561 122.144 57.9906 122.356 57.45C122.569 56.9095 122.616 56.3181 122.492 55.7508C122.368 55.1835 122.078 54.6656 121.66 54.2628C121.38 53.9973 121.051 53.7895 120.691 53.6514C120.331 53.5133 119.947 53.4477 119.562 53.4582C119.176 53.4687 118.796 53.5552 118.444 53.7127C118.092 53.8702 117.775 54.0957 117.51 54.3761V54.3398Z" fill="#EBEBEB"/>
<path d="M188.381 118.266C189.037 117.871 189.742 117.566 190.479 117.359L190.932 115.28L194.443 115.217L194.951 117.282C195.696 117.464 196.414 117.746 197.084 118.121L198.856 116.956L201.384 119.398L200.287 121.21C200.68 121.869 200.984 122.575 201.194 123.313L203.273 123.766L203.337 127.277L201.271 127.784C201.089 128.529 200.807 129.245 200.432 129.914L201.597 131.69L199.159 134.19L197.347 133.089C196.69 133.484 195.983 133.788 195.245 133.996L194.792 136.075L191.281 136.134L190.773 134.077C190.03 133.893 189.314 133.611 188.644 133.239L186.868 134.403L184.34 131.961L185.441 130.149C185.046 129.494 184.741 128.788 184.535 128.052L182.455 127.598L182.396 124.11L184.458 123.603C184.642 122.857 184.923 122.14 185.296 121.469L184.132 119.697L186.574 117.169L188.386 118.27L188.381 118.266ZM190.252 122.946C189.735 123.482 189.388 124.16 189.256 124.894C189.124 125.627 189.213 126.384 189.51 127.067C189.808 127.75 190.302 128.33 190.929 128.733C191.556 129.136 192.288 129.344 193.033 129.331C193.779 129.317 194.503 129.083 195.116 128.658C195.728 128.233 196.2 127.636 196.473 126.943C196.747 126.249 196.808 125.49 196.65 124.762C196.492 124.033 196.121 123.368 195.585 122.85C195.229 122.506 194.808 122.235 194.347 122.053C193.887 121.871 193.394 121.782 192.899 121.791C192.403 121.8 191.915 121.906 191.461 122.105C191.006 122.303 190.596 122.588 190.252 122.946Z" fill="#E0E0E0"/>
<path d="M213.204 49.9092C213.207 48.4458 212.872 47.0016 212.225 45.6887C211.579 44.3759 210.638 43.2299 209.477 42.3398C208.315 41.4498 206.964 40.8397 205.528 40.5569C204.092 40.2742 202.611 40.3265 201.198 40.7097C199.786 41.093 198.481 41.7968 197.385 42.7665C196.289 43.7363 195.432 44.9457 194.879 46.3009C194.327 47.656 194.095 49.1203 194.201 50.5798C194.307 52.0393 194.748 53.4548 195.49 54.7161L195.517 54.7523C195.879 55.3684 196.337 55.8079 196.799 56.4512L202.331 63.7726C202.491 63.9804 202.697 64.1486 202.933 64.2644C203.168 64.3801 203.427 64.4403 203.69 64.4403C203.952 64.4403 204.211 64.3801 204.447 64.2644C204.683 64.1486 204.889 63.9804 205.049 63.7726L210.486 56.5736C210.98 55.9957 211.441 55.3906 211.867 54.7614L211.89 54.7342C212.753 53.2728 213.207 51.6062 213.204 49.9092ZM203.69 54.0501C202.862 54.0492 202.053 53.8029 201.365 53.3424C200.678 52.8818 200.142 52.2277 199.826 51.4627C199.509 50.6977 199.427 49.8562 199.589 49.0444C199.751 48.2327 200.15 47.4872 200.736 46.9022C201.322 46.3172 202.067 45.9189 202.879 45.7578C203.691 45.5966 204.533 45.6798 205.297 45.9968C206.062 46.3137 206.716 46.8503 207.175 47.5386C207.635 48.2269 207.881 49.0361 207.881 49.8639C207.881 50.414 207.772 50.9587 207.561 51.4669C207.351 51.9751 207.042 52.4368 206.653 52.8256C206.264 53.2143 205.802 53.5226 205.293 53.7327C204.785 53.9428 204.24 54.0507 203.69 54.0501Z" fill="#E0E0E0"/>
<path d="M45.6969 186.835C46.661 186.164 47.4072 185.226 47.8429 184.135C48.2786 183.045 48.3846 181.851 48.1479 180.7C47.5272 177.443 44.5235 175.264 41.4926 175.848C38.4617 176.433 36.4637 179.541 37.0844 182.803C37.2871 183.969 37.8313 185.05 38.6483 185.907C39.4653 186.764 40.5182 187.36 41.6738 187.618C33.4192 190.554 35.6074 199.724 35.6074 199.724L55.7365 195.9C55.7365 195.9 54.3774 186.468 45.6969 186.835Z" fill="#EBEBEB"/>
<path d="M70.0847 225.924L65.9619 224.9C65.9619 224.9 65.1057 228.38 61.4722 227.551C60.7697 227.404 60.1304 227.042 59.6432 226.515C59.156 225.988 58.8452 225.322 58.7539 224.61C58.6682 224.014 58.7249 223.406 58.9194 222.836C59.1139 222.266 59.4407 221.75 59.8729 221.33C60.8606 220.343 62.6637 219.667 65.3096 220.85L67.6156 211.503L63.5155 210.493L62.1563 215.971C62.1563 215.971 56.0446 216.039 54.4862 222.372C52.9911 228.434 58.0788 231.179 60.4075 231.75C62.1926 232.19 68.3586 233.254 70.0847 225.924Z" fill="#EBEBEB"/>
<path d="M63.9372 208.558L68.0942 209.582L69.0512 205.698L64.8941 204.674L63.9372 208.558Z" fill="#EBEBEB"/>
<path d="M225.226 240.046C225.226 240.11 185.376 240.164 136.234 240.164C87.091 240.164 47.2373 240.092 47.2373 240.046C47.2373 240.001 87.0746 239.928 136.234 239.928C185.393 239.928 225.226 239.978 225.226 240.046Z" fill="black"/>
<path d="M41.4953 126.013H50.9596L50.126 130.258H33.0776L33.7527 126.883L44.0143 118.841C46.5514 116.812 47.3261 115.625 47.3261 114.143C47.3261 112.662 46.198 111.665 44.0143 111.665C43.0926 111.679 42.1855 111.897 41.3582 112.303C40.5309 112.71 39.8041 113.295 39.2301 114.016L35.7235 111.475C37.5357 108.996 40.9018 107.356 44.7845 107.356C49.5461 107.356 52.6631 109.898 52.6631 113.405C52.6631 116.073 51.4444 118.325 47.4847 121.383L41.4953 126.013Z" fill="#244188"/>
<path d="M73.508 125.533H69.8111L68.8778 130.258H63.7945L64.7595 125.533H52.6313L53.3064 122.026L66.5627 107.741H72.253L59.9028 121.283H65.8197L66.6578 117.07H71.5145L70.6764 121.283H74.3778L73.508 125.533Z" fill="#244188"/>
<path d="M88.3684 103.175H93.0665L76.5347 133.475H71.8501L88.3684 103.175Z" fill="#244188"/>
<path d="M109.824 107.741L109.149 111.121L97.1207 130.258H91.3307L102.874 111.987H95.5758L94.8328 115.656H90.2026L91.7838 107.741H109.824Z" fill="#244188"/>
<path d="M30.9707 148.022L32.2891 145.521C33.4641 146.272 34.8272 146.675 36.2216 146.685C37.5082 146.685 38.2512 146.282 38.2512 145.639C38.2512 144.049 32.5065 144.928 32.5065 141.213C32.5065 138.662 34.6857 136.99 38.1833 136.99C39.6667 136.941 41.136 137.291 42.4374 138.005L41.2233 140.488C40.2483 139.888 39.1243 139.574 37.9794 139.582C36.5931 139.582 35.8501 140.089 35.8501 140.732C35.8501 142.354 41.5948 141.426 41.5948 145.073C41.5948 147.605 39.3658 149.277 35.9044 149.277C33.8748 149.286 32.0354 148.747 30.9707 148.022Z" fill="#244188"/>
<path d="M47.5526 139.813L47.1675 141.806H52.4183L51.9155 144.303H46.6601L46.2342 146.468H52.4365L51.8928 149.051H42.4014L44.7844 137.249H54.0403L53.5147 139.835L47.5526 139.813Z" fill="#244188"/>
<path d="M62.6665 145.503L64.678 149.051H61.1805L59.4226 145.911H57.7373L57.1121 149.051H53.7686L56.129 137.249H61.1805C64.2023 137.249 65.9421 138.653 65.9421 141.018C65.9658 142.022 65.6576 143.005 65.0654 143.816C64.4732 144.627 63.63 145.22 62.6665 145.503ZM60.7093 139.863H58.9515L58.2583 143.324H60.2517C61.7241 143.324 62.5849 142.617 62.5849 141.317C62.5668 140.32 61.8555 139.863 60.7093 139.863Z" fill="#244188"/>
<path d="M80.5987 137.249L73.2095 149.051H69.9158L67.2065 137.249H70.6361L72.326 144.95L77.1556 137.249H80.5987Z" fill="#244188"/>
<path d="M81.3048 137.249H84.6528L82.2698 149.051H78.9263L81.3048 137.249Z" fill="#244188"/>
<path d="M85.1738 144.085C85.1738 139.98 88.1957 136.99 92.5858 136.99C94.7649 136.99 96.5409 137.788 97.3836 139.219L94.9552 141.145C94.6839 140.705 94.2992 140.347 93.8416 140.108C93.384 139.869 92.8703 139.757 92.3547 139.786C90.0577 139.786 88.5355 141.557 88.5355 143.886C88.5355 145.476 89.6183 146.541 91.4259 146.541C91.9778 146.543 92.5233 146.423 93.0226 146.187C93.5219 145.952 93.9624 145.609 94.3119 145.181L96.2872 147.12C94.9552 148.729 93.2155 149.318 91.1043 149.318C87.4889 149.286 85.1738 147.175 85.1738 144.085Z" fill="#244188"/>
<path d="M102.264 139.813L101.874 141.806H107.125L106.636 144.303H101.367L100.946 146.468H107.143L106.604 149.051H97.1309L99.4867 137.249H108.743L108.222 139.835L102.264 139.813Z" fill="#244188"/>
<path d="M43.8305 101.077H37.2295C37.2295 91.8891 40.949 82.5019 47.4322 75.2984C54.2552 67.7279 63.1123 63.5598 72.3501 63.5598C91.2287 63.5598 104.417 77.3416 104.417 97.0856H97.8297C97.8297 80.9887 87.5952 70.1744 72.3636 70.1744C57.4311 70.1608 43.8305 84.894 43.8305 101.077Z" fill="#94CD6A"/>
<path d="M47.45 99.2423C48.5056 99.2423 49.3618 99.3465 49.3573 99.4416C49.3528 99.5368 48.501 99.6092 47.45 99.6092C46.3989 99.6092 45.5381 99.5232 45.5381 99.4099C45.5381 99.2966 46.3989 99.2242 47.45 99.2423Z" fill="#94CD6A"/>
<path d="M52.0085 84.7718C52.9146 85.3517 53.5262 85.9452 53.4265 86.1038C53.3268 86.2623 52.5204 85.9407 51.6143 85.3925C50.7082 84.8443 50.1056 84.2417 50.2008 84.0605C50.2959 83.8793 51.125 84.1964 52.0085 84.7718Z" fill="#94CD6A"/>
<path d="M63.4257 74.8002C63.8561 75.7652 64.069 76.6124 63.8788 76.6849C63.6885 76.7574 63.2037 76.0552 62.7416 75.1083C62.2795 74.1614 62.0666 73.2961 62.2885 73.2236C62.5105 73.1511 62.9998 73.8216 63.4257 74.8002Z" fill="#94CD6A"/>
<path d="M78.4666 73.6132C78.2039 74.6371 77.8459 75.4254 77.6693 75.3892C77.4926 75.3529 77.5288 74.4831 77.7553 73.4456C77.9819 72.4081 78.3352 71.6334 78.5527 71.6741C78.7702 71.7149 78.7294 72.5938 78.4666 73.6132Z" fill="#94CD6A"/>
<path d="M90.7529 82.2483C89.8739 82.8282 89.0811 83.1816 88.9769 83.0366C88.8727 82.8916 89.4843 82.2664 90.3361 81.6457C91.1878 81.025 91.9852 80.6762 92.112 80.8574C92.2389 81.0386 91.6318 81.6638 90.7529 82.2483Z" fill="#94CD6A"/>
<path d="M94.7989 96.474C93.7479 96.474 92.8916 96.3924 92.8916 96.3018C92.8916 96.2112 93.7433 96.1206 94.7989 96.107C95.8546 96.0934 96.7063 96.1705 96.7108 96.2792C96.7154 96.3879 95.8636 96.474 94.7989 96.474Z" fill="#94CD6A"/>
<path d="M70.5597 98.4404C70.2309 98.4426 69.9111 98.3323 69.6536 98.1278L58.5584 89.5198C58.2508 89.2795 58.0512 88.9268 58.0037 88.5394C57.9561 88.1519 58.0644 87.7615 58.3047 87.4539C58.545 87.1463 58.8976 86.9467 59.2851 86.8992C59.6725 86.8516 60.063 86.9599 60.3706 87.2002L70.4918 95.047L84.4684 82.2121C84.7538 81.9471 85.1327 81.8064 85.5218 81.8208C85.911 81.8353 86.2784 82.0037 86.5434 82.2891C86.8083 82.5745 86.9491 82.9534 86.9346 83.3425C86.9202 83.7317 86.7517 84.0991 86.4664 84.3641L71.5746 98.0462C71.2988 98.302 70.9358 98.443 70.5597 98.4404Z" fill="#94CD6A"/>
<path d="M78.085 53.8555H65.3633C65.1656 53.8555 65.0054 54.0157 65.0054 54.2134V58.8209C65.0054 59.0186 65.1656 59.1788 65.3633 59.1788H78.085C78.2826 59.1788 78.4429 59.0186 78.4429 58.8209V54.2134C78.4429 54.0157 78.2826 53.8555 78.085 53.8555Z" fill="#94CD6A"/>
<path d="M75.1948 56.5195H68.2495V62.817H75.1948V56.5195Z" fill="#94CD6A"/>
<path d="M43.0565 70.147L37.8393 76.608C37.6366 76.8592 37.6757 77.2271 37.9269 77.4299L41.494 80.3103C41.7451 80.5131 42.1131 80.4739 42.3159 80.2227L47.533 73.7617C47.7358 73.5106 47.6966 73.1426 47.4455 72.9398L43.8783 70.0594C43.6272 69.8567 43.2592 69.8959 43.0565 70.147Z" fill="#94CD6A"/>
<path d="M78.0853 59.1789C78.0853 59.2559 75.2357 59.3148 71.7426 59.3148C68.2496 59.3148 65.3999 59.2559 65.3999 59.1789C65.3999 59.1019 68.2451 59.043 71.7426 59.043C75.2402 59.043 78.0853 59.1064 78.0853 59.1789Z" fill="#94CD6A"/>
<path d="M42.9382 79.1132C42.8657 79.1947 41.9052 78.4608 40.7182 77.5683C39.5312 76.6757 38.5662 75.9509 38.6251 75.8602C38.684 75.7696 39.7487 76.3586 40.9493 77.2602C42.1499 78.1617 43.0061 79.0361 42.9382 79.1132Z" fill="#94CD6A"/>
<path d="M44.0428 77.4864C43.9703 77.568 43.0098 76.8341 41.8228 75.9415C40.6358 75.049 39.6663 74.3241 39.7252 74.2335C39.7841 74.1429 40.8533 74.7319 42.0539 75.638C43.2545 76.5441 44.1107 77.4094 44.0428 77.4864Z" fill="#94CD6A"/>
<path d="M45.3983 76.1229C45.3303 76.2045 44.3699 75.4705 43.1829 74.578C41.9959 73.6855 41.0445 72.9606 41.0852 72.87C41.126 72.7794 42.2133 73.3684 43.4094 74.2745C44.6055 75.1806 45.4708 76.0459 45.3983 76.1229Z" fill="#94CD6A"/>
<path d="M46.7119 74.4965C46.6439 74.578 45.6789 73.8441 44.4919 72.9516C43.3049 72.059 42.3399 71.3342 42.4033 71.2435C42.4668 71.1529 43.5314 71.7419 44.7275 72.648C45.9236 73.5541 46.7798 74.4194 46.7119 74.4965Z" fill="#94CD6A"/>
<path d="M103.659 72.1892L98.0437 66.0714C97.8254 65.8336 97.4557 65.8178 97.2179 66.0361L93.8403 69.1365C93.6025 69.3548 93.5867 69.7245 93.8049 69.9623L99.4207 76.0801C99.6389 76.3179 100.009 76.3337 100.246 76.1154L103.624 73.015C103.862 72.7967 103.878 72.427 103.659 72.1892Z" fill="#94CD6A"/>
<path d="M94.8075 70.7497C94.7395 70.6682 95.6048 69.8436 96.665 68.7835C97.7251 67.7233 98.5814 66.8943 98.6629 66.9713C98.7445 67.0483 98.006 68.0133 96.9323 69.0644C95.8585 70.1155 94.8709 70.8267 94.8075 70.7497Z" fill="#94CD6A"/>
<path d="M96.2532 72.0818C96.1808 72.0002 97.0506 71.1757 98.1062 70.1155C99.1618 69.0554 100.027 68.2263 100.109 68.3033C100.19 68.3803 99.4473 69.3453 98.3781 70.3964C97.3089 71.4475 96.3167 72.1588 96.2532 72.0818Z" fill="#94CD6A"/>
<path d="M97.3997 73.6267C97.3272 73.5451 98.1971 72.7206 99.2527 71.6604C100.308 70.6003 101.174 69.7712 101.255 69.8482C101.337 69.9252 100.594 70.8857 99.52 71.9368C98.4463 72.9879 97.4632 73.7037 97.3997 73.6267Z" fill="#94CD6A"/>
<path d="M98.8128 75.1804C98.7403 75.0988 99.6102 74.2743 100.666 73.2141C101.721 72.154 102.587 71.3249 102.668 71.4019C102.75 71.479 102.007 72.444 100.933 73.495C99.8594 74.5461 98.8762 75.2438 98.8128 75.1804Z" fill="#94CD6A"/>
<path d="M66.7914 59.1745C66.6872 59.1745 66.6011 57.9965 66.6011 56.5513C66.6011 55.106 66.6872 53.9236 66.7914 53.9236C66.8956 53.9236 66.9862 55.1015 66.9862 56.5513C66.9862 58.001 66.9001 59.1745 66.7914 59.1745Z" fill="#94CD6A"/>
<path d="M69.2831 59.1745C69.1789 59.1745 69.0928 57.9965 69.0928 56.5513C69.0928 55.106 69.1789 53.9236 69.2831 53.9236C69.3873 53.9236 69.4733 55.1015 69.4733 56.5513C69.4733 58.001 69.3873 59.1745 69.2831 59.1745Z" fill="#94CD6A"/>
<path d="M71.7704 59.1745C71.6662 59.1745 71.5801 57.9965 71.5801 56.5513C71.5801 55.106 71.6662 53.9236 71.7704 53.9236C71.8746 53.9236 71.9606 55.1015 71.9606 56.5513C71.9606 58.001 71.8791 59.1745 71.7704 59.1745Z" fill="#94CD6A"/>
<path d="M74.2621 59.1745C74.1533 59.1745 74.0718 57.9965 74.0718 56.5513C74.0718 55.106 74.1533 53.9236 74.2621 53.9236C74.3708 53.9236 74.4523 55.1015 74.4523 56.5513C74.4523 58.001 74.3663 59.1745 74.2621 59.1745Z" fill="#94CD6A"/>
<path d="M76.7484 59.1745C76.6442 59.1745 76.5581 57.9965 76.5581 56.5513C76.5581 55.106 76.6442 53.9236 76.7484 53.9236C76.8526 53.9236 76.9387 55.1015 76.9387 56.5513C76.9387 58.001 76.8345 59.1745 76.7484 59.1745Z" fill="#94CD6A"/>
<path d="M73.2539 98.8197C74.5526 97.521 74.5526 95.4155 73.2539 94.1168C71.9553 92.8182 69.8498 92.8182 68.5511 94.1168C67.2525 95.4155 67.2525 97.521 68.5511 98.8197C69.8498 100.118 71.9553 100.118 73.2539 98.8197Z" fill="#94CD6A"/>
<path d="M74.2259 96.4743C74.1942 96.4743 74.1987 96.1798 74.0583 95.6769C73.8568 94.9752 73.4282 94.3601 72.8396 93.9281C72.3678 93.5778 71.8079 93.3654 71.2224 93.3147C70.6369 93.264 70.0489 93.377 69.5239 93.6411C68.9989 93.9052 68.5576 94.3099 68.2492 94.8102C67.9408 95.3105 67.7775 95.8866 67.7775 96.4743C67.7775 97.0619 67.9408 97.6381 68.2492 98.1383C68.5576 98.6386 68.9989 99.0434 69.5239 99.3074C70.0489 99.5715 70.6369 99.6845 71.2224 99.6338C71.8079 99.5831 72.3678 99.3708 72.8396 99.0204C73.4272 98.5875 73.8556 97.9728 74.0583 97.2716C74.1987 96.7687 74.1942 96.4743 74.2259 96.4743C74.2576 96.4743 74.2259 96.5468 74.2259 96.6872C74.2331 96.8945 74.2118 97.1018 74.1625 97.3034C73.9999 98.0597 73.5765 98.7349 72.9664 99.2107C72.5106 99.5686 71.9716 99.8053 71.3997 99.8987C70.8277 99.9922 70.2415 99.9394 69.6954 99.7453C69.0194 99.5057 68.4342 99.0626 68.0204 98.4768C67.6065 97.8911 67.3843 97.1915 67.3843 96.4743C67.3843 95.7571 67.6065 95.0575 68.0204 94.4717C68.4342 93.886 69.0194 93.4428 69.6954 93.2032C70.2413 93.0097 70.8271 92.9569 71.3988 93.0495C71.9705 93.1422 72.5096 93.3773 72.9664 93.7333C73.5762 94.2113 73.9994 94.8877 74.1625 95.6452C74.2118 95.8467 74.2331 96.054 74.2259 96.2613C74.2486 96.3927 74.2395 96.4743 74.2259 96.4743Z" fill="#94CD6A"/>
<path d="M187.955 107.864L193.636 106.958C197.36 109.962 202.073 111.465 206.848 111.171C211.624 110.877 216.117 108.807 219.443 105.368C222.77 101.929 224.69 97.3705 224.826 92.5878C224.962 87.8051 223.304 83.1445 220.178 79.5223C217.052 75.9 212.684 73.5782 207.933 73.0131C203.182 72.448 198.392 73.6806 194.503 76.4686C190.615 79.2566 187.91 83.3983 186.92 88.0794C185.931 92.7606 186.728 97.6426 189.155 101.766L187.955 107.864Z" fill="white"/>
<path d="M187.955 107.864C187.955 107.864 187.955 107.737 188.018 107.479L188.236 106.319C188.43 105.277 188.72 103.75 189.096 101.757C189.097 101.75 189.1 101.744 189.103 101.739C189.107 101.733 189.112 101.728 189.118 101.725C189.123 101.721 189.129 101.719 189.136 101.719C189.142 101.718 189.149 101.718 189.155 101.72C189.16 101.718 189.164 101.717 189.169 101.717C189.174 101.717 189.178 101.718 189.183 101.72L189.101 101.784C187.48 99.0471 186.563 95.9509 186.433 92.7727C186.392 91.7836 186.43 90.7929 186.546 89.8097C186.68 88.7573 186.896 87.7168 187.189 86.6973C188.259 83.0011 190.414 79.7113 193.376 77.2541C196.337 74.7968 199.968 73.2854 203.798 72.9154C206.803 72.6318 209.833 73.0613 212.641 74.1689C215.449 75.2765 217.956 77.031 219.958 79.2899L220.729 80.196C220.969 80.5131 221.182 80.8438 221.417 81.161C221.865 81.8057 222.272 82.4775 222.636 83.1725C222.835 83.5078 222.962 83.8793 223.13 84.2281C223.297 84.577 223.47 84.9258 223.583 85.2973C223.851 86.0164 224.074 86.7518 224.249 87.4992C224.946 90.4033 224.969 93.4283 224.317 96.3427C223.443 100.133 221.44 103.568 218.572 106.195C215.705 108.823 212.108 110.518 208.256 111.058C207.198 111.202 206.13 111.264 205.062 111.244C204.07 111.197 203.083 111.091 202.104 110.926C198.987 110.346 196.065 108.994 193.604 106.994H193.645L189.395 107.633L188.313 107.791L187.955 107.841L188.331 107.773L189.423 107.592L193.627 106.894H193.668C196.125 108.861 199.034 110.186 202.131 110.75C203.102 110.912 204.083 111.013 205.067 111.053C206.127 111.07 207.187 111.005 208.238 110.859C212.043 110.308 215.593 108.62 218.423 106.017C221.253 103.414 223.229 100.017 224.095 96.2703C224.735 93.3893 224.708 90.4002 224.018 87.5309C223.84 86.7941 223.621 86.068 223.361 85.3562C223.248 84.9893 223.057 84.654 222.908 84.3006C222.758 83.9472 222.613 83.5893 222.418 83.2586C222.06 82.572 221.657 81.9092 221.213 81.2742C220.987 80.9571 220.76 80.6309 220.534 80.3183L219.773 79.4122C217.795 77.1809 215.319 75.4467 212.546 74.3503C209.773 73.2539 206.781 72.826 203.812 73.1012C201.183 73.3609 198.637 74.163 196.334 75.4566C194.032 76.7503 192.022 78.5076 190.433 80.6173C189.048 82.463 188.013 84.5467 187.379 86.7652C187.087 87.7745 186.87 88.8043 186.732 89.846C186.612 90.8212 186.569 91.8044 186.605 92.7863C186.715 95.9424 187.604 99.0222 189.192 101.752C189.2 101.761 189.205 101.774 189.205 101.786C189.205 101.799 189.2 101.811 189.192 101.82C189.183 101.828 189.171 101.832 189.16 101.832C189.148 101.832 189.137 101.828 189.128 101.82L189.21 101.793C188.811 103.764 188.503 105.277 188.304 106.323C188.199 106.835 188.118 107.23 188.064 107.492C188.009 107.755 187.955 107.864 187.955 107.864Z" fill="#263238"/>
<path d="M211.463 92.6141C211.462 92.2293 211.576 91.8529 211.789 91.5326C212.002 91.2123 212.306 90.9625 212.661 90.8148C213.016 90.6672 213.408 90.6283 213.785 90.7031C214.162 90.778 214.509 90.9632 214.781 91.2353C215.053 91.5074 215.239 91.8541 215.313 92.2315C215.388 92.609 215.349 93.0001 215.202 93.3555C215.054 93.7108 214.804 94.0143 214.484 94.2275C214.164 94.4407 213.787 94.5541 213.402 94.5532C212.889 94.552 212.396 94.3473 212.033 93.9839C211.669 93.6205 211.465 93.128 211.463 92.6141Z" fill="#263238"/>
<path d="M203.689 92.6141C203.688 92.2295 203.801 91.8533 204.014 91.5331C204.227 91.2129 204.531 90.9631 204.886 90.8153C205.241 90.6675 205.632 90.6283 206.009 90.7028C206.386 90.7773 206.733 90.962 207.005 91.2337C207.278 91.5053 207.463 91.8516 207.538 92.2288C207.614 92.6059 207.576 92.9969 207.429 93.3523C207.282 93.7077 207.033 94.0116 206.713 94.2253C206.393 94.4391 206.017 94.5532 205.633 94.5532C205.118 94.5532 204.624 94.3491 204.26 93.9855C203.895 93.622 203.69 93.1288 203.689 92.6141Z" fill="#263238"/>
<path d="M195.938 93.5835C195.745 93.2506 195.656 92.8682 195.681 92.4846C195.707 92.101 195.845 91.7334 196.079 91.4285C196.313 91.1235 196.632 90.8947 196.996 90.7711C197.36 90.6476 197.753 90.6347 198.124 90.7342C198.495 90.8337 198.829 91.041 199.082 91.33C199.336 91.619 199.498 91.9767 199.548 92.3579C199.598 92.739 199.534 93.1264 199.364 93.4712C199.194 93.816 198.926 94.1026 198.593 94.2948C198.146 94.5513 197.616 94.6204 197.118 94.4871C196.621 94.3538 196.196 94.0289 195.938 93.5835Z" fill="#263238"/>
<path d="M60.2019 162.167C59.0104 161.6 57.0034 160.418 55.762 159.956C54.535 159.431 53.166 159.338 51.8794 159.693C51.15 159.938 50.4205 160.522 50.416 161.292L55.2863 164.885L60.2019 163.589V162.167Z" fill="#FF9A6C"/>
<path d="M54.874 162.117C54.874 162.117 46.1256 160.219 44.6668 159.471C43.2079 158.724 35.6057 154.918 34.3327 154.918C33.0596 154.918 31.9723 155.262 31.7412 156.531L33.4039 157.822L33.6168 158.483L36.462 159.965L36.9649 160.898L44.2137 164.767C44.2137 164.767 51.8159 168.627 53.0845 168.845C54.353 169.062 60.6867 169.592 63.3959 171.898L74.2692 167.431C74.2692 167.431 71.1295 162.973 68.7102 161.872C66.5537 160.894 62.9338 160.894 60.4013 161.931L54.874 162.117Z" fill="#FFBF9D"/>
<path d="M62.1504 169.415C62.1504 169.415 75.9911 199.598 78.2201 205.66C78.2201 205.66 93.6919 203.113 94.2219 194.528L74.2877 167.345L62.1504 169.415Z" fill="#FFBF9D"/>
<path d="M49.2971 162.801C49.2971 162.801 49.2428 162.801 49.1476 162.801C49.0061 162.787 48.8664 162.758 48.7308 162.715C48.2346 162.564 47.7526 162.37 47.2901 162.135C46.7011 161.85 46.017 161.473 45.265 161.052C44.8889 160.844 44.4948 160.622 44.0825 160.409C43.6702 160.196 43.2217 160.01 42.7641 159.811C41.9169 159.427 41.0414 159.109 40.1455 158.859C39.3255 158.656 38.5371 158.501 37.9436 158.701C37.7134 158.793 37.5046 158.931 37.33 159.108C37.1555 159.284 37.0189 159.494 36.9288 159.725C36.8619 159.901 36.7847 160.074 36.6978 160.241C36.6978 160.241 36.6978 160.187 36.7204 160.096C36.7507 159.957 36.7916 159.821 36.8427 159.688C36.9228 159.477 37.031 159.277 37.1644 159.095C37.3407 158.845 37.5865 158.653 37.8712 158.542C38.2223 158.425 38.5955 158.387 38.963 158.434C39.374 158.474 39.7813 158.545 40.1817 158.646C41.0968 158.888 41.9907 159.203 42.8547 159.589C43.3078 159.788 43.7608 159.974 44.1822 160.196C44.6035 160.418 44.9931 160.649 45.3692 160.862C46.1167 161.292 46.7872 161.682 47.3626 161.981C47.8084 162.224 48.2701 162.438 48.7444 162.62C49.0978 162.751 49.2971 162.778 49.2971 162.801Z" fill="#FF9A6C"/>
<path d="M40.9519 158.461C40.5253 158.375 40.1124 158.231 39.7241 158.035C38.7897 157.594 37.8289 157.211 36.8472 156.889C36.3101 156.736 35.7487 156.689 35.1936 156.748C34.9721 156.755 34.7543 156.807 34.5533 156.9C34.3524 156.993 34.1726 157.127 34.0247 157.292C33.8475 157.537 33.7311 157.822 33.6849 158.121C33.6808 158.237 33.6579 158.352 33.617 158.461C33.5958 158.345 33.5958 158.227 33.617 158.112C33.6339 157.789 33.7372 157.476 33.916 157.206C34.0547 157.017 34.2343 156.862 34.4415 156.753C34.6785 156.64 34.9327 156.568 35.1936 156.54C35.7779 156.466 36.3711 156.511 36.9378 156.671C37.9335 156.991 38.8979 157.4 39.8192 157.894C40.2067 158.063 40.5848 158.252 40.9519 158.461Z" fill="#FF9A6C"/>
<path d="M62.7887 161.261C62.7887 161.261 62.6664 161.333 62.4353 161.415C62.104 161.534 61.7668 161.637 61.425 161.723C60.3003 162.015 59.1476 162.187 57.9864 162.235C56.8255 162.285 55.6625 162.215 54.516 162.026C54.063 161.949 53.7277 161.872 53.4876 161.804C53.3591 161.785 53.235 161.743 53.1206 161.682C53.1206 161.646 53.6643 161.75 54.5432 161.859C55.6821 161.999 56.8307 162.046 57.9773 161.999C59.1248 161.94 60.2656 161.788 61.3888 161.546C62.2269 161.383 62.757 161.229 62.7887 161.261Z" fill="#FF9A6C"/>
<path d="M191.655 143.343L171.521 139.174L166.538 135.437L139.944 140.565C139.518 141.345 135.209 147.361 135.209 147.361L124.735 150.918C120.283 152.087 116.309 154.622 113.372 158.166C110.579 161.616 108.291 165.444 106.576 169.538C101.865 180.597 95.0643 193.373 95.0643 193.373L90.801 186.505L72.833 194.968C72.833 194.968 83.3574 216.184 86.8414 219.215C90.715 222.581 99.622 222.971 105.779 216.692C109.489 212.904 120.213 197.935 122.447 194.189L125.763 209.855L128.812 227.737L123.883 240.046H195.827L192.851 228.412C192.851 228.412 195.782 198.089 196.593 192.444C198.5 179.129 191.655 143.343 191.655 143.343Z" fill="#244188"/>
<path d="M191.655 143.342C191.655 143.342 206.062 147.384 209.233 161.704C211.154 170.38 217.678 195.113 219.975 215.473C221.334 227.578 221.298 238.764 221.334 240.046H199.226L189.856 147.383L191.655 143.342Z" fill="#244188"/>
<path d="M154.704 155.638C154.704 155.638 154.704 155.692 154.645 155.788L154.441 156.204C154.26 156.571 153.988 157.11 153.694 157.795C153.055 159.154 152.303 161.17 151.089 163.421L151.03 163.535L150.93 163.449C149.435 162.176 147.813 160.644 146.137 158.991C143.169 156.046 140.569 153.305 138.648 151.361L136.36 149.064L135.73 148.444C135.654 148.375 135.584 148.299 135.522 148.217C135.609 148.272 135.69 148.338 135.762 148.412L136.414 149.001C136.976 149.517 137.774 150.283 138.757 151.243C140.709 153.16 143.333 155.883 146.291 158.823C147.967 160.477 149.58 161.994 151.057 163.29L150.894 163.317C152.117 161.097 152.896 159.09 153.567 157.74C153.898 157.056 154.174 156.531 154.373 156.173C154.464 156.014 154.541 155.878 154.605 155.774C154.633 155.725 154.666 155.68 154.704 155.638Z" fill="black"/>
<path d="M171.802 139.686C171.8 139.793 171.787 139.899 171.761 140.003C171.716 140.23 171.661 140.529 171.593 140.909C171.43 141.689 171.14 142.812 170.769 144.18C169.985 146.899 168.717 150.654 167.144 154.709C166.315 156.857 165.5 158.886 164.739 160.685L164.68 160.825L164.567 160.726C162.514 158.914 160.675 157.486 159.429 156.426C158.804 155.896 158.314 155.47 157.984 155.171L157.617 154.827C157.531 154.745 157.49 154.705 157.494 154.7C157.547 154.727 157.595 154.761 157.639 154.8L158.029 155.122L159.511 156.327C160.784 157.36 162.637 158.76 164.712 160.563L164.539 160.603C165.287 158.791 166.098 156.771 166.922 154.628C168.476 150.55 169.768 146.858 170.588 144.135C170.995 142.776 171.294 141.661 171.494 140.887C171.58 140.52 171.652 140.225 171.707 139.981C171.731 139.88 171.763 139.782 171.802 139.686Z" fill="black"/>
<path d="M125.197 207.848C125.178 207.817 125.164 207.783 125.156 207.748L125.061 207.44C124.979 207.138 124.866 206.739 124.721 206.244C124.567 205.727 124.418 205.089 124.236 204.346C124.055 203.603 123.86 202.751 123.666 201.809C122.663 196.893 121.958 191.922 121.554 186.921C121.042 181.063 120.929 175.74 120.956 171.894C120.956 169.968 121.006 168.41 121.061 167.336C121.088 166.81 121.106 166.398 121.119 166.094C121.119 165.968 121.119 165.859 121.142 165.773C121.137 165.737 121.137 165.7 121.142 165.664C121.146 165.702 121.146 165.74 121.142 165.777V166.099C121.142 166.403 121.142 166.815 121.142 167.336C121.142 168.414 121.106 169.968 121.115 171.894C121.115 175.735 121.269 181.054 121.781 186.899C122.188 191.891 122.869 196.858 123.82 201.777C124.005 202.719 124.178 203.589 124.354 204.314C124.531 205.039 124.662 205.705 124.807 206.221L125.106 207.426L125.174 207.739C125.197 207.811 125.201 207.848 125.197 207.848Z" fill="black"/>
<path d="M192.851 159.226C192.878 159.265 192.899 159.308 192.915 159.353C192.955 159.448 193.01 159.571 193.073 159.725C193.218 160.069 193.413 160.554 193.667 161.165C193.793 161.483 193.943 161.827 194.088 162.212L194.518 163.48C194.672 163.934 194.835 164.427 195.012 164.944C195.189 165.46 195.307 166.027 195.465 166.611C196.824 171.273 197.504 178.019 197.114 185.399C196.725 192.779 195.855 199.444 195.302 204.228C195.026 206.62 194.799 208.564 194.641 209.923C194.564 210.58 194.5 211.101 194.455 211.468L194.401 211.871C194.397 211.917 194.388 211.963 194.373 212.007C194.367 211.962 194.367 211.916 194.373 211.871L194.405 211.463C194.441 211.092 194.491 210.557 194.55 209.914C194.677 208.555 194.876 206.616 195.134 204.21C195.628 199.398 196.462 192.757 196.861 185.39C197.259 178.023 196.589 171.314 195.288 166.652L194.835 164.985L194.382 163.526C194.237 163.073 194.102 162.642 193.975 162.253C193.848 161.863 193.694 161.514 193.571 161.197C193.336 160.576 193.155 160.092 193.019 159.743C192.964 159.584 192.919 159.462 192.883 159.362C192.865 159.319 192.855 159.273 192.851 159.226Z" fill="black"/>
<path d="M95.1815 208.799C95.118 208.799 95.041 205.347 95.0138 201.097C94.9867 196.848 95.0138 193.396 95.0818 193.396C95.1497 193.396 95.2222 196.848 95.2494 201.097C95.2766 205.347 95.2494 208.799 95.1815 208.799Z" fill="black"/>
<path d="M160.558 229.707V229.517C160.558 229.381 160.594 229.2 160.621 228.964C160.685 228.466 160.771 227.755 160.884 226.84C160.943 226.387 161.007 225.866 161.079 225.308C161.152 224.751 161.206 224.135 161.274 223.496C161.405 222.182 161.586 220.692 161.727 219.034C161.795 218.209 161.863 217.339 161.94 216.438C162.017 215.536 162.053 214.594 162.112 213.62C162.248 211.671 162.307 209.583 162.384 207.39C162.483 203 162.47 198.171 162.243 193.11C162.017 188.049 161.555 183.238 161.043 178.875C160.757 176.696 160.508 174.625 160.187 172.7C160.037 171.735 159.906 170.802 159.733 169.909C159.561 169.017 159.421 168.16 159.28 167.34C159.004 165.705 158.687 164.237 158.429 162.941C158.297 162.293 158.179 161.691 158.066 161.129C157.953 160.567 157.831 160.073 157.726 159.62L157.273 157.532C157.228 157.301 157.187 157.12 157.16 156.988C157.133 156.857 157.128 156.798 157.128 156.798C157.151 156.857 157.17 156.917 157.183 156.979L157.323 157.518L157.826 159.602L158.184 161.106C158.302 161.659 158.429 162.257 158.569 162.919C158.836 164.21 159.167 165.678 159.453 167.313C159.604 168.132 159.755 168.988 159.906 169.882C160.069 170.788 160.2 171.694 160.359 172.673C160.685 174.603 160.943 176.673 161.238 178.852C161.759 183.22 162.203 188.036 162.456 193.101C162.71 198.166 162.692 203.005 162.579 207.399C162.493 209.596 162.429 211.685 162.284 213.633C162.221 214.607 162.175 215.55 162.098 216.456C162.021 217.362 161.94 218.227 161.867 219.056C161.74 220.714 161.546 222.228 161.414 223.514C161.337 224.171 161.265 224.783 161.201 225.326C161.138 225.87 161.052 226.396 160.984 226.858C160.852 227.764 160.748 228.48 160.68 228.974L160.594 229.526C160.587 229.588 160.575 229.648 160.558 229.707Z" fill="black"/>
<path d="M170.135 180.805H170.225L170.511 180.773L171.621 180.647L175.866 180.194L190.975 178.626H191.088V178.739C191.202 183.311 191.338 188.484 191.478 193.971V194.021L191.446 194.052L189.634 196.014L183.029 203.073L182.97 203.136L182.893 203.095L171.761 197.568L171.711 197.545V197.505C171.227 192.453 170.805 188.276 170.547 185.345C170.411 183.904 170.307 182.771 170.234 181.988C170.203 181.612 170.176 181.322 170.157 181.109C170.139 180.896 170.157 180.819 170.157 180.819C170.157 180.819 170.157 180.927 170.198 181.127C170.239 181.326 170.257 181.639 170.302 182.033C170.384 182.826 170.506 183.963 170.665 185.413C170.968 188.321 171.399 192.476 171.924 197.5L171.87 197.423L183.015 202.919L182.884 202.941L189.476 195.856L191.288 193.898L191.256 193.98C191.125 188.493 190.998 183.324 190.889 178.748L191.007 178.848L175.943 180.289L171.671 180.687L170.533 180.787L170.239 180.814L170.135 180.805Z" fill="black"/>
<path d="M191.115 183.995C190.859 184.066 190.597 184.116 190.332 184.144C189.824 184.226 189.09 184.33 188.18 184.448C186.367 184.679 183.835 184.946 181.049 185.213L173.908 185.911L171.747 186.138C171.485 186.18 171.22 186.199 170.955 186.197C171.211 186.125 171.473 186.075 171.738 186.047C172.246 185.965 172.98 185.861 173.89 185.743C175.703 185.512 178.235 185.245 181.026 184.978L188.161 184.28L190.323 184.054C190.585 184.011 190.85 183.992 191.115 183.995Z" fill="black"/>
<g opacity="0.3">
<path d="M195.493 201.813L196.254 211.069C197.935 203.141 200.576 194.619 200.164 186.527C199.751 178.436 198.99 170.693 194.433 163.367C196.414 168.883 197.323 174.726 197.11 180.583C196.693 190.052 195.493 201.813 195.493 201.813Z" fill="black"/>
</g>
<path d="M92.1833 184.584C91.9385 184.026 91.5056 183.572 90.96 183.301C90.3258 183.084 89.6371 183.392 89.0346 183.691L72.5979 191.873C71.5151 192.412 70.3326 193.051 69.9339 194.184C69.4129 195.634 70.387 197.165 71.2931 198.411C72.8063 200.49 74.6185 202.755 77.1828 203.05L91.3225 193.355C93.0486 193.101 94.1223 191.175 94.0408 189.431C93.9593 187.687 93.0622 186.097 92.1833 184.584Z" fill="#244188"/>
<path d="M93.9678 190.509C93.9259 190.568 93.8772 190.621 93.8228 190.668L93.3698 191.089C92.9801 191.452 92.4048 191.964 91.6844 192.58C90.2392 193.817 88.1868 195.461 85.7947 197.138C83.4026 198.814 81.2144 200.196 79.5517 201.129C78.7271 201.605 78.0521 201.976 77.5809 202.221L77.0372 202.497C76.9104 202.561 76.8424 202.588 76.8379 202.579C76.8903 202.529 76.9498 202.488 77.0146 202.456L77.5356 202.139L79.4656 200.984C81.092 200.005 83.3075 198.601 85.6724 196.929C88.0373 195.257 90.1032 193.64 91.5621 192.439L93.2973 191.003L93.7503 190.618C93.9044 190.546 93.9633 190.5 93.9678 190.509Z" fill="black"/>
<g opacity="0.3">
<path d="M171.589 140.724C169.655 147.148 166.945 154.415 164.657 160.658C162.709 159.005 159.982 156.816 158.029 155.158C159.71 158.492 161.727 161.645 164.05 164.568C164.322 164.908 164.685 165.279 165.106 165.198C165.527 165.116 165.718 164.681 165.863 164.292L169.428 154.855C171.095 150.442 172.704 145.295 171.589 140.724Z" fill="black"/>
</g>
<path d="M141.008 70.8314C146.898 69.137 152.407 70.8314 157.839 73.6494C163.271 76.4674 167.652 81.1202 170.488 86.5342C173.478 92.2381 174.801 98.8844 173.718 105.232C172.636 111.579 169.048 117.559 163.674 121.088C156.33 125.927 146.209 125.673 138.648 121.193C131.086 116.712 126.107 108.453 124.789 99.7588C123.883 93.7694 124.617 87.4539 127.412 82.0898C130.207 76.7256 135.15 72.3763 141.004 70.8269" fill="#263238"/>
<path d="M160.345 89.266C159.208 87.0778 159.258 84.4818 158.637 82.0897C157.278 76.8297 152.475 73.0286 147.256 71.5109C142.404 70.0929 136.791 71.1575 131.399 73.595C127.712 75.2667 124.354 77.831 122.153 81.2289C120.712 83.5064 119.838 86.0952 119.601 88.7795C119.365 91.4637 119.774 94.1656 120.793 96.6598L147.7 89.5831C150.5 91.3954 153.368 93.2665 156.607 94.1137C157.55 94.4053 158.551 94.4505 159.516 94.245C159.995 94.1318 160.431 93.8833 160.772 93.529C161.113 93.1747 161.346 92.7297 161.441 92.2471C161.555 91.1688 160.839 90.2219 160.345 89.266Z" fill="#263238"/>
<path d="M166.764 136.977L159.819 88.1289C159.511 85.8183 158.46 83.4625 156.136 83.5712L131.671 81.2153C124.005 81.5687 120.408 91.6355 121.087 99.2604C121.844 107.751 123.099 118.085 125.052 124.21C128.98 136.519 138.897 136.646 138.897 136.646C138.897 136.646 139.499 139.093 140.256 143.669L156.113 154.216L166.764 136.977Z" fill="#FFBF9D"/>
<path d="M127 108.552C127.061 108.975 127.284 109.357 127.623 109.617C127.961 109.877 128.388 109.994 128.812 109.943C129.02 109.929 129.224 109.872 129.41 109.778C129.596 109.683 129.762 109.552 129.896 109.392C130.031 109.233 130.132 109.048 130.194 108.848C130.256 108.649 130.278 108.439 130.257 108.231C130.195 107.809 129.972 107.427 129.633 107.166C129.295 106.906 128.869 106.787 128.445 106.835C128.237 106.851 128.034 106.909 127.848 107.004C127.662 107.099 127.497 107.231 127.362 107.391C127.227 107.55 127.126 107.736 127.064 107.935C127.002 108.135 126.98 108.344 127 108.552Z" fill="#263238"/>
<path d="M124.146 104.271C124.377 104.453 125.464 103.365 127.208 103.098C128.953 102.831 130.357 103.515 130.516 103.27C130.593 103.161 130.33 102.817 129.714 102.491C128.88 102.086 127.942 101.947 127.027 102.092C126.121 102.227 125.281 102.647 124.631 103.293C124.155 103.782 124.033 104.176 124.146 104.271Z" fill="#263238"/>
<path d="M143.097 105.934C143.157 106.357 143.38 106.74 143.719 107.001C144.057 107.262 144.485 107.38 144.909 107.329C145.118 107.315 145.321 107.258 145.507 107.164C145.693 107.069 145.859 106.938 145.993 106.778C146.128 106.619 146.23 106.434 146.292 106.234C146.354 106.035 146.375 105.825 146.354 105.617C146.295 105.193 146.071 104.81 145.733 104.55C145.394 104.289 144.967 104.171 144.542 104.221C144.334 104.237 144.131 104.293 143.945 104.388C143.759 104.483 143.594 104.614 143.459 104.774C143.325 104.933 143.223 105.118 143.161 105.317C143.099 105.516 143.077 105.726 143.097 105.934Z" fill="#263238"/>
<path d="M140.714 101.965C140.945 102.146 142.036 101.059 143.776 100.792C145.516 100.524 146.925 101.208 147.083 100.964C147.16 100.855 146.898 100.511 146.282 100.185C145.447 99.7791 144.507 99.6399 143.59 99.7858C142.673 99.9211 141.823 100.348 141.167 101.005C140.714 101.458 140.591 101.911 140.714 101.965Z" fill="#263238"/>
<path d="M136.962 115.86C136.962 115.761 135.843 115.738 134.058 115.783C133.605 115.783 133.152 115.783 133.048 115.489C132.944 115.194 133.007 114.678 133.143 114.13C133.397 112.991 133.664 111.796 133.945 110.546C135.032 105.445 135.757 101.281 135.544 101.24C135.331 101.2 134.289 105.318 133.198 110.392C132.939 111.647 132.69 112.847 132.459 113.994C132.368 114.524 132.165 115.14 132.495 115.77C132.582 115.918 132.702 116.044 132.846 116.137C132.99 116.231 133.154 116.289 133.324 116.309C133.58 116.343 133.839 116.343 134.095 116.309C135.875 116.119 136.971 115.955 136.962 115.86Z" fill="#263238"/>
<path d="M138.902 136.646C144.859 135.827 150.471 133.37 155.112 129.547C155.112 129.547 151.157 139.446 139.708 140.443L138.902 136.646Z" fill="#FF9A6C"/>
<path d="M138.34 119.947C138.607 119.479 138.989 119.088 139.449 118.809C139.91 118.53 140.434 118.372 140.972 118.352C141.363 118.329 141.755 118.386 142.123 118.52C142.491 118.653 142.829 118.859 143.115 119.127C143.392 119.382 143.584 119.716 143.665 120.084C143.746 120.452 143.712 120.836 143.568 121.184C143.201 121.913 142.241 122.216 141.375 122.09C140.508 121.925 139.683 121.589 138.947 121.102C138.728 120.99 138.532 120.836 138.371 120.649C138.293 120.563 138.241 120.456 138.223 120.34C138.205 120.225 138.222 120.107 138.272 120.001" fill="#FF9A6C"/>
<path d="M142.272 116.282C141.982 116.309 142.272 118.203 140.854 119.788C139.436 121.374 137.402 121.478 137.425 121.741C137.425 121.868 137.932 122.04 138.784 121.936C139.894 121.782 140.914 121.241 141.665 120.409C142.385 119.612 142.767 118.565 142.73 117.491C142.68 116.689 142.399 116.255 142.272 116.282Z" fill="#263238"/>
<path d="M140.216 96.7642C140.46 97.2172 142.164 96.7234 144.243 96.6554C146.323 96.5875 148.062 96.8956 148.266 96.4289C148.357 96.2069 148.003 95.8082 147.265 95.4503C146.29 95.0247 145.231 94.8263 144.169 94.8702C143.106 94.9142 142.067 95.1993 141.131 95.704C140.428 96.1208 140.107 96.5512 140.216 96.7642Z" fill="#263238"/>
<path d="M123.498 96.5828C123.865 96.9317 125.002 96.3382 126.443 96.098C127.884 95.8579 129.161 95.9576 129.361 95.5C129.456 95.278 129.202 94.9156 128.613 94.6211C127.828 94.2829 126.96 94.185 126.119 94.3398C125.278 94.4946 124.501 94.8952 123.888 95.4909C123.43 95.9757 123.326 96.4106 123.498 96.5828Z" fill="#263238"/>
<path d="M164.304 85.0845C161.006 78.0894 149.073 69.4044 141.498 70.9584L130.267 79.9107C130.941 81.9421 132.152 83.7536 133.77 85.154C135.389 86.5543 137.356 87.4914 139.464 87.8662C141.706 88.2377 144.334 88.0701 145.865 89.7555C147.396 91.4408 147.03 94.3404 148.511 96.1299C150.563 98.6126 155.166 97.8696 156.824 100.633C157.554 101.838 157.468 103.406 158.211 104.602C159.208 106.192 163.779 107.773 165.46 106.967C167.14 106.16 166.76 103.152 167.127 101.49C167.757 98.6579 167.159 97.3124 166.633 95.8445C165.405 92.3651 165.881 88.419 164.304 85.0845Z" fill="#263238"/>
<path d="M160.444 109.16C160.304 108.217 161.051 105.839 161.957 105.535C164.377 104.774 168.876 104.289 169.877 110.578C171.236 119.186 162.338 118.773 162.279 118.529C162.22 118.284 160.934 112.394 160.444 109.16Z" fill="#FFBF9D"/>
<path d="M164.386 114.859C164.422 114.823 164.554 114.94 164.839 115.013C165.22 115.111 165.623 115.056 165.963 114.859C166.815 114.383 167.349 112.82 167.145 111.262C167.049 110.522 166.789 109.813 166.384 109.187C166.261 108.931 166.078 108.709 165.85 108.54C165.622 108.371 165.356 108.26 165.075 108.217C164.896 108.199 164.716 108.244 164.566 108.345C164.417 108.446 164.309 108.596 164.259 108.77C164.182 109.028 164.259 109.191 164.219 109.223C164.178 109.255 164.015 109.11 164.024 108.743C164.039 108.523 164.128 108.315 164.278 108.154C164.485 107.936 164.77 107.809 165.07 107.8C165.741 107.741 166.429 108.253 166.846 108.883C167.332 109.57 167.642 110.364 167.752 111.198C167.974 112.938 167.345 114.7 166.158 115.276C165.938 115.38 165.698 115.434 165.455 115.434C165.212 115.434 164.973 115.38 164.753 115.276C164.436 115.049 164.359 114.877 164.386 114.859Z" fill="#FF9A6C"/>
<path d="M132.478 77.0155C132.083 80.64 127.249 85.7368 125.229 88.7405C121.346 94.4716 120.658 96.3065 122.026 107.977C119.452 104.185 117.386 100.416 117.042 95.8444C116.698 91.2731 117.849 86.5296 120.639 82.8962C123.43 79.2627 127.92 76.8706 132.5 77.0065" fill="#263238"/>
<path d="M153.006 64.7243C154.818 62.7264 157.436 61.4261 160.155 60.7466C164.028 59.777 168.282 60.0398 171.807 61.7251C175.332 63.4105 178.059 66.5728 178.771 70.1972C179.12 72.059 178.956 73.981 178.295 75.7563C177.634 77.5317 176.501 79.0932 175.019 80.2731C177.035 82.2271 179.492 83.6662 182.182 84.4683C181.448 85.5693 180.093 86.2126 178.725 86.4436C177.35 86.6156 175.958 86.6065 174.584 86.4165C175.522 87.8171 176.924 88.841 178.544 89.3069C176.314 89.8216 173.989 89.7451 171.798 89.0849C169.655 88.4354 167.604 87.5143 165.696 86.344C159.067 82.4976 155.411 79.1269 150.935 73.2055C150.351 70.6503 151.18 66.7268 153.006 64.7243Z" fill="#263238"/>
<path d="M167.294 82.8825C162.428 75.7741 156.235 71.973 150.631 70.7905Z" fill="#263238"/>
<path d="M150.631 70.7905C150.888 70.8933 151.153 70.9737 151.424 71.0306C151.936 71.1756 152.674 71.3976 153.562 71.7374C155.874 72.6355 158.047 73.8557 160.018 75.3618C161.989 76.8643 163.785 78.583 165.373 80.4858C165.971 81.2243 166.456 81.845 166.769 82.2527C166.924 82.4838 167.1 82.7006 167.294 82.9006C167.163 82.6528 167.012 82.4164 166.841 82.1938C166.551 81.7408 166.089 81.1292 165.505 80.3816C163.957 78.4217 162.173 76.6597 160.195 75.1353C158.2 73.614 155.985 72.407 153.626 71.5562C152.914 71.303 152.188 71.0927 151.451 70.9264C151.182 70.8593 150.907 70.8139 150.631 70.7905Z" fill="#455A64"/>
<path d="M173.094 88.9399L172.985 88.9761L172.668 89.103C172.396 89.2208 171.988 89.3748 171.454 89.556C169.943 90.0619 168.376 90.3814 166.787 90.5074C164.432 90.6827 162.064 90.5303 159.751 90.0544C156.918 89.4592 154.148 88.596 151.479 87.4765C148.624 86.3122 145.933 85.1161 143.537 83.9427C141.408 82.9127 139.359 81.7255 137.407 80.3908C136.094 79.4869 134.855 78.481 133.701 77.3825C133.284 76.9974 132.985 76.6758 132.795 76.4764L132.555 76.2363C132.5 76.1865 132.473 76.1593 132.469 76.1638C132.464 76.1683 132.469 76.1955 132.537 76.2544L132.759 76.5127C132.953 76.7392 133.243 77.0699 133.665 77.4686C134.8 78.5991 136.029 79.6312 137.339 80.5539C139.284 81.9205 141.334 83.1323 143.469 84.1783C145.87 85.3698 148.556 86.5749 151.415 87.7438C154.102 88.8664 156.89 89.7267 159.742 90.3126C162.078 90.7789 164.469 90.9101 166.842 90.7022C168.428 90.5573 169.99 90.2133 171.49 89.6784C172.02 89.4745 172.423 89.3069 172.69 89.1709L172.994 89.0214C173.062 88.9625 173.098 88.9444 173.094 88.9399Z" fill="#455A64"/>
<path d="M147.424 131.604L146.604 130C146.662 129.968 152.353 127.051 154.541 125.211C159.697 120.88 164.436 113.962 164.485 113.885L165.981 114.904C165.781 115.199 161.056 122.099 155.705 126.593C153.349 128.559 147.664 131.482 147.424 131.604Z" fill="#D9D9D9"/>
<path d="M151.66 126.598C151.66 126.598 143.885 130.068 143.885 130.838C143.885 131.608 145.118 133.149 146.042 133.072C146.966 132.995 149.639 131.491 150.119 130.874C150.599 130.258 151.451 128.673 152.385 127.902L151.66 126.598Z" fill="#263238"/>
<path d="M165.917 103.27L164.105 103.184C164.17 97.9581 163.27 92.7651 161.45 87.8662C157.517 77.736 149.956 72.2993 138.983 71.7013C137.985 71.6575 136.985 71.7259 136.002 71.9052L136.795 71.1531C137.179 70.7905 137.626 70.5004 138.113 70.2968C138.781 70.0175 139.508 69.9056 140.229 69.9706C154.083 71.1712 160.344 79.9786 163.158 87.2636C165.075 92.3785 166.011 97.8086 165.917 103.27Z" fill="#D9D9D9"/>
<path d="M165.011 119.747C168.181 119.747 170.751 116.052 170.751 111.493C170.751 106.934 168.181 103.238 165.011 103.238C161.84 103.238 159.271 106.934 159.271 111.493C159.271 116.052 161.84 119.747 165.011 119.747Z" fill="#455A64"/>
<path d="M170.751 111.493C170.745 111.455 170.745 111.417 170.751 111.379C170.751 111.289 170.751 111.18 170.724 111.044C170.703 110.616 170.66 110.19 170.592 109.766C170.358 108.206 169.75 106.724 168.821 105.449C168.508 105.036 168.146 104.664 167.743 104.339C167.304 103.993 166.809 103.725 166.279 103.546C165.713 103.362 165.113 103.305 164.521 103.378C163.896 103.472 163.297 103.696 162.764 104.035C161.633 104.822 160.76 105.925 160.254 107.207C159.688 108.571 159.397 110.034 159.397 111.511C159.397 112.988 159.688 114.45 160.254 115.815C160.759 117.096 161.632 118.2 162.764 118.986C163.297 119.325 163.896 119.549 164.521 119.643C165.113 119.714 165.712 119.657 166.279 119.475C166.809 119.296 167.304 119.028 167.743 118.682C168.145 118.356 168.507 117.984 168.821 117.573C169.75 116.297 170.358 114.816 170.592 113.255C170.659 112.832 170.703 112.405 170.724 111.977C170.724 111.841 170.724 111.733 170.751 111.642C170.745 111.605 170.745 111.566 170.751 111.529C170.758 111.566 170.758 111.605 170.751 111.642V111.977C170.746 112.409 170.716 112.84 170.66 113.269C170.458 114.857 169.863 116.371 168.93 117.672C168.612 118.099 168.244 118.485 167.833 118.823C167.38 119.189 166.867 119.473 166.316 119.661C165.722 119.856 165.092 119.919 164.472 119.847C163.816 119.753 163.188 119.521 162.628 119.167C161.455 118.37 160.548 117.24 160.023 115.923C159.439 114.532 159.139 113.038 159.139 111.529C159.139 110.02 159.439 108.526 160.023 107.134C160.548 105.817 161.455 104.688 162.628 103.89C163.188 103.536 163.816 103.305 164.472 103.211C165.092 103.138 165.722 103.202 166.316 103.397C166.867 103.585 167.38 103.869 167.833 104.235C168.245 104.571 168.614 104.958 168.93 105.385C169.864 106.686 170.459 108.2 170.66 109.789C170.716 110.216 170.746 110.645 170.751 111.076V111.416C170.754 111.441 170.754 111.467 170.751 111.493Z" fill="#D9D9D9"/>
<path d="M165.894 116.286C167.914 116.286 169.551 113.933 169.551 111.031C169.551 108.128 167.914 105.775 165.894 105.775C163.875 105.775 162.238 108.128 162.238 111.031C162.238 113.933 163.875 116.286 165.894 116.286Z" fill="#455A64"/>
<path d="M169.551 111.031C169.524 111.031 169.551 110.632 169.42 109.93C169.268 108.945 168.879 108.012 168.287 107.211C167.884 106.662 167.325 106.247 166.683 106.02C166.327 105.905 165.949 105.87 165.578 105.916C165.186 105.974 164.811 106.115 164.477 106.328C163.766 106.823 163.216 107.516 162.896 108.321C162.537 109.183 162.354 110.107 162.356 111.04C162.352 111.973 162.535 112.897 162.896 113.758C163.216 114.563 163.766 115.256 164.477 115.751C164.811 115.965 165.186 116.105 165.578 116.164C165.949 116.21 166.327 116.174 166.683 116.06C167.325 115.833 167.884 115.417 168.287 114.868C168.879 114.067 169.268 113.134 169.42 112.15C169.533 111.447 169.524 111.049 169.551 111.053C169.557 111.148 169.557 111.244 169.551 111.339C169.55 111.614 169.532 111.89 169.497 112.163C169.376 113.18 169.001 114.149 168.405 114.981C167.99 115.568 167.405 116.014 166.728 116.259C166.347 116.389 165.942 116.432 165.541 116.386C165.117 116.32 164.711 116.165 164.35 115.933C163.597 115.422 163.013 114.698 162.674 113.853C162.3 112.961 162.107 112.004 162.107 111.037C162.107 110.071 162.3 109.113 162.674 108.222C163.013 107.377 163.597 106.653 164.35 106.142C164.71 105.91 165.114 105.756 165.537 105.689C165.939 105.643 166.345 105.687 166.728 105.816C167.405 106.061 167.99 106.507 168.405 107.094C169.001 107.926 169.376 108.895 169.497 109.912C169.532 110.185 169.55 110.46 169.551 110.736C169.557 110.834 169.557 110.933 169.551 111.031Z" fill="#D9D9D9"/>
<path d="M166.148 114.809C167.599 114.809 168.776 113.117 168.776 111.031C168.776 108.944 167.599 107.252 166.148 107.252C164.697 107.252 163.521 108.944 163.521 111.031C163.521 113.117 164.697 114.809 166.148 114.809Z" fill="#D9D9D9"/>
<path d="M168.776 111.031C168.753 111.031 168.753 110.745 168.672 110.242C168.555 109.535 168.273 108.866 167.847 108.29C167.561 107.899 167.163 107.603 166.706 107.442C166.445 107.359 166.169 107.336 165.899 107.374C165.628 107.413 165.37 107.512 165.143 107.664C164.159 108.312 163.638 109.671 163.634 111.026C163.629 112.381 164.159 113.744 165.143 114.392C165.37 114.545 165.628 114.644 165.899 114.682C166.169 114.721 166.445 114.698 166.706 114.614C167.163 114.453 167.561 114.158 167.847 113.767C168.273 113.19 168.555 112.521 168.672 111.814C168.753 111.311 168.753 111.026 168.776 111.031C168.787 111.098 168.787 111.167 168.776 111.234C168.778 111.433 168.768 111.631 168.744 111.828C168.663 112.564 168.395 113.268 167.965 113.871C167.659 114.289 167.235 114.605 166.746 114.777C166.468 114.871 166.173 114.903 165.881 114.872C165.572 114.83 165.275 114.722 165.011 114.555C164.463 114.184 164.038 113.657 163.793 113.042C163.52 112.397 163.379 111.704 163.379 111.003C163.379 110.303 163.52 109.61 163.793 108.965C164.038 108.35 164.463 107.823 165.011 107.451C165.275 107.285 165.572 107.177 165.881 107.134C166.173 107.104 166.468 107.136 166.746 107.229C167.235 107.402 167.659 107.718 167.965 108.136C168.395 108.739 168.663 109.443 168.744 110.179C168.768 110.376 168.778 110.574 168.776 110.772C168.792 110.858 168.792 110.945 168.776 111.031Z" fill="#263238"/>
</svg>
