<svg xmlns="http://www.w3.org/2000/svg" xmlns:xlink="http://www.w3.org/1999/xlink" width="1920" zoomAndPan="magnify" viewBox="0 0 1440 809.999993" height="1080" preserveAspectRatio="xMidYMid meet" version="1.0"><defs><clipPath id="04ce61e6f7"><path d="M 105 148.160156 L 535 148.160156 L 535 388 L 105 388 Z M 105 148.160156 " clip-rule="nonzero"/></clipPath></defs><rect x="-144" width="1728" fill="#ffffff" y="-80.999999" height="971.999992" fill-opacity="1"/><rect x="-144" width="1728" fill="#ffffff" y="-80.999999" height="971.999992" fill-opacity="1"/><rect x="-144" width="1728" fill="#ffffff" y="-80.999999" height="971.999992" fill-opacity="1"/><g clip-path="url(#04ce61e6f7)"><path fill="#c0e9eb" d="M 158.703125 282.0625 C 142.171875 263.378906 141.808594 224.28125 167.265625 210.121094 C 192.726562 195.964844 225.207031 203.6875 250.296875 218.488281 C 251.332031 181.578125 285.035156 148.65625 321.984375 148.460938 C 358.9375 148.265625 392.984375 180.832031 394.40625 217.730469 C 407.851562 205.453125 432.328125 203.550781 450.488281 213.597656 C 468.332031 223.464844 476.742188 239.074219 474.636719 256.785156 C 499.972656 249.082031 541.226562 266.691406 533.214844 306.316406 C 522.414062 359.757812 447.601562 353.148438 447.601562 353.148438 C 447.601562 353.148438 429.480469 382.765625 379.113281 387.367188 C 346.09375 390.386719 310.523438 378.761719 290.796875 359.453125 C 278.984375 372.886719 250.042969 380.363281 208.789062 371.558594 C 189.789062 367.503906 168.335938 351.546875 175.546875 335.535156 C 117.871094 345.941406 103.246094 319.476562 105.855469 305.519531 C 111.460938 275.496094 158.703125 282.0625 158.703125 282.0625 Z M 158.703125 282.0625 " fill-opacity="1" fill-rule="nonzero"/></g><path fill="#effeff" d="M 447.601562 353.144531 C 447.601562 353.144531 429.480469 382.765625 379.113281 387.367188 C 346.089844 390.386719 310.523438 378.761719 290.796875 359.449219 C 278.980469 372.882812 250.042969 380.363281 208.789062 371.558594 C 189.789062 367.5 168.335938 351.542969 175.546875 335.535156 C 129.683594 343.808594 111.046875 328.769531 106.644531 315.242188 C 122.675781 331.132812 170.382812 331.511719 193.96875 309.117188 C 193.96875 309.117188 198.820312 341.828125 241.632812 342.738281 C 279.28125 343.539062 299.710938 325.128906 299.710938 325.128906 C 299.710938 325.128906 380.914062 395.472656 447.601562 353.144531 Z M 447.601562 353.144531 " fill-opacity="1" fill-rule="nonzero"/><path fill="#f6ec89" d="M 1652.214844 207.8125 C 1653.964844 181.128906 1607.871094 158.046875 1581.796875 156.246094 C 1579.433594 156.078125 1577.085938 156.105469 1574.789062 156.296875 C 1573.882812 132.421875 1555.496094 112.609375 1531.679688 110.960938 C 1524.582031 110.476562 1517.75 111.652344 1511.558594 114.167969 C 1497.640625 94.253906 1475.449219 80.625 1449.707031 78.847656 C 1409.398438 76.078125 1373.886719 103.296875 1364.03125 141.863281 C 1357.761719 138.578125 1350.75 136.523438 1343.28125 136.011719 C 1313.785156 133.980469 1288.261719 156.792969 1286.269531 186.980469 C 1284.289062 217.164062 1306.585938 243.273438 1336.09375 245.304688 C 1339.527344 245.546875 1342.910156 245.433594 1346.207031 245.023438 C 1348.195312 268.527344 1366.6875 287.675781 1390.398438 289.3125 C 1399.195312 289.910156 1407.597656 288.035156 1414.9375 284.253906 C 1423.453125 297.957031 1438.011719 307.476562 1455.070312 308.652344 C 1477.914062 310.222656 1498.277344 296.347656 1506.410156 275.746094 C 1513.359375 281.785156 1522.195312 285.695312 1532 286.371094 C 1553.414062 287.84375 1572.273438 273.433594 1577.582031 252.980469 C 1602.738281 253.558594 1650.503906 233.769531 1652.214844 207.8125 Z M 1652.214844 207.8125 " fill-opacity="1" fill-rule="nonzero"/><path fill="#f6ec89" d="M 1403.128906 192.714844 C 1404.800781 167.308594 1386.015625 145.324219 1361.195312 143.613281 C 1358.933594 143.457031 1356.714844 143.472656 1354.53125 143.648438 C 1353.675781 120.914062 1336.15625 102.046875 1313.480469 100.488281 C 1306.726562 100.027344 1300.226562 101.140625 1294.3125 103.539062 C 1281.058594 84.570312 1259.929688 71.59375 1235.414062 69.90625 C 1197.03125 67.261719 1163.21875 93.179688 1153.835938 129.90625 C 1147.859375 126.789062 1141.195312 124.820312 1134.082031 124.335938 C 1105.992188 122.40625 1081.691406 144.136719 1079.800781 172.863281 C 1077.914062 201.605469 1099.148438 226.464844 1127.238281 228.40625 C 1130.507812 228.636719 1133.722656 228.53125 1136.863281 228.136719 C 1138.765625 250.515625 1156.363281 268.746094 1178.949219 270.304688 C 1187.328125 270.878906 1195.332031 269.089844 1202.316406 265.488281 C 1210.425781 278.542969 1224.292969 287.597656 1240.519531 288.722656 C 1262.265625 290.21875 1281.660156 277.007812 1289.410156 257.390625 C 1296.023438 263.148438 1304.4375 266.867188 1313.773438 267.507812 C 1334.152344 268.910156 1352.117188 255.179688 1357.171875 235.710938 C 1381.140625 236.261719 1401.503906 217.417969 1403.128906 192.714844 Z M 1403.128906 192.714844 " fill-opacity="1" fill-rule="nonzero"/><path fill="#faf8dd" d="M 1534.695312 302.175781 C 1542.867188 273.585938 1526.355469 243.492188 1497.820312 234.945312 C 1495.226562 234.167969 1492.621094 233.605469 1490.03125 233.222656 C 1494.601562 207.023438 1478.804688 180.808594 1452.734375 173.015625 C 1444.96875 170.691406 1437.117188 170.246094 1429.648438 171.421875 C 1418.84375 146.230469 1397.367188 125.804688 1369.203125 117.375 C 1325.085938 104.179688 1279.324219 124.835938 1259.378906 164.304688 C 1253.1875 159.15625 1245.882812 155.148438 1237.699219 152.695312 C 1205.417969 143.039062 1171.761719 161.417969 1162.515625 193.761719 C 1153.273438 226.105469 1171.953125 260.148438 1204.230469 269.804688 C 1207.984375 270.929688 1211.765625 271.671875 1215.53125 272.054688 C 1212.261719 298.125 1228.324219 323.632812 1254.273438 331.402344 C 1263.898438 334.289062 1273.667969 334.351562 1282.707031 332.089844 C 1288.964844 349.15625 1302.90625 363.183594 1321.574219 368.765625 C 1346.574219 376.238281 1372.417969 366.285156 1386.261719 345.925781 C 1392.566406 354.253906 1401.46875 360.742188 1412.191406 363.949219 C 1435.625 370.960938 1459.921875 360.039062 1470.582031 339.128906 C 1498.378906 346.101562 1526.738281 329.96875 1534.695312 302.175781 Z M 1534.695312 302.175781 " fill-opacity="1" fill-rule="nonzero"/><path fill="#f6ec89" d="M 1586.332031 274.902344 C 1584.988281 254.066406 1567.214844 238.265625 1546.644531 239.621094 C 1544.78125 239.75 1542.957031 240.003906 1541.167969 240.386719 C 1538.027344 222.003906 1521.632812 208.59375 1502.835938 209.832031 C 1497.246094 210.203125 1492.023438 211.824219 1487.425781 214.417969 C 1474.515625 200.457031 1455.773438 192.242188 1435.46875 193.570312 C 1403.675781 195.652344 1378.6875 220.445312 1374.910156 251.320312 C 1369.671875 249.445312 1363.980469 248.585938 1358.09375 248.972656 C 1334.816406 250.492188 1317.195312 270.839844 1318.714844 294.394531 C 1320.234375 317.949219 1340.332031 335.832031 1363.609375 334.300781 C 1366.316406 334.121094 1368.957031 333.6875 1371.488281 333.023438 C 1375.445312 350.996094 1391.839844 363.882812 1410.558594 362.660156 C 1417.503906 362.199219 1423.875 359.859375 1429.238281 356.15625 C 1437.296875 365.863281 1449.644531 371.703125 1463.101562 370.820312 C 1481.117188 369.644531 1495.636719 356.757812 1499.886719 339.972656 C 1505.941406 343.917969 1513.242188 346.015625 1520.980469 345.515625 C 1537.875 344.40625 1551.152344 331.273438 1553.207031 314.898438 C 1572.9375 312.726562 1587.644531 295.160156 1586.332031 274.902344 Z M 1586.332031 274.902344 " fill-opacity="1" fill-rule="nonzero"/><path fill="#f6ec89" d="M 1141.332031 251.207031 C 1142.648438 228.074219 1161.917969 210.40625 1184.351562 211.746094 C 1186.394531 211.875 1188.386719 212.144531 1190.328125 212.566406 C 1193.621094 192.140625 1211.394531 177.144531 1231.886719 178.371094 C 1237.992188 178.738281 1243.699219 180.503906 1248.71875 183.351562 C 1262.6875 167.765625 1283.066406 158.507812 1305.21875 159.835938 C 1339.898438 161.902344 1367.3125 189.242188 1371.640625 223.472656 C 1377.335938 221.355469 1383.527344 220.359375 1389.964844 220.742188 C 1415.347656 222.261719 1434.703125 244.703125 1433.210938 270.867188 C 1431.714844 297.027344 1409.933594 317.003906 1384.550781 315.496094 C 1381.585938 315.320312 1378.714844 314.859375 1375.957031 314.144531 C 1371.769531 334.121094 1353.980469 348.542969 1333.578125 347.328125 C 1326.003906 346.882812 1319.035156 344.328125 1313.171875 340.265625 C 1304.464844 351.109375 1291.03125 357.675781 1276.359375 356.796875 C 1256.710938 355.621094 1240.800781 341.441406 1236.039062 322.828125 C 1229.476562 327.261719 1221.519531 329.636719 1213.09375 329.128906 C 1194.679688 328.027344 1180.113281 313.542969 1177.738281 295.378906 C 1156.210938 293.078125 1140.058594 273.703125 1141.332031 251.207031 Z M 1141.332031 251.207031 " fill-opacity="1" fill-rule="nonzero"/><path fill="#ffe1e1" d="M 833.492188 636.179688 C 833.492188 636.179688 796.492188 663.230469 763.316406 648.125 C 713.652344 625.519531 724.90625 581.105469 724.90625 581.105469 C 724.90625 581.105469 655.859375 576.75 654.503906 525.304688 C 653.148438 473.859375 712.734375 467.535156 712.734375 467.535156 C 712.734375 467.535156 710.992188 413.644531 758.925781 398.984375 C 797.234375 387.269531 827.449219 418.015625 827.449219 418.015625 C 827.449219 418.015625 837.234375 362.792969 891.25 358.355469 C 945.265625 353.921875 962.257812 404.082031 962.257812 404.082031 C 962.257812 404.082031 1014.175781 374.042969 1052.628906 406.6875 C 1091.082031 439.332031 1076.355469 469.1875 1076.355469 469.1875 C 1076.355469 469.1875 1118.691406 472.492188 1125.691406 512.394531 C 1133.859375 558.980469 1071.957031 572.660156 1071.957031 572.660156 C 1071.957031 572.660156 1073.171875 609.527344 1030.5625 632.179688 C 991.121094 653.152344 940.015625 626.851562 940.015625 626.851562 C 940.015625 626.851562 939.496094 659.085938 898.738281 668.160156 C 855.023438 677.894531 833.492188 636.179688 833.492188 636.179688 Z M 833.492188 636.179688 " fill-opacity="1" fill-rule="nonzero"/><path fill="#e17473" d="M 1071.957031 572.660156 C 1071.957031 572.660156 1073.171875 609.527344 1030.5625 632.179688 C 991.121094 653.152344 940.015625 626.851562 940.015625 626.851562 C 940.015625 626.851562 939.496094 659.085938 898.738281 668.160156 C 855.023438 677.894531 833.492188 636.179688 833.492188 636.179688 C 833.492188 636.179688 796.492188 663.226562 763.316406 648.125 C 713.652344 625.519531 724.90625 581.105469 724.90625 581.105469 C 724.90625 581.105469 655.859375 576.75 654.503906 525.304688 C 653.910156 502.769531 665.007812 488.890625 677.671875 480.414062 C 677.230469 482.472656 660.601562 521.476562 687.46875 540.679688 C 715.429688 560.667969 752.714844 550.007812 752.714844 550.007812 C 752.714844 550.007812 749.667969 573.144531 780.230469 593.539062 C 804.199219 609.527344 845.921875 591.761719 845.921875 591.761719 C 845.921875 591.761719 858.292969 613.96875 886.753906 613.96875 C 918.710938 613.96875 933.804688 582.878906 933.804688 582.878906 C 933.804688 582.878906 981.738281 615.746094 1015.472656 601.53125 C 1053.988281 585.304688 1043.878906 549.5625 1043.878906 549.5625 C 1043.878906 549.5625 1092.519531 551.429688 1124.730469 532.417969 C 1115.519531 563.027344 1071.957031 572.660156 1071.957031 572.660156 Z M 1071.957031 572.660156 " fill-opacity="1" fill-rule="nonzero"/></svg>