<svg width="43" height="43" viewBox="0 0 43 43" fill="none" xmlns="http://www.w3.org/2000/svg">
<mask id="path-1-inside-1_433_24" fill="white">
<path d="M42.1604 21.4972C42.1604 17.328 40.9241 13.2523 38.6077 9.78572C36.2914 6.3191 32.9991 3.6172 29.1472 2.02169C25.2953 0.426177 21.0568 0.00871929 16.9677 0.822103C12.8785 1.63549 9.12236 3.64318 6.17425 6.5913C3.22613 9.53942 1.21843 13.2955 0.40505 17.3847C-0.408334 21.4739 0.00912427 25.7124 1.60463 29.5643C3.20014 33.4162 5.90205 36.7085 9.36867 39.0248C12.8353 41.3411 16.9109 42.5774 21.0802 42.5774L21.0802 39.6848C17.483 39.6848 13.9667 38.6181 10.9757 36.6197C7.9848 34.6212 5.65365 31.7807 4.27708 28.4573C2.9005 25.134 2.54033 21.4771 3.2421 17.949C3.94387 14.421 5.67607 11.1803 8.21965 8.6367C10.7632 6.09312 14.0039 4.36092 17.532 3.65915C21.06 2.95738 24.7169 3.31756 28.0403 4.69413C31.3636 6.0707 34.2041 8.40185 36.2026 11.3928C38.2011 14.3837 39.2678 17.9001 39.2678 21.4972H42.1604Z"/>
</mask>
<path d="M42.1604 21.4972C42.1604 17.328 40.9241 13.2523 38.6077 9.78572C36.2914 6.3191 32.9991 3.6172 29.1472 2.02169C25.2953 0.426177 21.0568 0.00871929 16.9677 0.822103C12.8785 1.63549 9.12236 3.64318 6.17425 6.5913C3.22613 9.53942 1.21843 13.2955 0.40505 17.3847C-0.408334 21.4739 0.00912427 25.7124 1.60463 29.5643C3.20014 33.4162 5.90205 36.7085 9.36867 39.0248C12.8353 41.3411 16.9109 42.5774 21.0802 42.5774L21.0802 39.6848C17.483 39.6848 13.9667 38.6181 10.9757 36.6197C7.9848 34.6212 5.65365 31.7807 4.27708 28.4573C2.9005 25.134 2.54033 21.4771 3.2421 17.949C3.94387 14.421 5.67607 11.1803 8.21965 8.6367C10.7632 6.09312 14.0039 4.36092 17.532 3.65915C21.06 2.95738 24.7169 3.31756 28.0403 4.69413C31.3636 6.0707 34.2041 8.40185 36.2026 11.3928C38.2011 14.3837 39.2678 17.9001 39.2678 21.4972H42.1604Z" stroke="#244188" stroke-width="4" mask="url(#path-1-inside-1_433_24)"/>
</svg>
