<svg width="36" height="28" viewBox="0 0 36 28" fill="none" xmlns="http://www.w3.org/2000/svg">
<g clip-path="url(#clip0_299_15)">
<path d="M17.7837 27.8395C27.4543 27.8395 35.2934 21.729 35.2934 14.191C35.2934 6.65291 27.4543 0.54248 17.7837 0.54248C8.11303 0.54248 0.273926 6.65291 0.273926 14.191C0.273926 21.729 8.11303 27.8395 17.7837 27.8395ZM25.15 11.7438L17.2706 17.8856C16.9423 18.1415 16.497 18.2852 16.0327 18.2852C15.5684 18.2852 15.1231 18.1415 14.7947 17.8856L11.2928 15.1559C11.1256 15.03 10.9922 14.8794 10.9004 14.7129C10.8086 14.5464 10.7603 14.3673 10.7583 14.1861C10.7563 14.0048 10.8006 13.8251 10.8886 13.6574C10.9767 13.4896 11.1067 13.3373 11.2711 13.2091C11.4355 13.081 11.631 12.9796 11.8462 12.911C12.0614 12.8424 12.2919 12.8078 12.5244 12.8094C12.7569 12.811 12.9867 12.8486 13.2003 12.9202C13.4139 12.9917 13.6072 13.0957 13.7687 13.226L16.0327 14.9908L22.6741 9.8139C22.8356 9.68355 23.0289 9.57957 23.2425 9.50804C23.4561 9.43651 23.6859 9.39886 23.9184 9.39728C24.1509 9.39571 24.3814 9.43024 24.5966 9.49886C24.8118 9.56749 25.0073 9.66884 25.1717 9.79698C25.3361 9.92513 25.4661 10.0775 25.5542 10.2453C25.6422 10.413 25.6865 10.5927 25.6845 10.7739C25.6825 10.9552 25.6342 11.1343 25.5424 11.3008C25.4506 11.4673 25.3172 11.6179 25.15 11.7438Z" fill="#94CD6A"/>
</g>
<defs>
<clipPath id="clip0_299_15">
<rect width="35.0195" height="27.297" fill="white" transform="translate(0.273926 0.54248)"/>
</clipPath>
</defs>
</svg>
