<svg width="625" height="677" viewBox="0 0 625 677" fill="none" xmlns="http://www.w3.org/2000/svg">
<path d="M404.595 31.7317C404.595 31.7317 313.826 -3.24459 224.718 52.4308C135.609 108.106 90.6425 218.619 52.0411 307.134C13.4398 395.65 35.6546 485.706 103.672 526.767C171.689 567.827 217.941 507.298 313.34 504.35C408.738 501.403 434.398 516.18 513.61 457.787C592.822 399.395 607.111 261.477 544.648 159.428C482.184 57.3791 404.595 31.7317 404.595 31.7317Z" fill="#E8F4DF"/>
<path opacity="0.7" d="M399.713 31.7317C399.713 31.7317 308.944 -3.24459 219.835 52.4308C130.726 108.106 85.7601 218.619 47.1588 307.134C8.5575 395.65 30.7723 485.706 98.7895 526.766C166.807 567.827 213.058 507.298 308.457 504.35C403.856 501.403 429.515 516.18 508.727 457.787C587.939 399.395 602.229 261.477 539.766 159.428C477.302 57.3791 399.713 31.7317 399.713 31.7317Z" fill="white"/>
<path d="M567.062 538.461C562.07 537.69 552.573 530.984 552.561 530.984C552.548 530.984 558.538 525.576 558.95 525.252C563.805 521.886 575 518.492 579.979 522.913C580.788 523.677 581.439 524.616 581.89 525.67C582.341 526.725 582.582 527.87 582.597 529.032C582.613 530.194 582.402 531.347 581.979 532.414C581.556 533.482 580.93 534.441 580.141 535.23C576.909 538.691 571.318 539.123 567.062 538.461Z" fill="#94CD6A"/>
<path d="M473.973 486.558C473.848 486.558 476.182 478.446 476.381 477.959C478.715 472.254 486.365 462.722 492.73 463.452C493.791 463.605 494.811 463.998 495.723 464.606C496.635 465.214 497.418 466.024 498.022 466.982C498.626 467.939 499.037 469.024 499.228 470.166C499.42 471.307 499.387 472.479 499.132 473.606C498.209 478.446 493.766 482.151 489.872 484.138C485.304 486.477 473.973 486.558 473.973 486.558Z" fill="#94CD6A"/>
<path d="M464.65 621.839C462.441 624.813 460.431 627.612 458.634 630.181H454.091C456.375 627.004 459.084 623.421 462.054 619.527C463.801 617.256 465.71 614.876 467.695 612.443C465.9 610.047 464.233 607.542 462.703 604.939C458.647 606.413 450.36 606.021 449.287 605.967C448.975 608.846 448.7 611.672 448.475 614.322C447.951 620.338 447.639 625.679 447.427 630.181H443.683C443.982 625.584 444.419 620.122 445.068 613.957C445.38 611.01 445.755 607.886 446.179 604.669C445.131 604.331 436.632 601.451 433.512 598.463C430.679 595.759 427.771 591.433 428.083 587.106C428.125 586.087 428.364 585.089 428.785 584.177C429.206 583.265 429.799 582.458 430.527 581.811C431.254 581.163 432.099 580.688 433.007 580.417C433.914 580.146 434.864 580.085 435.795 580.238C441.374 581.333 445.617 591.406 446.291 596.841C446.291 597.165 446.404 600.694 446.416 602.925C446.591 601.573 446.753 600.342 446.94 598.99C447.315 596.286 447.764 593.677 448.188 590.878C448.463 589.526 448.737 588.174 449.012 586.728C449.287 585.281 449.686 583.902 450.023 582.469C450.859 579.183 451.857 575.885 452.931 572.586C450.772 572.234 443.134 570.828 439.939 568.597C436.744 566.367 433.287 562.594 432.987 558.268C432.88 557.25 432.973 556.219 433.258 555.242C433.544 554.265 434.017 553.364 434.646 552.598C435.275 551.833 436.046 551.22 436.908 550.799C437.771 550.378 438.706 550.159 439.652 550.156C445.318 550.318 450.884 559.62 452.357 564.852C452.444 565.177 453.068 569.071 453.38 571.22C454.041 569.246 454.69 567.272 455.414 565.298C457.511 559.607 459.795 553.901 462.054 548.209C462.74 546.465 463.414 544.707 464.088 542.963C463.327 542.842 454.216 541.395 450.634 538.907C447.464 536.69 443.982 532.904 443.683 528.578C443.576 527.56 443.668 526.529 443.954 525.552C444.24 524.575 444.713 523.674 445.342 522.909C445.971 522.143 446.741 521.53 447.604 521.109C448.467 520.688 449.401 520.469 450.347 520.466C456.013 520.628 461.58 529.93 463.04 535.162C463.152 535.554 464.051 541.165 464.213 542.612C465.711 538.759 467.158 534.905 468.444 531.052C470.21 525.855 471.665 520.54 472.799 515.139C472.437 515.139 462.927 513.611 459.258 511.083C456.088 508.866 452.606 505.08 452.307 500.754C452.198 499.735 452.289 498.703 452.574 497.725C452.859 496.747 453.331 495.846 453.961 495.08C454.59 494.314 455.362 493.701 456.225 493.28C457.089 492.86 458.025 492.643 458.971 492.642C464.637 492.804 470.203 502.106 471.664 507.325C471.763 507.676 472.45 511.948 472.737 513.99H473.061C474.063 508.52 474.61 502.963 474.696 497.387C474.784 494.318 474.696 491.385 474.571 488.532C472.774 488.451 464.587 488.005 461.03 486.085C457.474 484.165 453.804 480.92 453.068 476.621C452.866 475.624 452.86 474.593 453.05 473.593C453.239 472.594 453.621 471.648 454.169 470.819C454.717 469.989 455.42 469.293 456.232 468.777C457.045 468.26 457.948 467.934 458.884 467.819C464.525 467.305 471.04 475.85 472.986 480.907C473.099 481.19 473.885 484.111 474.434 486.315C474.359 484.963 474.297 483.692 474.197 482.461C473.835 477.824 473.249 473.619 472.699 469.888C472.375 467.765 472.038 465.832 471.701 464.088C469.979 463.006 463.065 458.599 460.781 455.205C458.497 451.812 456.575 446.998 457.736 442.848C457.979 441.862 458.411 440.943 459.004 440.151C459.596 439.358 460.336 438.709 461.175 438.246C462.015 437.783 462.934 437.517 463.875 437.464C464.815 437.411 465.755 437.574 466.634 437.94C471.863 440.306 474.01 451.136 473.586 456.598C473.586 457.071 472.188 464.385 472.1 464.331L472.001 464.263C472.35 465.967 472.712 467.806 473.061 469.82C473.685 473.538 474.309 477.756 474.821 482.394C475.356 487.384 475.622 492.404 475.62 497.428C475.66 503.054 475.242 508.673 474.372 514.22C474.372 514.287 474.372 514.355 474.372 514.409C475.146 512.827 477.454 508.447 477.667 508.136C480.649 503.715 488.836 497.063 494.215 498.996C495.101 499.343 495.909 499.887 496.587 500.594C497.265 501.301 497.798 502.155 498.151 503.1C498.504 504.046 498.67 505.061 498.637 506.08C498.604 507.099 498.373 508.099 497.959 509.015C496.324 512.976 491.857 515.261 488.175 516.18C484.019 517.221 474.958 515.22 474.235 515.058C473.193 520.672 471.809 526.205 470.091 531.62C469.105 534.784 468.019 537.934 466.896 541.084C467.608 539.732 468.244 538.529 468.356 538.38C471.339 533.959 479.514 527.307 484.905 529.241C485.79 529.587 486.598 530.131 487.276 530.838C487.955 531.546 488.488 532.4 488.841 533.345C489.194 534.29 489.36 535.305 489.326 536.324C489.293 537.343 489.063 538.343 488.649 539.259C487.014 543.22 482.559 545.505 478.877 546.424C475.195 547.344 467.383 545.816 465.336 545.383C464.887 546.587 464.462 547.79 464.013 548.993C461.867 554.753 459.708 560.485 457.773 566.177C457.087 568.178 456.525 570.233 455.851 572.194C456.488 570.99 457.024 569.976 457.099 569.841C460.082 565.407 468.256 558.768 473.648 560.688C474.534 561.036 475.342 561.582 476.02 562.29C476.698 562.999 477.231 563.854 477.584 564.8C477.937 565.746 478.103 566.762 478.07 567.782C478.037 568.802 477.806 569.803 477.392 570.72C475.757 574.681 471.302 576.966 467.62 577.872C463.938 578.778 456.875 577.426 454.441 576.912C453.867 578.994 453.28 581.063 452.806 583.104C452.519 584.456 452.145 585.808 451.92 587.241C451.695 588.674 451.421 590.026 451.171 591.406C450.797 594.11 450.385 596.814 450.073 599.436C449.836 601.248 449.648 602.979 449.461 604.723C450.123 602.722 451.508 598.828 451.658 598.517C453.86 594.321 457.018 590.807 460.831 588.309C461.055 587.831 461.322 587.378 461.629 586.957C462.182 586.132 462.889 585.442 463.703 584.932C464.518 584.422 465.423 584.104 466.359 583.998C467.295 583.892 468.241 584.001 469.136 584.318C470.03 584.634 470.853 585.151 471.551 585.835C475.657 590.081 474.047 601.018 471.851 605.953C471.726 606.25 469.991 609.238 468.856 611.104C469.679 610.117 470.453 609.144 471.352 608.143C473.024 606.142 474.734 604.195 476.581 602.1L479.389 599.139C480.3 598.125 481.386 597.179 482.384 596.192C484.768 593.934 487.276 591.784 489.872 589.675C488.262 588.093 482.609 582.361 481.136 578.589C479.663 574.816 478.64 569.611 480.599 565.826C481.034 564.922 481.639 564.127 482.376 563.493C483.112 562.859 483.963 562.4 484.874 562.145C485.785 561.89 486.735 561.845 487.662 562.014C488.59 562.182 489.475 562.559 490.259 563.122C494.902 566.65 494.864 577.723 493.367 582.969C493.279 583.294 491.819 586.917 490.983 588.891C492.53 587.647 494.078 586.39 495.688 585.173C500.343 581.671 505.148 578.278 509.94 574.884L514.308 571.734C513.722 571.166 506.82 564.514 505.16 560.296C503.638 556.551 502.664 551.305 504.624 547.52C505.057 546.614 505.662 545.818 506.398 545.183C507.134 544.548 507.985 544.088 508.897 543.832C509.808 543.577 510.759 543.533 511.687 543.702C512.615 543.872 513.5 544.251 514.284 544.816C518.926 548.331 518.889 559.417 517.391 564.649C517.279 565.042 515.17 570.274 514.571 571.572C517.778 569.246 520.948 566.907 523.981 564.46C528.107 561.182 532.03 557.614 535.725 553.779C535.45 553.522 528.236 546.614 526.514 542.287C524.992 538.542 524.018 533.297 525.965 529.524C526.398 528.619 527.003 527.823 527.739 527.188C528.475 526.553 529.327 526.092 530.238 525.837C531.149 525.582 532.1 525.538 533.028 525.707C533.956 525.877 534.841 526.256 535.625 526.82C540.28 530.349 540.23 541.422 538.745 546.654C538.645 547.006 537.035 550.981 536.249 552.86C536.341 552.92 536.429 552.988 536.511 553.063C540.136 549.102 543.423 544.794 546.333 540.192C547.968 537.677 549.403 535.189 550.738 532.729C549.278 531.58 542.664 526.307 540.692 522.602C538.72 518.898 537.297 513.963 538.857 509.975C539.192 509.02 539.709 508.153 540.374 507.43C541.04 506.707 541.838 506.144 542.718 505.777C543.598 505.411 544.539 505.25 545.48 505.305C546.421 505.359 547.341 505.628 548.18 506.094C553.172 509.042 554.233 520.06 553.284 525.441C553.284 525.739 552.398 528.659 551.774 530.768C552.361 529.646 553.022 528.497 553.534 527.415C555.593 523.359 557.278 519.479 558.688 516.032C559.487 514.071 560.186 512.286 560.81 510.624C559.911 508.704 556.404 500.876 556.23 496.684C556.055 492.493 556.891 487.329 559.974 484.516C560.677 483.837 561.505 483.327 562.403 483.018C563.301 482.709 564.249 482.609 565.185 482.723C566.122 482.838 567.025 483.166 567.837 483.684C568.648 484.203 569.35 484.901 569.895 485.733C573.053 490.83 569.334 501.146 566.151 505.445C565.889 505.824 561.034 511.11 560.985 511.016L560.922 510.894C560.348 512.53 559.674 514.274 558.988 516.167C557.615 519.641 556.03 523.562 553.996 527.699C551.907 532.186 549.573 536.534 547.007 540.719C544.163 545.431 540.935 549.856 537.359 553.942C537.321 553.99 537.279 554.035 537.235 554.077C538.682 553.212 542.838 550.954 543.175 550.818C547.918 548.912 558.152 548.25 561.633 553.076C562.196 553.896 562.592 554.834 562.797 555.831C563.002 556.827 563.01 557.859 562.821 558.86C562.633 559.86 562.252 560.806 561.703 561.636C561.154 562.466 560.45 563.161 559.637 563.676C556.267 566.001 551.387 565.231 547.843 563.798C543.849 562.175 537.31 555.104 536.785 554.536C533.06 558.598 529.086 562.383 524.892 565.866C522.396 567.921 519.9 569.922 517.404 571.856C518.652 571.153 519.837 570.504 520.012 570.504C524.754 568.597 534.988 567.935 538.47 572.761C539.032 573.581 539.429 574.519 539.634 575.516C539.838 576.512 539.847 577.544 539.658 578.545C539.47 579.545 539.089 580.491 538.54 581.321C537.991 582.151 537.287 582.846 536.473 583.361C533.104 585.687 528.224 584.929 524.68 583.496C521.135 582.063 515.394 576.114 513.909 574.533C512.936 575.263 511.962 576.02 510.976 576.75C506.259 580.265 501.529 583.753 496.986 587.336C495.388 588.593 493.866 589.905 492.318 591.203C493.467 590.567 494.427 590.054 494.577 589.999C499.32 588.093 509.554 587.431 513.036 592.257C513.598 593.076 513.995 594.014 514.201 595.009C514.407 596.005 514.416 597.037 514.229 598.037C514.042 599.037 513.662 599.984 513.114 600.814C512.567 601.645 511.864 602.341 511.051 602.857C507.669 605.182 502.789 604.425 499.245 602.979C495.7 601.532 490.509 596.219 488.749 594.312C487.214 595.664 485.666 597.016 484.244 598.49C483.283 599.477 482.297 600.356 481.386 601.41L478.64 604.439C476.968 606.44 475.233 608.495 473.648 610.469C472.537 611.821 471.489 613.173 470.441 614.525C472.026 613.254 475.158 610.834 475.433 610.658C479.863 607.954 489.847 605.669 493.991 609.86C494.662 610.578 495.186 611.44 495.529 612.392C495.872 613.343 496.026 614.363 495.982 615.383C495.937 616.403 495.694 617.402 495.269 618.314C494.845 619.226 494.247 620.031 493.516 620.676C490.371 623.421 485.492 623.421 481.748 622.637C477.679 621.717 470.515 616.052 469.592 615.349C467.857 617.567 466.185 619.743 464.65 621.839Z" fill="#94CD6A"/>
<path d="M409.811 538.461C404.819 537.69 395.322 530.984 395.31 530.984C395.297 530.984 401.288 525.576 401.699 525.252C406.554 521.886 417.749 518.492 422.728 522.913C423.537 523.677 424.188 524.616 424.639 525.67C425.09 526.725 425.331 527.87 425.346 529.032C425.362 530.194 425.151 531.347 424.728 532.414C424.305 533.482 423.679 534.441 422.89 535.23C419.658 538.691 414.067 539.123 409.811 538.461Z" fill="#94CD6A"/>
<path d="M316.722 486.558C316.597 486.558 318.931 478.446 319.13 477.959C321.464 472.254 329.114 462.722 335.479 463.452C336.54 463.605 337.56 463.998 338.472 464.606C339.384 465.214 340.167 466.024 340.771 466.982C341.375 467.939 341.786 469.024 341.977 470.166C342.169 471.307 342.136 472.479 341.881 473.606C340.958 478.446 336.515 482.151 332.621 484.138C328.053 486.477 316.722 486.558 316.722 486.558Z" fill="#94CD6A"/>
<path d="M307.399 621.839C305.19 624.813 303.18 627.612 301.383 630.181H296.841C299.124 627.004 301.833 623.421 304.803 619.527C306.55 617.256 308.46 614.876 310.444 612.443C308.649 610.047 306.982 607.542 305.452 604.939C301.396 606.413 293.109 606.021 292.036 605.967C291.724 608.846 291.449 611.672 291.224 614.322C290.7 620.338 290.388 625.679 290.176 630.181H286.494C286.794 625.584 287.231 620.122 287.88 613.957C288.192 611.01 288.566 607.886 288.99 604.669C287.942 604.331 279.443 601.451 276.323 598.463C273.49 595.759 270.582 591.433 270.894 587.106C270.936 586.087 271.175 585.089 271.596 584.177C272.017 583.265 272.611 582.458 273.338 581.811C274.066 581.163 274.91 580.688 275.818 580.417C276.726 580.146 277.676 580.085 278.607 580.238C284.186 581.333 288.429 591.406 289.103 596.841C289.103 597.165 289.215 600.694 289.228 602.925C289.402 601.573 289.565 600.342 289.752 598.99C290.126 596.286 290.575 593.677 291 590.878C291.274 589.526 291.549 588.174 291.823 586.728C292.098 585.281 292.497 583.902 292.834 582.469C293.671 579.183 294.669 575.885 295.742 572.586C293.583 572.234 285.945 570.828 282.75 568.597C279.555 566.367 276.098 562.594 275.799 558.268C275.692 557.25 275.784 556.219 276.07 555.242C276.356 554.265 276.829 553.364 277.458 552.598C278.086 551.833 278.857 551.22 279.72 550.799C280.583 550.378 281.517 550.159 282.463 550.156C288.129 550.318 293.696 559.62 295.168 564.852C295.256 565.177 295.88 569.071 296.192 571.22C296.853 569.246 297.44 567.272 298.226 565.298C300.323 559.607 302.606 553.901 304.865 548.209C305.552 546.465 306.226 544.707 306.9 542.963C306.138 542.842 297.028 541.395 293.446 538.907C290.276 536.69 286.794 532.904 286.494 528.578C286.387 527.56 286.48 526.529 286.766 525.552C287.051 524.575 287.524 523.674 288.153 522.909C288.782 522.143 289.553 521.53 290.416 521.109C291.278 520.688 292.213 520.469 293.159 520.466C298.825 520.628 304.391 529.93 305.851 535.162C305.964 535.554 306.862 541.165 307.024 542.612C308.522 538.759 309.97 534.905 311.255 531.052C313.022 525.855 314.477 520.54 315.611 515.139C315.249 515.139 305.739 513.611 302.07 511.083C298.9 508.866 295.418 505.08 295.118 500.754C295.009 499.735 295.1 498.703 295.385 497.725C295.67 496.747 296.143 495.846 296.772 495.08C297.402 494.314 298.173 493.701 299.037 493.28C299.9 492.86 300.836 492.643 301.783 492.642C307.449 492.804 313.015 502.106 314.475 507.325C314.575 507.676 315.261 511.948 315.548 513.99H315.873C316.874 508.52 317.421 502.963 317.508 497.387C317.595 494.318 317.508 491.385 317.383 488.532C315.586 488.451 307.399 488.005 303.842 486.085C300.285 484.165 296.616 480.92 295.88 476.621C295.678 475.625 295.671 474.595 295.86 473.596C296.049 472.597 296.429 471.653 296.976 470.823C297.523 469.994 298.225 469.298 299.035 468.78C299.846 468.263 300.748 467.935 301.683 467.819C307.336 467.305 313.851 475.85 315.798 480.907C315.91 481.19 316.697 484.111 317.246 486.315C317.171 484.963 317.108 483.692 317.009 482.461C316.647 477.824 316.06 473.619 315.511 469.888C315.186 467.765 314.849 465.832 314.513 464.088C312.79 463.006 305.876 458.599 303.592 455.205C301.308 451.812 299.386 446.998 300.547 442.848C300.791 441.862 301.223 440.943 301.815 440.151C302.408 439.358 303.148 438.709 303.987 438.246C304.826 437.783 305.746 437.517 306.686 437.464C307.627 437.411 308.567 437.574 309.446 437.94C314.675 440.306 316.821 451.136 316.397 456.598C316.397 457.071 314.999 464.385 314.912 464.331L314.812 464.263C315.162 465.967 315.523 467.806 315.873 469.82C316.497 473.538 317.183 477.756 317.633 482.394C318.167 487.384 318.434 492.404 318.431 497.428C318.451 503.056 318.012 508.675 317.121 514.22C317.121 514.287 317.121 514.355 317.121 514.409C317.895 512.827 320.204 508.447 320.416 508.136C323.398 503.715 331.585 497.063 336.964 498.996C337.85 499.343 338.658 499.887 339.336 500.594C340.014 501.301 340.547 502.155 340.9 503.1C341.253 504.046 341.419 505.061 341.386 506.08C341.353 507.099 341.122 508.099 340.708 509.015C339.074 512.976 334.606 515.261 330.924 516.18C326.768 517.221 317.707 515.22 316.984 515.058C315.942 520.672 314.558 526.205 312.84 531.62C311.854 534.784 310.768 537.934 309.645 541.084C310.357 539.732 310.993 538.529 311.105 538.38C314.088 533.959 322.263 527.307 327.654 529.241C328.539 529.587 329.347 530.131 330.026 530.838C330.704 531.546 331.237 532.4 331.59 533.345C331.943 534.29 332.109 535.305 332.076 536.324C332.043 537.343 331.812 538.343 331.398 539.259C329.763 543.22 325.308 545.505 321.626 546.424C317.945 547.344 310.132 545.816 308.085 545.383C307.636 546.587 307.212 547.79 306.762 548.993C304.616 554.753 302.457 560.485 300.522 566.177C299.836 568.178 299.274 570.233 298.6 572.194C299.237 570.99 299.773 569.976 299.848 569.841C302.831 565.407 311.006 558.768 316.397 560.688C317.283 561.036 318.091 561.582 318.769 562.29C319.447 562.999 319.98 563.854 320.333 564.8C320.687 565.746 320.852 566.762 320.819 567.782C320.786 568.802 320.555 569.803 320.141 570.72C318.506 574.681 314.051 576.966 310.369 577.872C306.687 578.778 299.624 577.426 297.19 576.912C296.616 578.994 296.029 581.063 295.555 583.104C295.268 584.456 294.894 585.808 294.669 587.241C294.444 588.674 294.17 590.026 293.92 591.406C293.546 594.11 293.134 596.814 292.822 599.436C292.585 601.248 292.398 602.979 292.21 604.723C292.872 602.722 294.257 598.828 294.407 598.517C296.609 594.321 299.767 590.807 303.58 588.309C303.804 587.831 304.071 587.378 304.379 586.957C304.931 586.121 305.641 585.422 306.461 584.905C307.281 584.389 308.194 584.067 309.137 583.961C310.081 583.855 311.035 583.967 311.936 584.29C312.837 584.613 313.664 585.14 314.363 585.835C318.469 590.081 316.859 601.018 314.662 605.953C314.537 606.25 312.803 609.238 311.667 611.104C312.491 610.117 313.265 609.144 314.163 608.143C315.835 606.142 317.545 604.195 319.392 602.1L322.2 599.139C323.111 598.125 324.197 597.179 325.196 596.192C327.579 593.934 330.088 591.784 332.684 589.675C331.074 588.093 325.42 582.361 323.948 578.589C322.475 574.816 321.452 569.611 323.411 565.826C323.846 564.922 324.451 564.127 325.187 563.493C325.924 562.859 326.775 562.4 327.685 562.145C328.596 561.89 329.546 561.845 330.474 562.014C331.401 562.182 332.286 562.559 333.071 563.122C337.713 566.65 337.676 577.723 336.178 582.969C336.091 583.294 334.631 586.917 333.794 588.891C335.342 587.647 336.89 586.39 338.5 585.173C343.155 581.671 347.96 578.278 352.752 574.884L357.12 571.734C356.533 571.166 349.632 564.514 347.972 560.296C346.449 556.551 345.476 551.305 347.435 547.52C347.869 546.614 348.473 545.818 349.209 545.183C349.945 544.548 350.797 544.088 351.708 543.832C352.619 543.577 353.57 543.533 354.498 543.702C355.426 543.872 356.311 544.251 357.095 544.816C361.738 548.331 361.7 559.417 360.203 564.649C360.09 565.042 357.981 570.274 357.382 571.572C360.59 569.246 363.759 566.907 366.792 564.46C370.918 561.182 374.841 557.614 378.536 553.779C378.261 553.522 371.048 546.614 369.326 542.287C367.803 538.542 366.83 533.297 368.777 529.524C369.21 528.619 369.814 527.823 370.55 527.188C371.287 526.553 372.138 526.092 373.049 525.837C373.961 525.582 374.911 525.538 375.839 525.707C376.768 525.877 377.652 526.256 378.436 526.82C383.091 530.349 383.041 541.422 381.556 546.654C381.456 547.006 379.846 550.981 379.06 552.86C379.153 552.92 379.24 552.988 379.322 553.063C382.948 549.102 386.235 544.794 389.144 540.192C390.779 537.677 392.214 535.189 393.55 532.729C392.09 531.58 385.475 526.307 383.503 522.602C381.531 518.898 380.109 513.963 381.669 509.975C382.004 509.02 382.52 508.153 383.186 507.43C383.851 506.707 384.65 506.144 385.529 505.777C386.409 505.411 387.35 505.25 388.292 505.305C389.233 505.359 390.153 505.628 390.991 506.094C395.983 509.042 397.044 520.06 396.096 525.441C396.096 525.739 395.21 528.659 394.586 530.768C395.172 529.646 395.834 528.497 396.345 527.415C398.405 523.359 400.089 519.479 401.5 516.032C402.298 514.071 402.997 512.286 403.621 510.624C402.723 508.704 399.216 500.876 399.041 496.684C398.866 492.493 399.703 487.329 402.785 484.516C403.489 483.837 404.317 483.327 405.215 483.018C406.113 482.709 407.061 482.609 407.997 482.723C408.933 482.838 409.837 483.166 410.648 483.684C411.46 484.203 412.161 484.901 412.707 485.733C415.864 490.83 412.145 501.146 408.963 505.445C408.701 505.824 403.846 511.11 403.796 511.016L403.734 510.894C403.16 512.53 402.486 514.274 401.799 516.167C400.426 519.641 398.841 523.562 396.807 527.699C394.719 532.186 392.385 536.534 389.818 540.719C386.975 545.431 383.746 549.856 380.171 553.942C380.133 553.99 380.091 554.035 380.046 554.077C381.494 553.212 385.65 550.954 385.987 550.818C390.729 548.912 400.963 548.25 404.445 553.076C405.007 553.896 405.404 554.834 405.608 555.831C405.813 556.827 405.821 557.859 405.633 558.86C405.445 559.86 405.064 560.806 404.515 561.636C403.966 562.466 403.262 563.161 402.448 563.676C399.078 566.001 394.199 565.231 390.654 563.798C386.661 562.175 380.121 555.104 379.597 554.536C375.872 558.598 371.898 562.383 367.703 565.866C365.207 567.921 362.711 569.922 360.215 571.856C361.463 571.153 362.649 570.504 362.823 570.504C367.566 568.597 377.8 567.935 381.282 572.761C381.844 573.581 382.24 574.519 382.445 575.516C382.65 576.512 382.658 577.544 382.47 578.545C382.281 579.545 381.9 580.491 381.351 581.321C380.803 582.151 380.098 582.846 379.285 583.361C375.915 585.687 371.035 584.929 367.491 583.496C363.947 582.063 358.206 576.114 356.721 574.533C355.747 575.263 354.774 576.02 353.788 576.75C349.07 580.265 344.34 583.753 339.797 587.336C338.2 588.593 336.677 589.905 335.13 591.203C336.278 590.567 337.239 590.054 337.389 589.999C342.131 588.093 352.365 587.431 355.847 592.257C356.41 593.076 356.807 594.014 357.013 595.009C357.218 596.005 357.228 597.037 357.04 598.037C356.853 599.037 356.473 599.984 355.926 600.814C355.378 601.645 354.675 602.341 353.863 602.857C350.481 605.182 345.601 604.425 342.056 602.979C338.512 601.532 333.32 596.219 331.561 594.312C330.025 595.664 328.478 597.016 327.055 598.49C326.094 599.477 325.108 600.356 324.197 601.41L321.452 604.439C319.779 606.44 318.044 608.495 316.459 610.469C315.349 611.821 314.3 613.173 313.252 614.525C314.837 613.254 317.97 610.834 318.244 610.658C322.675 607.954 332.659 605.669 336.802 609.86C337.473 610.578 337.998 611.44 338.341 612.392C338.684 613.343 338.838 614.363 338.793 615.383C338.748 616.403 338.506 617.402 338.081 618.314C337.656 619.226 337.059 620.031 336.328 620.676C333.121 623.421 328.241 623.421 324.497 622.637C320.428 621.717 313.264 616.052 312.341 615.349C310.606 617.567 308.934 619.743 307.399 621.839Z" fill="#94CD6A"/>
<path d="M60.3278 548.696C64.7707 548.007 73.2072 542.044 73.2072 542.044C73.2072 542.044 67.9032 537.218 67.5288 536.961C63.2232 533.973 53.2766 530.931 48.8088 534.879C48.0928 535.559 47.517 536.395 47.1187 537.332C46.7203 538.269 46.5084 539.286 46.4966 540.317C46.4848 541.349 46.6735 542.372 47.0503 543.319C47.4272 544.266 47.9838 545.117 48.684 545.816C51.5793 548.899 56.5464 549.291 60.3278 548.696Z" fill="#94CD6A"/>
<path d="M143.047 502.579C143.146 502.579 141.075 495.373 140.9 494.94C138.828 489.87 132.077 481.42 126.373 482.042C125.429 482.178 124.522 482.527 123.711 483.068C122.9 483.609 122.203 484.329 121.666 485.181C121.129 486.033 120.764 486.998 120.594 488.014C120.425 489.029 120.455 490.072 120.682 491.074C121.506 495.359 125.462 498.658 128.919 500.429C132.975 502.498 143.034 502.579 143.047 502.579Z" fill="#94CD6A"/>
<path d="M151.321 622.772C153.28 625.476 155.065 627.896 156.663 630.181H160.706C158.672 627.355 156.301 624.165 153.63 620.717C152.07 618.702 150.373 616.58 148.638 614.43C150.248 612.299 151.744 610.069 153.118 607.751C156.713 609.103 164.076 608.711 165.037 608.657C165.311 611.226 165.549 613.727 165.748 616.093C166.21 621.433 166.497 626.179 166.684 630.181H169.954C169.692 626.125 169.305 621.244 168.706 615.769C168.431 613.159 168.095 610.361 167.733 607.521C168.656 607.21 176.207 604.655 178.965 602.005C181.461 599.585 184.069 595.759 183.795 591.919C183.757 591.014 183.544 590.128 183.169 589.317C182.795 588.507 182.268 587.79 181.622 587.214C180.977 586.638 180.227 586.216 179.42 585.973C178.614 585.731 177.77 585.675 176.943 585.808C171.951 586.782 168.207 595.732 167.608 600.559C167.608 600.843 167.508 603.979 167.508 605.967C167.346 604.804 167.208 603.668 167.034 602.465C166.697 600.099 166.297 597.746 165.886 595.218C165.636 594.001 165.399 592.771 165.149 591.527C164.9 590.283 164.55 589.013 164.251 587.742C163.514 584.821 162.628 581.888 161.667 578.967C163.589 578.643 170.403 577.399 173.199 575.411C175.994 573.424 179.115 570.085 179.439 566.245C179.528 565.343 179.441 564.431 179.184 563.567C178.927 562.704 178.506 561.909 177.947 561.233C177.388 560.558 176.704 560.017 175.94 559.646C175.176 559.275 174.348 559.082 173.511 559.079C168.519 559.228 163.527 567.462 162.279 572.126C162.204 572.424 161.642 575.885 161.368 577.804C160.781 576.047 160.207 574.289 159.558 572.532C157.698 567.475 155.664 562.405 153.667 557.349C153.043 555.794 152.419 554.239 151.845 552.698C152.532 552.59 160.581 551.346 163.801 549.074C166.622 547.101 169.717 543.748 170.041 539.894C170.133 538.994 170.048 538.082 169.792 537.22C169.536 536.357 169.116 535.563 168.557 534.888C167.999 534.213 167.316 533.673 166.553 533.303C165.789 532.934 164.962 532.743 164.126 532.742C159.134 532.891 154.142 541.111 152.894 545.789C152.794 546.141 151.995 551.13 151.858 552.414C150.522 548.993 149.237 545.573 148.114 542.152C146.549 537.533 145.261 532.809 144.257 528.01C144.569 528.01 152.993 526.658 156.276 524.373C159.096 522.399 162.191 519.047 162.516 515.193C162.607 514.293 162.522 513.381 162.266 512.519C162.011 511.656 161.59 510.861 161.032 510.187C160.474 509.512 159.791 508.972 159.027 508.602C158.263 508.233 157.437 508.042 156.6 508.041C151.608 508.19 146.616 516.41 145.368 521.088C145.281 521.399 144.669 525.144 144.42 527.01H144.132C143.114 522.167 142.496 517.235 142.285 512.273C142.211 509.569 142.285 506.865 142.398 504.391C143.995 504.391 151.296 503.931 154.429 502.228C157.561 500.524 160.856 497.631 161.505 493.845C161.685 492.961 161.692 492.046 161.524 491.158C161.357 490.271 161.019 489.432 160.533 488.695C160.047 487.958 159.424 487.34 158.703 486.881C157.983 486.422 157.181 486.133 156.351 486.031C151.359 485.571 145.543 493.156 143.87 497.658C143.783 497.901 143.072 500.497 142.622 502.403C142.697 501.254 142.747 500.078 142.835 498.983C143.147 494.927 143.671 491.128 144.17 487.815C144.457 485.936 144.756 484.233 145.056 482.651C146.591 481.704 152.731 477.783 154.753 474.769C156.775 471.754 158.497 467.481 157.461 463.79C157.246 462.915 156.862 462.099 156.337 461.394C155.811 460.69 155.154 460.113 154.409 459.701C153.664 459.289 152.848 459.052 152.012 459.004C151.177 458.956 150.342 459.099 149.561 459.423C144.906 461.532 142.997 471.145 143.321 475.999C143.321 476.418 144.569 482.921 144.569 482.881L144.781 482.813C144.469 484.327 144.145 485.963 143.833 487.748C143.271 491.06 142.672 494.805 142.273 498.915C141.795 503.353 141.557 507.818 141.562 512.287C141.543 517.271 141.931 522.248 142.722 527.159V527.334C142.036 525.982 139.989 522.034 139.802 521.751C137.144 517.83 129.818 511.921 125.1 513.639C124.314 513.948 123.597 514.434 122.996 515.063C122.394 515.693 121.922 516.452 121.609 517.292C121.296 518.133 121.149 519.035 121.179 519.94C121.208 520.846 121.413 521.734 121.78 522.548C123.228 526.077 127.184 528.091 130.517 528.916C134.261 529.836 142.26 528.064 142.897 527.916C143.839 532.909 145.089 537.828 146.641 542.639C147.515 545.451 148.476 548.25 149.474 551.035C148.838 549.845 148.226 548.764 148.226 548.628C145.568 544.694 138.304 538.786 133.524 540.516C132.738 540.826 132.021 541.312 131.42 541.941C130.818 542.571 130.346 543.33 130.033 544.17C129.72 545.01 129.573 545.912 129.603 546.818C129.632 547.723 129.837 548.612 130.205 549.426C131.652 552.941 135.608 554.969 138.941 555.78C142.273 556.592 149.15 555.253 150.972 554.861C151.359 555.929 151.745 557.011 152.145 558.065C154.054 563.189 155.976 568.273 157.711 573.343C158.335 575.114 158.872 576.899 159.433 578.683C158.872 577.615 158.385 576.723 158.298 576.588C155.639 572.653 148.313 566.745 143.596 568.476C142.81 568.786 142.093 569.271 141.491 569.9C140.89 570.53 140.417 571.289 140.104 572.13C139.791 572.97 139.645 573.872 139.674 574.777C139.704 575.683 139.909 576.571 140.276 577.385C141.724 580.901 145.693 582.929 149.012 583.753C152.332 584.578 158.547 583.348 160.719 582.902C161.23 584.74 161.755 586.579 162.166 588.391C162.428 589.621 162.765 590.797 162.965 592.068C163.165 593.339 163.402 594.542 163.627 595.773C163.964 598.139 164.325 600.572 164.6 602.898C164.812 604.506 164.974 606.048 165.149 607.603C164.55 605.818 163.327 602.357 163.19 602.086C161.241 598.351 158.434 595.226 155.04 593.014C154.846 592.584 154.612 592.176 154.341 591.798C153.849 591.065 153.219 590.453 152.494 590.001C151.769 589.55 150.965 589.268 150.132 589.175C149.3 589.082 148.46 589.179 147.665 589.461C146.87 589.743 146.138 590.203 145.518 590.811C141.874 594.583 143.284 604.331 145.243 608.684C145.368 608.941 146.903 611.591 147.914 613.254L145.73 610.55C144.245 608.779 142.722 607.048 141.075 605.142L138.579 602.519C137.768 601.613 136.807 600.775 135.908 599.896C133.799 597.895 131.565 595.989 129.281 594.11C130.716 592.758 135.733 587.606 137.094 584.267C138.454 580.928 139.315 576.277 137.58 572.91C137.195 572.106 136.659 571.398 136.005 570.832C135.352 570.266 134.596 569.855 133.786 569.626C132.977 569.397 132.132 569.354 131.307 569.5C130.481 569.647 129.693 569.979 128.994 570.477C124.863 573.613 124.9 583.456 126.223 588.053C126.311 588.35 127.609 591.568 128.357 593.325C126.972 592.217 125.599 591.095 124.164 590.013C120.033 586.903 115.765 583.902 111.509 580.874C110.261 579.954 108.926 579.008 107.628 578.075C108.14 577.575 114.242 571.666 115.752 567.921C117.1 564.582 117.974 559.931 116.239 556.565C115.854 555.76 115.317 555.052 114.664 554.486C114.01 553.921 113.255 553.51 112.445 553.28C111.636 553.051 110.791 553.008 109.966 553.155C109.14 553.301 108.352 553.634 107.653 554.131C103.534 557.268 103.559 567.11 104.895 571.707C104.995 572.058 106.867 576.696 107.391 577.845C104.545 575.79 101.737 573.708 99.029 571.531C95.369 568.625 91.888 565.464 88.608 562.067C88.8451 561.837 95.235 555.699 96.7825 551.846C98.1429 548.52 99.004 543.869 97.2692 540.503C96.8856 539.697 96.3497 538.987 95.6963 538.42C95.043 537.853 94.2867 537.442 93.4769 537.212C92.667 536.983 91.8216 536.94 90.9957 537.088C90.1697 537.236 89.3817 537.57 88.6829 538.069C84.5644 541.206 84.5893 551.048 85.9247 555.645C86.0121 555.956 87.4348 559.485 88.1462 561.148C88.0701 561.211 87.991 561.27 87.9091 561.324C84.688 557.806 81.7643 553.982 79.1729 549.899C77.7252 547.668 76.4522 545.451 75.2541 543.261C76.5022 542.247 82.4303 537.555 84.19 534.27C85.9497 530.985 87.1977 526.591 85.8124 523.048C85.5152 522.201 85.0563 521.432 84.4656 520.79C83.8749 520.149 83.1658 519.65 82.3847 519.325C81.6035 519.001 80.768 518.859 79.9328 518.909C79.0976 518.959 78.2815 519.199 77.538 519.614C73.12 522.224 72.1466 532.012 72.9952 536.798C72.9952 537.055 73.7815 539.651 74.3431 541.53C73.8189 540.53 73.2573 539.516 72.7706 538.542C70.9485 534.933 69.4758 531.498 68.2028 528.443C67.479 526.699 66.8674 525.104 66.3058 523.603C67.1045 521.899 70.2246 514.95 70.3868 511.218C70.5491 507.487 69.7878 502.917 67.0546 500.402C66.4297 499.8 65.6944 499.347 64.8969 499.072C64.0994 498.798 63.2575 498.709 62.4261 498.811C61.5947 498.913 60.7925 499.204 60.0719 499.665C59.3512 500.125 58.7282 500.745 58.2436 501.484C55.4355 506.013 58.7428 515.18 61.5259 519.06C61.7755 519.385 66.0812 524.089 66.1311 523.995V523.9C66.6428 525.347 67.2169 526.902 67.8658 528.578C69.1139 531.674 70.4867 535.149 72.2464 538.826C74.1174 542.812 76.2009 546.676 78.4865 550.399C81.0092 554.582 83.8746 558.509 87.0479 562.135L87.1727 562.27C85.9247 561.499 82.1807 559.485 81.8936 559.363C77.6753 557.66 68.6147 557.078 65.4946 561.364C64.9888 562.093 64.6311 562.93 64.445 563.819C64.2589 564.708 64.2486 565.63 64.4148 566.524C64.581 567.418 64.9199 568.263 65.4093 569.005C65.8987 569.747 66.5275 570.368 67.2543 570.828C70.262 572.897 74.5927 572.18 77.7377 570.936C81.2946 569.503 87.0979 563.216 87.5596 562.703C90.8716 566.317 94.4075 569.683 98.1429 572.775C100.302 574.6 102.523 576.358 104.782 578.088C103.647 577.466 102.623 576.912 102.473 576.858C98.2552 575.168 89.1821 574.573 86.0745 578.873C85.5667 579.601 85.2074 580.437 85.0202 581.327C84.833 582.216 84.8222 583.139 84.9885 584.034C85.1548 584.928 85.4945 585.774 85.985 586.516C86.4756 587.258 87.1059 587.878 87.8342 588.337C90.8419 590.405 95.1726 589.689 98.3176 588.445C101.463 587.201 106.567 581.901 107.89 580.495L110.498 582.469C114.692 585.592 118.885 588.688 122.979 591.865C124.401 592.987 125.762 594.15 127.134 595.299C126.124 594.745 125.262 594.285 125.125 594.231C120.907 592.541 111.846 591.946 108.726 596.246C108.219 596.975 107.86 597.812 107.674 598.702C107.488 599.592 107.478 600.515 107.646 601.41C107.813 602.305 108.154 603.15 108.646 603.892C109.138 604.633 109.769 605.253 110.498 605.71C113.494 607.778 117.837 607.062 120.982 605.818C124.127 604.574 128.732 599.788 130.304 598.112C131.677 599.342 133.038 600.572 134.311 601.83C135.172 602.708 136.045 603.492 136.807 604.425L139.303 607.129C140.788 608.9 142.335 610.726 143.746 612.537C144.744 613.754 145.668 614.944 146.591 616.134C145.193 614.998 142.398 612.848 142.148 612.7C138.217 610.334 129.343 608.265 125.662 611.997C125.067 612.634 124.603 613.4 124.3 614.245C123.996 615.089 123.86 615.993 123.9 616.899C123.94 617.804 124.155 618.69 124.532 619.499C124.908 620.308 125.438 621.023 126.086 621.596C128.769 624.124 133.15 624.165 136.432 623.421C140.051 622.596 146.416 617.58 147.24 616.945C148.526 618.973 149.961 620.906 151.321 622.772Z" fill="#94CD6A"/>
<path d="M436.145 67.8031H205.361C200.074 67.8031 195.789 72.4458 195.789 78.1729V568.854C195.789 574.581 200.074 579.224 205.361 579.224H436.145C441.432 579.224 445.718 574.581 445.718 568.854V78.1729C445.718 72.4458 441.432 67.8031 436.145 67.8031Z" fill="#263238" stroke="#263238" stroke-width="1.27804" stroke-linecap="round" stroke-linejoin="round"/>
<path d="M434.622 123.952H206.908V523.062H434.622V123.952Z" fill="white" stroke="#263238" stroke-width="1.27804" stroke-linecap="round" stroke-linejoin="round"/>
<path d="M345.513 96.0193H296.005C295.111 96.0193 294.254 95.6347 293.622 94.9501C292.99 94.2655 292.635 93.337 292.635 92.3689C292.634 91.8884 292.72 91.4122 292.888 90.9678C293.057 90.5233 293.305 90.1193 293.618 89.7789C293.931 89.4385 294.303 89.1684 294.713 88.9841C295.122 88.7998 295.561 88.705 296.005 88.705H345.513C345.957 88.705 346.396 88.7998 346.805 88.9841C347.215 89.1684 347.587 89.4385 347.9 89.7789C348.213 90.1193 348.461 90.5233 348.63 90.9678C348.798 91.4122 348.884 91.8884 348.883 92.3689C348.883 93.337 348.528 94.2655 347.896 94.9501C347.264 95.6347 346.407 96.0193 345.513 96.0193Z" fill="white"/>
<path d="M334.256 545.6C334.256 542.707 333.464 539.879 331.98 537.473C330.497 535.067 328.388 533.192 325.92 532.085C323.453 530.978 320.738 530.688 318.119 531.253C315.499 531.817 313.093 533.21 311.205 535.256C309.316 537.302 308.03 539.908 307.509 542.746C306.988 545.584 307.255 548.525 308.277 551.198C309.299 553.871 311.03 556.156 313.251 557.763C315.471 559.371 318.082 560.229 320.753 560.229C322.527 560.231 324.283 559.853 325.922 559.119C327.561 558.384 329.051 557.307 330.305 555.948C331.559 554.589 332.554 552.976 333.232 551.2C333.91 549.425 334.258 547.522 334.256 545.6Z" fill="white" stroke="#263238" stroke-width="0.900169" stroke-linecap="round" stroke-linejoin="round"/>
<path d="M327.605 538.177H313.914V553.009H327.605V538.177Z" fill="#263238"/>
<path d="M451.521 371.719L450.048 383.887C450.048 383.887 443.958 429.085 448.176 452.447C452.394 475.81 460.357 499.672 460.831 505.256C461.305 510.84 458.485 532.675 461.767 550.454C465.049 568.232 471.14 603.263 471.14 603.263L465.985 616.472C465.985 616.472 455.202 624.083 453.805 626.625C453.599 626.909 453.459 627.242 453.395 627.595C453.331 627.949 453.345 628.315 453.436 628.662C453.528 629.008 453.693 629.327 453.92 629.591C454.147 629.855 454.428 630.057 454.741 630.181H488.437C489.47 627.443 489.951 624.497 489.847 621.542V585.998C489.847 582.442 491.72 522.021 493.592 511.354C495.464 500.686 497.336 419.945 497.336 419.945H499.22C499.22 419.945 508.131 500.173 510.452 508.812C512.774 517.451 522.646 554.51 525.429 562.135C528.212 569.76 531.531 596.151 533.403 602.762C535.196 608.743 536.605 614.851 537.622 621.041C538.102 624.17 538.888 627.233 539.968 630.181H565.365C565.365 630.181 565.84 625.611 563.955 622.569C562.071 619.527 549.902 606.345 548.018 596.665C546.133 586.985 550.838 542.301 550.389 526.591C549.94 510.881 545.696 508.812 545.696 495.103C545.696 481.393 550.389 439.752 550.389 419.945C550.389 400.138 547.893 381.886 543.313 371.462L536.798 364.594H456.138L451.521 371.719Z" fill="white" stroke="#263238" stroke-width="1.27804" stroke-linecap="round" stroke-linejoin="round"/>
<path d="M551.824 605.737V605.804C551.824 605.804 545.26 601.235 542.913 604.79C540.567 608.346 540.567 610.374 540.567 610.374H535.575C536.5 613.879 537.229 617.441 537.759 621.041C538.239 624.17 539.026 627.233 540.105 630.181H565.365C565.365 630.181 565.839 625.611 563.955 622.569C562.632 620.406 556.18 613.186 551.824 605.737Z" fill="#263238" stroke="#909090" stroke-width="1.27804" stroke-linecap="round" stroke-linejoin="round"/>
<path d="M540.056 630.181H565.365C565.457 629.005 565.428 627.821 565.278 626.652H538.92C539.494 628.68 540.056 630.181 540.056 630.181Z" fill="white" stroke="#263238" stroke-width="1.27804" stroke-linecap="round" stroke-linejoin="round"/>
<path d="M489.897 621.541V612.916H480.986C480.986 612.916 481.46 608.86 477.242 605.804C473.024 602.749 468.793 609.86 468.793 609.86H468.569L465.985 616.458C465.985 616.458 455.202 624.07 453.805 626.611C453.599 626.895 453.459 627.228 453.395 627.582C453.331 627.936 453.345 628.301 453.436 628.648C453.528 628.995 453.693 629.313 453.92 629.577C454.147 629.841 454.428 630.043 454.741 630.167H488.437C489.485 627.437 489.982 624.497 489.897 621.541Z" fill="#263238" stroke="#909090" stroke-width="1.27804" stroke-linecap="round" stroke-linejoin="round"/>
<path d="M453.779 626.652C453.58 626.938 453.445 627.27 453.385 627.622C453.326 627.974 453.343 628.336 453.437 628.68C453.53 629.023 453.697 629.338 453.923 629.599C454.15 629.859 454.43 630.059 454.74 630.181H488.436C488.894 629.053 489.221 627.868 489.41 626.652H453.779Z" fill="white" stroke="#263238" stroke-width="1.27804" stroke-linecap="round" stroke-linejoin="round"/>
<path d="M547.893 577.94C548.679 560.648 550.676 537.136 550.389 526.564C549.927 510.813 545.696 508.785 545.696 495.076C545.696 481.366 550.389 439.752 550.389 419.945C550.389 400.138 547.893 381.886 543.313 371.462L536.798 364.594H456.138L451.521 371.719L450.048 383.887C450.048 383.887 443.958 429.085 448.176 452.447C452.394 475.81 460.357 499.672 460.831 505.256C461.305 510.84 458.485 532.675 461.767 550.454C463.215 558.255 465.187 569.382 466.959 579.413C474.512 581.269 482.259 582.028 489.997 581.671C490.397 566.975 492.019 520.574 493.641 511.367C495.514 500.7 497.386 419.959 497.386 419.959H499.22C499.22 419.959 508.131 500.186 510.452 508.825C512.774 517.465 522.646 554.523 525.429 562.148C526.677 565.393 527.925 572.045 529.173 579.129C535.413 580.324 541.825 579.916 547.893 577.94Z" fill="white" stroke="#263238" stroke-width="1.27804" stroke-linecap="round" stroke-linejoin="round"/>
<path d="M504.898 415.375L530.208 393.54" stroke="#263238" stroke-width="1.27804" stroke-linecap="round" stroke-linejoin="round"/>
<path d="M467.857 395.568L480.986 407.25" stroke="#263238" stroke-width="1.27804" stroke-linecap="round" stroke-linejoin="round"/>
<path d="M522.933 149.491C522.933 149.491 512.162 142.596 512.412 146.314C512.661 150.032 517.304 152.668 517.304 152.668C517.304 152.668 501.879 150.289 499.432 151.316C496.986 152.344 501.155 153.709 501.155 153.709C501.155 153.709 482.06 169.609 475.458 180.479C468.856 191.349 462.978 207.262 469.829 219.457C476.681 231.652 486.715 241.197 503.601 246.497C520.487 251.797 537.123 246.227 548.38 241.197C559.637 236.168 570.844 221.836 568.935 203.814C567.025 185.792 552.249 166.986 541.229 154.277C530.209 141.568 523.369 143.461 523.369 145.259C523.34 146.681 523.194 148.097 522.933 149.491Z" fill="#263238" stroke="#263238" stroke-width="1.27804" stroke-linecap="round" stroke-linejoin="round"/>
<path d="M496.524 224.797L494.028 245.199C494.028 245.199 476.157 251.553 469.555 254.474C462.953 257.394 460.007 261.099 458.784 264.276C457.561 267.453 440.064 311.596 439.315 315.787C438.566 319.978 439.802 321.884 445.181 324.534C450.56 327.184 465.523 317.382 465.523 317.382L467.483 324.805C467.483 324.805 457.686 342.827 455.976 348.654C454.266 354.481 451.571 371.719 451.571 371.719C451.571 371.719 470.166 381.792 499.532 381.007C528.898 380.223 543.338 371.462 543.338 371.462C543.338 371.462 540.155 354.224 536.736 344.152C533.316 334.079 530.371 330.105 530.371 326.13C530.371 322.155 541.141 301.469 541.141 301.469L563.88 313.083C563.88 313.083 558.514 292.992 557.041 279.472C555.568 265.952 553.035 263.748 548.13 258.976C543.225 254.203 521.709 247.322 520.973 246.808C520.237 246.294 521.947 224.013 521.947 224.013C521.947 224.013 503.376 229.313 496.524 224.797Z" fill="white" stroke="#263238" stroke-width="1.27804" stroke-linecap="round" stroke-linejoin="round"/>
<path d="M510.727 238.764C514.146 237.412 518.215 233.91 521.41 230.773C521.672 226.974 521.897 224.013 521.897 224.013C521.897 224.013 503.376 229.34 496.525 224.824L494.84 238.344C498.634 242.022 504.824 241.17 510.727 238.764Z" fill="#263238" stroke="#263238" stroke-width="1.27804" stroke-linecap="round" stroke-linejoin="round"/>
<path d="M536.661 344.152C533.229 334.079 530.296 330.105 530.296 326.13C530.296 322.155 541.066 301.469 541.066 301.469L563.805 313.083C563.805 313.083 558.439 292.992 556.966 279.472C556.18 272.158 555.057 268.169 553.434 265.276C518.565 270.076 479.801 261.464 464.338 257.394C461.883 259.037 459.933 261.432 458.734 264.276C457.486 267.466 440.014 311.596 439.265 315.787C438.516 319.978 439.752 321.884 445.131 324.534C450.51 327.184 465.524 317.382 465.524 317.382L467.483 324.805C467.483 324.805 457.686 342.827 455.976 348.654C454.266 354.481 451.571 371.719 451.571 371.719C451.571 371.719 470.166 381.792 499.532 381.007C528.898 380.223 543.338 371.462 543.338 371.462C543.338 371.462 540.105 354.224 536.661 344.152Z" fill="#94CD6A" stroke="#263238" stroke-width="1.27804" stroke-linecap="round" stroke-linejoin="round"/>
<path d="M468.619 310.081C468.619 310.081 463.752 299.036 465.075 293.276C466.397 287.517 467.296 286.07 467.296 286.07" stroke="#263238" stroke-width="1.27804" stroke-linecap="round" stroke-linejoin="round"/>
<path d="M556.991 279.472C556.205 272.158 555.082 268.169 553.46 265.276C518.59 270.076 479.826 261.464 464.363 257.394C461.908 259.037 459.958 261.432 458.76 264.276C458.335 265.398 455.877 271.604 452.856 279.337C466.585 283.393 519.164 297.494 558.776 290.883C558.027 286.949 557.378 282.987 556.991 279.472Z" fill="#94CD6A" stroke="#263238" stroke-width="1.27804" stroke-linecap="round" stroke-linejoin="round"/>
<path d="M501.304 175.503L532.504 197.284L531.643 206.086C531.643 206.086 537.209 200.069 538.07 206.559C538.931 213.048 536.822 216.293 532.928 218.146C529.034 219.998 526.938 219.498 526.938 219.498C526.938 219.498 517.528 230.611 510.714 233.396C503.9 236.181 496.611 236.911 493.242 230.881C489.872 224.851 485.08 213.927 486.365 207.438C487.651 200.948 499.22 175.503 499.22 175.503H501.304Z" fill="white" stroke="#263238" stroke-width="1.27804" stroke-linecap="round" stroke-linejoin="round"/>
<path d="M504.375 196.094C504.368 197.732 503.849 199.32 502.902 200.597C501.442 202.192 498.01 204.315 498.01 205.896C498.01 207.478 501.192 210.669 504.125 210.412" stroke="#263238" stroke-width="1.27804" stroke-linecap="round" stroke-linejoin="round"/>
<path d="M498.983 213.86C500.436 214.933 502.164 215.484 503.922 215.436C505.68 215.387 507.38 214.741 508.78 213.589" stroke="#263238" stroke-width="1.27804" stroke-linecap="round" stroke-linejoin="round"/>
<path d="M510.739 200.069C510.739 200.069 516.118 197.947 519.051 202.449" stroke="#263238" stroke-width="1.27804" stroke-linecap="round" stroke-linejoin="round"/>
<path d="M494.091 197.419C494.091 197.419 498.496 195.297 500.705 197.947" stroke="#263238" stroke-width="1.27804" stroke-linecap="round" stroke-linejoin="round"/>
<path d="M496.786 188.402C497.592 187.332 498.68 186.556 499.905 186.176C501.129 185.797 502.432 185.833 503.638 186.279" stroke="#263238" stroke-width="1.27804" stroke-linecap="round" stroke-linejoin="round"/>
<path d="M513.186 188.929C513.186 188.929 520.037 189.199 521.497 196.094" stroke="#263238" stroke-width="1.27804" stroke-linecap="round" stroke-linejoin="round"/>
<path d="M450.547 307.053C450.547 307.053 442.959 310.23 440.563 315.273C438.167 320.316 438.604 331.97 448.139 334.891C457.674 337.811 528.162 322.425 528.162 322.425C529.889 325.282 531.768 328.026 533.79 330.645C535.513 332.498 539.918 336.216 540.155 337.797C540.392 339.379 540.892 349.465 542.851 349.965C544.81 350.466 544.099 345.193 544.099 345.193C544.099 345.193 547.282 340.163 547.282 337.77C547.282 335.377 547.768 327.698 547.282 325.846C546.795 323.994 535.288 313.123 532.842 312.326C530.396 311.528 467.745 309.622 461.879 308.608C456.014 307.594 452.494 306.769 450.547 307.053Z" fill="white" stroke="#263238" stroke-width="1.27804" stroke-linecap="round" stroke-linejoin="round"/>
<path d="M512.904 234.095L520.398 239.49C521.724 240.445 523.513 240.055 524.395 238.618L539.503 213.993C540.384 212.557 540.024 210.618 538.698 209.663L531.204 204.268C529.878 203.313 528.089 203.703 527.207 205.14L512.099 229.765C511.218 231.201 511.578 233.14 512.904 234.095Z" fill="#94CD6A" stroke="#263238" stroke-width="1.27804" stroke-miterlimit="10"/>
<path d="M535.413 234.518C535.413 234.518 536.96 230.219 538.496 227.123C540.031 224.027 540.043 222.58 538.945 222.58C537.771 222.809 536.685 223.407 535.822 224.299C534.959 225.19 534.357 226.337 534.09 227.596C533.557 230.181 533.409 232.842 533.653 235.478L535.413 234.518Z" fill="white" stroke="#263238" stroke-width="1.27804" stroke-miterlimit="10"/>
<path d="M522.171 250.999C522.171 250.999 534.739 237.384 535.175 236.195C535.612 235.005 535.175 219.497 534.988 215.117C534.992 214.791 534.886 214.474 534.691 214.226C534.496 213.978 534.225 213.814 533.927 213.765C533.75 213.723 533.567 213.724 533.39 213.767C533.213 213.811 533.047 213.895 532.903 214.014C532.76 214.134 532.642 214.286 532.558 214.46C532.474 214.634 532.426 214.826 532.417 215.022L531.431 227.582L528.549 211.764C528.501 211.444 528.348 211.153 528.119 210.945C527.89 210.737 527.6 210.624 527.301 210.628C527.127 210.628 526.955 210.666 526.796 210.742C526.636 210.817 526.493 210.928 526.376 211.066C526.258 211.205 526.169 211.369 526.113 211.547C526.058 211.725 526.037 211.914 526.053 212.102L526.864 229.678L523.245 214.63C523.2 214.443 523.121 214.268 523.013 214.114C522.905 213.96 522.77 213.831 522.615 213.734C522.461 213.637 522.29 213.575 522.114 213.55C521.937 213.525 521.757 213.538 521.585 213.589C521.275 213.68 521.005 213.889 520.825 214.176C520.644 214.464 520.564 214.812 520.599 215.157L522.234 231.381L519.151 234.248V228.515L515.407 221.755C515.272 221.512 515.057 221.332 514.805 221.252C514.553 221.172 514.282 221.197 514.047 221.323C513.805 221.451 513.618 221.677 513.527 221.952C513.436 222.228 513.448 222.53 513.56 222.796L516.056 228.732C516.056 228.732 511.201 250.228 510.977 250.945C510.752 251.661 511.863 255.488 512.524 256.921C513.186 258.354 542.726 326.17 544.486 328.793C546.245 331.416 558.151 335.485 563.443 329.266C568.734 323.047 566.975 316.855 564.104 309.689C561.234 302.524 522.171 250.999 522.171 250.999Z" fill="white" stroke="#263238" stroke-width="1.27804" stroke-miterlimit="10"/>
<path d="M317.009 258.381C345.958 258.381 369.426 232.958 369.426 201.597C369.426 170.236 345.958 144.813 317.009 144.813C288.06 144.813 264.592 170.236 264.592 201.597C264.592 232.958 288.06 258.381 317.009 258.381Z" fill="#244188"/>
<path d="M349.008 175.896H286.881L317.508 207.884L349.008 175.896Z" fill="white"/>
<path d="M329.951 200.799L351.579 221.512V178.843L329.951 200.799Z" fill="white"/>
<path d="M305.302 200.759L283.387 177.883V220.538L305.302 200.759Z" fill="white"/>
<path d="M327.205 203.584L317.47 213.467L308.01 203.598L285.209 224.175H348.708L327.205 203.584Z" fill="white"/>
<path d="M317.009 382.765C345.958 382.765 369.426 357.342 369.426 325.981C369.426 294.62 345.958 269.197 317.009 269.197C288.06 269.197 264.592 294.62 264.592 325.981C264.592 357.342 288.06 382.765 317.009 382.765Z" fill="#244188"/>
<path d="M310.007 308.067C310.156 308.38 310.363 308.656 310.616 308.877C310.869 309.098 311.162 309.259 311.476 309.35C311.79 309.44 312.119 309.458 312.439 309.403C312.76 309.347 313.067 309.219 313.339 309.027C315.049 308.013 316.759 306.999 318.331 305.823C318.894 305.243 319.358 304.561 319.704 303.808C319.392 303.011 319.23 302.456 318.98 301.97C318.306 300.618 317.583 299.266 316.871 297.914L309.645 284.394C309.502 284 309.276 283.647 308.984 283.366C308.692 283.084 308.344 282.88 307.966 282.771C307.589 282.662 307.193 282.65 306.81 282.737C306.428 282.824 306.069 283.007 305.764 283.271C304.217 284.218 302.681 285.164 301.171 286.165C300.879 286.316 300.62 286.533 300.411 286.801C300.202 287.07 300.049 287.383 299.96 287.721C299.871 288.058 299.85 288.412 299.898 288.759C299.945 289.106 300.06 289.439 300.235 289.734C303.48 295.872 306.737 301.983 310.007 308.067Z" fill="white"/>
<path d="M345.987 352.561C342.826 346.612 339.656 340.673 336.478 334.742C336.342 334.382 336.133 334.06 335.865 333.801C335.598 333.542 335.279 333.352 334.934 333.246C334.588 333.141 334.225 333.122 333.872 333.191C333.519 333.261 333.185 333.416 332.896 333.647C331.307 334.611 329.734 335.598 328.179 336.608C327.885 336.757 327.623 336.971 327.409 337.236C327.195 337.501 327.035 337.811 326.938 338.146C326.84 338.482 326.808 338.835 326.844 339.185C326.879 339.534 326.981 339.872 327.143 340.177L337.476 359.281C337.849 359.63 338.316 359.841 338.808 359.883C339.3 359.924 339.791 359.794 340.209 359.511C341.882 358.524 343.566 357.537 345.201 356.387C345.78 355.818 346.277 355.157 346.674 354.427C346.49 353.787 346.26 353.163 345.987 352.561Z" fill="white"/>
<path d="M324.596 341.407C323.578 341.802 322.493 341.953 321.416 341.851C320.339 341.748 319.295 341.394 318.356 340.812C317.295 340.224 316.298 339.508 315.386 338.676C310.771 334.274 307.546 328.416 306.163 321.925C305.252 317.869 305.002 313.813 307.873 310.568L297.24 290.829C296.404 291.41 295.593 291.965 294.831 292.546C293.292 293.581 292.044 295.054 291.224 296.803C290.403 298.553 290.041 300.513 290.176 302.47C290.367 306.486 290.906 310.474 291.786 314.381C295.31 327.915 301.582 340.424 310.144 350.993C313.323 355.199 317.118 358.812 321.376 361.687C323.474 363.105 325.92 363.798 328.389 363.674C330.859 363.551 333.235 362.618 335.204 360.998L324.596 341.407Z" fill="white"/>
<path d="M317.009 507.149C345.958 507.149 369.426 481.726 369.426 450.365C369.426 419.004 345.958 393.581 317.009 393.581C288.06 393.581 264.592 419.004 264.592 450.365C264.592 481.726 288.06 507.149 317.009 507.149Z" fill="#244188"/>
<path d="M309.283 461.005H297.639V467.4C297.638 469.392 298.334 471.311 299.587 472.768C300.84 474.226 302.557 475.115 304.391 475.255L309.283 461.005Z" fill="white"/>
<path d="M341.744 439.103H336.752V450.23C336.752 453.098 335.7 455.849 333.828 457.878C331.956 459.906 329.416 461.046 326.768 461.046H326.593L308.772 475.282H328.116L323.336 489.208L340.721 475.282H341.769C343.7 475.282 345.552 474.452 346.918 472.975C348.285 471.497 349.054 469.492 349.057 467.4V446.985C349.056 445.947 348.865 444.919 348.497 443.961C348.128 443.003 347.589 442.133 346.909 441.401C346.23 440.669 345.424 440.089 344.538 439.695C343.652 439.3 342.702 439.099 341.744 439.103Z" fill="white"/>
<path d="M326.755 421.973H289.927C287.997 421.973 286.146 422.803 284.782 424.282C283.417 425.76 282.651 427.765 282.651 429.855V450.27C282.651 452.362 283.417 454.368 284.781 455.849C286.145 457.329 287.996 458.162 289.927 458.166H313.127L308.347 471.997L325.744 458.125H326.793C328.725 458.122 330.577 457.289 331.943 455.809C333.309 454.329 334.078 452.323 334.081 450.23V429.814C334.068 427.723 333.289 425.722 331.915 424.252C330.542 422.782 328.686 421.962 326.755 421.973Z" fill="white"/>
<path d="M298.251 442.334C299.691 442.334 300.859 441.069 300.859 439.508C300.859 437.948 299.691 436.683 298.251 436.683C296.81 436.683 295.643 437.948 295.643 439.508C295.643 441.069 296.81 442.334 298.251 442.334Z" fill="#244188"/>
<path d="M311.48 439.549C311.48 440.108 311.327 440.654 311.04 441.119C310.754 441.584 310.346 441.946 309.87 442.16C309.393 442.374 308.869 442.429 308.363 442.32C307.857 442.211 307.392 441.942 307.027 441.547C306.662 441.152 306.414 440.648 306.313 440.1C306.213 439.552 306.264 438.984 306.462 438.468C306.659 437.951 306.993 437.51 307.422 437.2C307.851 436.889 308.356 436.723 308.871 436.723C309.562 436.727 310.224 437.026 310.712 437.555C311.201 438.084 311.477 438.801 311.48 439.549Z" fill="#244188"/>
<path d="M322.088 439.549C322.088 440.108 321.935 440.655 321.648 441.12C321.361 441.585 320.953 441.947 320.475 442.161C319.998 442.374 319.473 442.429 318.966 442.319C318.46 442.209 317.995 441.939 317.631 441.542C317.267 441.146 317.019 440.641 316.92 440.092C316.821 439.543 316.874 438.974 317.074 438.458C317.273 437.942 317.609 437.502 318.04 437.193C318.47 436.884 318.976 436.721 319.492 436.723C320.182 436.727 320.842 437.026 321.329 437.556C321.815 438.085 322.088 438.802 322.088 439.549Z" fill="#244188"/>
<path d="M191.171 284.894L192.12 283.542L207.583 260.72C207.583 260.72 209.679 247.105 210.728 243.698C211.776 240.291 213.873 233.112 214.571 230.462C215.27 227.812 215.969 224.784 217.367 225.919C218.765 227.055 218.765 231.598 218.066 233.869C217.45 235.943 217.33 238.153 217.716 240.291C218.066 241.427 236.574 224.405 238.309 225.919C240.044 227.434 237.622 234.626 234.128 239.534C230.633 244.442 216.319 262.234 216.319 262.234C216.319 262.234 199.907 309.892 195.015 317.463C190.123 325.035 189.087 321.627 184.195 317.463C179.302 313.299 172.962 303.849 172.962 303.849L191.171 284.894Z" fill="white" stroke="#263238" stroke-width="1.27804" stroke-linecap="round" stroke-linejoin="round"/>
<path d="M216.668 253.122C216.668 253.122 218.415 246.362 220.162 244.793C221.91 243.225 228.536 238.75 228.536 238.75L233.079 223.607C233.079 223.607 234.477 222.472 234.127 225.879C233.778 229.286 233.079 236.857 232.031 240.251C230.983 243.644 226.44 249.715 226.44 249.715" fill="white"/>
<path d="M216.668 253.122C216.668 253.122 218.415 246.362 220.162 244.793C221.91 243.225 228.536 238.75 228.536 238.75L233.079 223.607C233.079 223.607 234.477 222.472 234.127 225.879C233.778 229.286 233.079 236.857 232.031 240.251C230.983 243.644 226.44 249.715 226.44 249.715" stroke="#263238" stroke-width="1.27804" stroke-linecap="round" stroke-linejoin="round"/>
<path d="M166.036 227.015L192.918 284.137L172.326 306.837L166.385 285.272L166.036 227.015Z" fill="#94CD6A" stroke="#263238" stroke-width="1.27804" stroke-linecap="round" stroke-linejoin="round"/>
<path d="M169.854 297.886L172.326 306.837L192.918 284.137L189.211 276.268L169.854 297.886Z" fill="#263238" stroke="#263238" stroke-width="1.27804" stroke-miterlimit="10"/>
<path d="M101.575 603.141L99.0791 613.862C99.0791 613.862 84.4401 622.65 83.3169 623.867C82.1937 625.084 82.6305 630.208 82.6305 630.208H124.538C124.751 626.279 124.449 622.337 123.64 618.5C123.006 613.745 122.619 608.956 122.479 604.155L101.575 603.141Z" fill="#263238" stroke="#263238" stroke-width="1.27804" stroke-linecap="round" stroke-linejoin="round"/>
<path d="M82.6431 630.181H124.538C124.587 629.204 124.587 628.225 124.538 627.247H82.5682C82.5307 628.829 82.6431 630.181 82.6431 630.181Z" fill="white" stroke="#263238" stroke-width="1.27804" stroke-linecap="round" stroke-linejoin="round"/>
<path d="M84.2278 623.421C87.0983 620.766 90.6187 619.07 94.3615 618.54C101.113 617.31 107.203 620.001 108.551 621.461C109.899 622.921 110.798 627.072 110.798 627.072L82.568 627.315C82.3578 626.954 82.2343 626.543 82.2086 626.117C82.183 625.692 82.2559 625.266 82.4209 624.879C82.5859 624.492 82.8377 624.156 83.1533 623.901C83.4688 623.647 83.8382 623.482 84.2278 623.421Z" fill="white" stroke="#263238" stroke-width="1.27804" stroke-linecap="round" stroke-linejoin="round"/>
<path d="M120.258 611.753C120.258 614.39 119.409 616.512 118.349 616.512C117.288 616.512 116.427 614.39 116.427 611.753C116.427 609.117 117.288 606.994 118.349 606.994C119.409 606.994 120.258 609.131 120.258 611.753Z" fill="white" stroke="#263238" stroke-width="1.27804" stroke-linecap="round" stroke-linejoin="round"/>
<path d="M206.159 603.141L208.655 613.862C208.655 613.862 223.294 622.65 224.417 623.867C225.54 625.084 225.091 630.208 225.091 630.208H183.196C182.975 626.279 183.278 622.335 184.094 618.5C184.719 613.744 185.103 608.956 185.243 604.155L206.159 603.141Z" fill="#263238" stroke="#263238" stroke-width="1.27804" stroke-linecap="round" stroke-linejoin="round"/>
<path d="M225.079 630.181H183.196C183.126 629.205 183.101 628.226 183.121 627.247H225.166C225.186 628.226 225.157 629.206 225.079 630.181Z" fill="white" stroke="#263238" stroke-width="1.27804" stroke-linecap="round" stroke-linejoin="round"/>
<path d="M223.507 623.421C220.634 620.77 217.115 619.075 213.373 618.54C206.621 617.31 200.531 620.001 199.183 621.461C197.835 622.921 196.924 627.072 196.924 627.072L225.167 627.315C225.377 626.954 225.5 626.543 225.526 626.117C225.552 625.692 225.479 625.266 225.314 624.879C225.149 624.492 224.897 624.156 224.581 623.901C224.266 623.647 223.896 623.482 223.507 623.421Z" fill="white" stroke="#263238" stroke-width="1.27804" stroke-linecap="round" stroke-linejoin="round"/>
<path d="M187.464 611.753C187.464 614.39 188.325 616.512 189.386 616.512C190.447 616.512 191.296 614.39 191.296 611.753C191.296 609.117 190.447 606.994 189.386 606.994C188.325 606.994 187.464 609.131 187.464 611.753Z" fill="white" stroke="#263238" stroke-width="1.27804" stroke-linecap="round" stroke-linejoin="round"/>
<path d="M101.101 375.545L99.7158 399.205L101.575 603.114L122.48 604.128L143.397 415.821L146.192 414.807L185.243 604.128L206.16 603.114L196.849 476.242L182.797 367.352L101.101 375.545Z" fill="white" stroke="#263238" stroke-width="1.27804" stroke-linecap="round" stroke-linejoin="round"/>
<path d="M145.231 381.967V399.232L149.574 391.391L150.31 379.615" stroke="#808080" stroke-width="1.27804" stroke-linecap="round" stroke-linejoin="round"/>
<path d="M115.403 224.365C115.403 224.365 68.2654 246.686 67.5665 248.917C66.8676 251.148 54.3 307.553 56.3343 312.839C57.584 315.804 59.8214 318.148 62.5985 319.402C65.3756 320.655 68.4874 320.726 71.3106 319.599C77.9376 316.895 84.2276 289.342 84.2276 289.342C84.2276 289.342 98.8919 337.757 98.8919 342.678C98.8919 347.599 100.29 377.83 100.29 377.83C100.29 377.83 127.172 381.981 149.524 376.316C171.876 370.651 182.697 367.23 182.697 367.23L172.226 298.008C172.226 298.008 166.635 229.543 165.986 226.893C165.337 224.243 125.475 223.486 122.305 223.864C119.135 224.243 115.403 224.365 115.403 224.365Z" fill="#94CD6A" stroke="#263238" stroke-width="1.27804" stroke-linecap="round" stroke-linejoin="round"/>
<path d="M79.6471 305.701C78.0454 300.12 75.1844 295.059 71.3229 290.978C67.4292 287.233 62.25 289.355 58.7057 291.681C56.8337 302.186 55.6231 311.014 56.3969 312.948C57.6465 315.912 59.8839 318.256 62.661 319.51C65.438 320.763 68.5497 320.834 71.3729 319.708C74.4055 318.491 77.3882 312.191 79.6471 305.701Z" fill="#263238" stroke="#263238" stroke-width="1.27804" stroke-miterlimit="10"/>
<path d="M93.4508 320.573L172.962 302.47L172.326 298.197C172.326 298.197 172.201 296.845 172.014 294.398L91.2168 312.785C91.9656 315.3 92.7144 317.869 93.4508 320.573Z" fill="#263238"/>
<path d="M182.797 367.352L174.947 315.517L96.8828 333.093C97.8286 336.27 98.534 339.526 98.992 342.827C98.992 347.735 100.39 377.979 100.39 377.979C100.39 377.979 127.272 382.13 149.624 376.465C171.976 370.8 182.797 367.352 182.797 367.352Z" fill="#263238" stroke="#263238" stroke-width="1.27804" stroke-miterlimit="10"/>
<path d="M122.392 223.986C119.247 224.365 115.403 224.365 115.403 224.365C115.403 224.365 106.567 228.556 96.4834 233.491L137.293 279.134C137.293 279.134 146.029 233.612 145.255 229.692C144.888 227.855 144.404 226.048 143.808 224.284C133.786 223.891 123.889 223.81 122.392 223.986Z" fill="#263238" stroke="#263238" stroke-width="1.27804" stroke-miterlimit="10"/>
<path d="M135.658 211.129C135.658 211.129 137.755 230.8 138.803 234.586C139.851 238.371 132.862 264.844 132.862 264.844C132.862 264.844 112.607 242.522 110.161 236.1C107.715 229.678 102.137 207.343 102.137 207.343C102.137 207.343 119.946 217.186 135.658 211.129Z" fill="white" stroke="#263238" stroke-width="1.27804" stroke-linecap="round" stroke-linejoin="round"/>
<path d="M102.137 207.343C102.137 207.343 103.385 212.44 105.007 218.456C105.856 218.97 106.879 219.552 108.127 220.228C114.632 223.959 122.04 225.427 129.343 224.432C130.868 224.161 132.313 223.506 133.561 222.52C134.81 221.534 135.827 220.244 136.532 218.754C136.032 214.522 135.67 211.129 135.67 211.129C119.946 217.186 102.137 207.343 102.137 207.343Z" fill="#263238" stroke="#263238" stroke-width="1.27804" stroke-linecap="round" stroke-linejoin="round"/>
<path d="M126.686 161.483C126.686 161.483 131.977 172.962 135.522 177.937C139.066 182.912 144.707 194.026 142.236 200.529C139.765 207.032 138.143 218.105 130.218 219.295C122.913 220.278 115.507 218.806 109.001 215.076C102.636 211.629 101.937 210.48 101.937 210.48C101.937 210.48 96.6333 210.48 93.4508 207.776C90.2684 205.072 83.916 196.676 85.6757 189.402C87.4354 182.128 91.6911 181.358 91.6911 181.358C91.6911 181.358 82.8551 177.531 88.5087 167.959C94.1622 158.387 106.168 154.953 111.834 154.953C117.5 154.953 126.686 161.483 126.686 161.483Z" fill="white" stroke="#263238" stroke-width="1.27804" stroke-linecap="round" stroke-linejoin="round"/>
<path d="M124.913 174.111C125.725 175.501 126.812 176.679 128.095 177.558C130.591 179.478 134.098 178.329 133.087 181.777C132.077 185.224 129.556 186.36 127.434 185.981" stroke="#263238" stroke-width="1.27804" stroke-linecap="round" stroke-linejoin="round"/>
<path d="M133.4 190.2C133.4 190.2 126.685 194.404 122.093 194.026C119.698 193.968 117.369 193.17 115.378 191.727" stroke="#263238" stroke-width="1.27804" stroke-linecap="round" stroke-linejoin="round"/>
<path d="M118.573 194.026C118.573 194.026 121.069 203.598 124.576 200.529C126.797 198.423 128.293 195.563 128.819 192.417C125.56 193.783 122.057 194.333 118.573 194.026Z" fill="#263238" stroke="#263238" stroke-width="1.27804" stroke-linecap="round" stroke-linejoin="round"/>
<path d="M118.211 177.437C118.985 178.789 119.01 180.262 118.211 180.776C117.413 181.29 116.215 180.641 115.428 179.316C114.642 177.991 114.63 176.49 115.428 175.963C116.227 175.436 117.425 176.098 118.211 177.437Z" fill="#263238"/>
<path d="M129.494 171.65C130.267 173.002 130.292 174.489 129.494 175.003C128.695 175.517 127.497 174.868 126.711 173.53C125.924 172.191 125.912 170.704 126.711 170.19C127.509 169.676 128.707 170.325 129.494 171.65Z" fill="#263238"/>
<path d="M110.798 176.288C110.798 176.288 111.822 171.177 115.516 170.501" stroke="#263238" stroke-width="1.27804" stroke-linecap="round" stroke-linejoin="round"/>
<path d="M122.904 168.284C122.904 168.284 124.963 164.066 128.245 165.837" stroke="#263238" stroke-width="1.27804" stroke-linecap="round" stroke-linejoin="round"/>
<path d="M92.7516 173.354C92.7516 173.354 115.728 173.354 117.5 169.135C119.272 164.917 113.956 161.862 113.956 161.862C113.956 161.862 133.749 162.632 135.871 156.116C137.992 149.599 128.807 146.936 125.974 146.936H121.731C121.731 146.936 120.67 137.363 110.424 139.662C100.177 141.96 80.3837 156.508 77.975 164.931C75.5663 173.354 69.8504 176.031 74.0937 185.981C78.337 195.932 89.9935 203.977 89.9935 203.977C89.9935 203.977 88.2213 196.703 91.7657 196.324C95.3101 195.946 101.301 198.609 102.361 198.609C103.422 198.609 106.605 195.554 104.857 193.634C103.11 191.714 101.326 190.578 100.976 189.429C100.627 188.28 102.736 184.454 101.326 181.006C99.9153 177.558 92.7516 173.354 92.7516 173.354Z" fill="#263238" stroke="#263238" stroke-width="1.27804" stroke-linecap="round" stroke-linejoin="round"/>
<path d="M93.0765 187.27L84.8863 193.167C83.5603 194.122 83.1998 196.06 84.0812 197.497L100.219 223.799C101.1 225.236 102.89 225.626 104.216 224.672L112.406 218.774C113.732 217.82 114.092 215.881 113.211 214.445L97.0733 188.142C96.192 186.705 94.4026 186.315 93.0765 187.27Z" fill="#94CD6A" stroke="#263238" stroke-width="1.27804" stroke-miterlimit="10"/>
<path d="M88.5212 219.322C88.5212 219.322 86.8863 214.792 85.2639 211.507C83.6415 208.222 83.629 206.721 84.7896 206.721C86.0194 206.971 87.155 207.604 88.0573 208.543C88.9595 209.482 89.5892 210.686 89.869 212.007C90.4252 214.74 90.581 217.55 90.3308 220.336L88.5212 219.322Z" fill="white" stroke="#263238" stroke-width="1.27804" stroke-miterlimit="10"/>
<path d="M102.486 236.749C102.486 236.749 89.2199 222.377 88.7581 221.12C88.2964 219.862 88.8205 203.544 88.9578 198.852C88.9826 198.525 89.1059 198.215 89.3088 197.971C89.5117 197.727 89.783 197.561 90.081 197.5C90.2691 197.466 90.4617 197.474 90.6466 197.525C90.8315 197.576 91.0046 197.668 91.1549 197.795C91.3052 197.922 91.4294 198.082 91.5195 198.264C91.6097 198.446 91.6638 198.646 91.6785 198.852L92.7268 212.102L95.7595 195.391C95.8207 195.054 95.9889 194.75 96.2351 194.533C96.4813 194.315 96.7899 194.198 97.1074 194.201C97.292 194.203 97.4744 194.245 97.6437 194.325C97.813 194.405 97.9657 194.52 98.0927 194.666C98.2197 194.811 98.3184 194.982 98.3828 195.17C98.4473 195.357 98.4761 195.556 98.4677 195.756L97.6066 214.373L101.438 198.487C101.484 198.29 101.567 198.104 101.68 197.942C101.794 197.779 101.936 197.643 102.099 197.541C102.261 197.439 102.441 197.373 102.628 197.348C102.815 197.322 103.004 197.337 103.185 197.392C103.486 197.484 103.751 197.681 103.938 197.952C104.125 198.224 104.225 198.554 104.221 198.893L102.486 215.996L105.744 219.024V212.967L109.65 205.856C109.789 205.594 110.016 205.401 110.283 205.315C110.55 205.23 110.837 205.259 111.085 205.396C111.337 205.536 111.531 205.774 111.626 206.063C111.721 206.352 111.711 206.67 111.597 206.951L109.001 213.224C109.001 213.224 114.13 235.911 114.355 236.668C114.58 237.425 113.432 241.467 112.733 242.982C112.034 244.496 80.8332 316.111 79.036 318.883C77.2389 321.655 64.6089 325.94 59.0677 319.383C53.5265 312.826 55.3236 306.269 58.3688 298.711C61.414 291.153 102.486 236.749 102.486 236.749Z" fill="white" stroke="#263238" stroke-width="1.27804" stroke-miterlimit="10"/>
<path d="M107.142 390.147L124.813 401.22" stroke="#808080" stroke-width="1.27804" stroke-linecap="round" stroke-linejoin="round"/>
<path d="M178.716 382.589L168.033 397.691" stroke="#808080" stroke-width="1.27804" stroke-linecap="round" stroke-linejoin="round"/>
<path d="M37.4517 630.181H595.318" stroke="#263238" stroke-width="1.27804" stroke-linecap="round" stroke-linejoin="round"/>
</svg>
