<svg xmlns="http://www.w3.org/2000/svg" xmlns:xlink="http://www.w3.org/1999/xlink" width="1584" zoomAndPan="magnify" viewBox="0 0 1188 296.999993" height="396" preserveAspectRatio="xMidYMid meet" version="1.0"><defs><clipPath id="7d73015bda"><path d="M 680.679688 0 L 801.574219 0 L 801.574219 117.164062 L 680.679688 117.164062 Z M 680.679688 0 " clip-rule="nonzero"/></clipPath><clipPath id="94176dd33b"><path d="M 741.128906 -3.730469 C 707.742188 -3.730469 680.679688 23.332031 680.679688 56.71875 C 680.679688 90.101562 707.742188 117.164062 741.128906 117.164062 C 774.511719 117.164062 801.574219 90.101562 801.574219 56.71875 C 801.574219 23.332031 774.511719 -3.730469 741.128906 -3.730469 " clip-rule="nonzero"/></clipPath><clipPath id="8accaa499d"><path d="M 741.128906 0 L 1188 0 L 1188 117.164062 L 741.128906 117.164062 Z M 741.128906 0 " clip-rule="nonzero"/></clipPath><clipPath id="86ffad74c2"><path d="M 948.546875 95.40625 L 1054.730469 95.40625 L 1054.730469 201.59375 L 948.546875 201.59375 Z M 948.546875 95.40625 " clip-rule="nonzero"/></clipPath><clipPath id="f6f2dcfe46"><path d="M 1001.636719 95.40625 C 972.316406 95.40625 948.546875 119.175781 948.546875 148.5 C 948.546875 177.824219 972.316406 201.59375 1001.636719 201.59375 C 1030.960938 201.59375 1054.730469 177.824219 1054.730469 148.5 C 1054.730469 119.175781 1030.960938 95.40625 1001.636719 95.40625 " clip-rule="nonzero"/></clipPath><clipPath id="9695ae9a0a"><path d="M 1001.636719 95.40625 L 1188 95.40625 L 1188 201.59375 L 1001.636719 201.59375 Z M 1001.636719 95.40625 " clip-rule="nonzero"/></clipPath><clipPath id="1617a25401"><path d="M 838.136719 229.933594 L 972.269531 229.933594 L 972.269531 297 L 838.136719 297 Z M 838.136719 229.933594 " clip-rule="nonzero"/></clipPath><clipPath id="b7b8e1b827"><path d="M 905.203125 229.933594 C 868.164062 229.933594 838.136719 259.960938 838.136719 297 C 838.136719 334.039062 868.164062 364.066406 905.203125 364.066406 C 942.246094 364.066406 972.269531 334.039062 972.269531 297 C 972.269531 259.960938 942.246094 229.933594 905.203125 229.933594 " clip-rule="nonzero"/></clipPath><clipPath id="d30ae56442"><path d="M 905.203125 229.933594 L 1188 229.933594 L 1188 297 L 905.203125 297 Z M 905.203125 229.933594 " clip-rule="nonzero"/></clipPath><clipPath id="7fc06e0ff1"><path d="M 530.25 153.160156 L 644.390625 153.160156 L 644.390625 267.300781 L 530.25 267.300781 Z M 530.25 153.160156 " clip-rule="nonzero"/></clipPath><clipPath id="f3036eb5cf"><path d="M 587.320312 267.300781 C 618.839844 267.300781 644.390625 241.75 644.390625 210.230469 C 644.390625 178.710938 618.839844 153.160156 587.320312 153.160156 C 555.800781 153.160156 530.25 178.710938 530.25 210.230469 C 530.25 241.75 555.800781 267.300781 587.320312 267.300781 " clip-rule="nonzero"/></clipPath><clipPath id="3be39cf44a"><path d="M 0 153.160156 L 587.320312 153.160156 L 587.320312 267.300781 L 0 267.300781 Z M 0 153.160156 " clip-rule="nonzero"/></clipPath><clipPath id="78461d6335"><path d="M 303.738281 0 L 437.871094 0 L 437.871094 134.121094 L 303.738281 134.121094 Z M 303.738281 0 " clip-rule="nonzero"/></clipPath><clipPath id="6aa578d0e2"><path d="M 370.804688 134.121094 C 407.84375 134.121094 437.871094 104.09375 437.871094 67.054688 C 437.871094 30.015625 407.84375 -0.0117188 370.804688 -0.0117188 C 333.765625 -0.0117188 303.738281 30.015625 303.738281 67.054688 C 303.738281 104.09375 333.765625 134.121094 370.804688 134.121094 " clip-rule="nonzero"/></clipPath><clipPath id="92d38c9143"><path d="M 0 0 L 370.804688 0 L 370.804688 134.121094 L 0 134.121094 Z M 0 0 " clip-rule="nonzero"/></clipPath><clipPath id="669328df52"><path d="M 183.453125 221.253906 L 308.171875 221.253906 L 308.171875 297 L 183.453125 297 Z M 183.453125 221.253906 " clip-rule="nonzero"/></clipPath><clipPath id="d5dd56a37b"><path d="M 245.8125 345.972656 C 280.253906 345.972656 308.171875 318.054688 308.171875 283.613281 C 308.171875 249.171875 280.253906 221.253906 245.8125 221.253906 C 211.371094 221.253906 183.453125 249.171875 183.453125 283.613281 C 183.453125 318.054688 211.371094 345.972656 245.8125 345.972656 " clip-rule="nonzero"/></clipPath><clipPath id="28affdd761"><path d="M 0 221.253906 L 245.8125 221.253906 L 245.8125 297 L 0 297 Z M 0 221.253906 " clip-rule="nonzero"/></clipPath><clipPath id="932b0211dc"><path d="M 784.183594 93.6875 L 892.089844 93.6875 L 892.089844 201.59375 L 784.183594 201.59375 Z M 784.183594 93.6875 " clip-rule="nonzero"/></clipPath><clipPath id="d99a05d0a4"><path d="M 838.136719 93.6875 C 808.339844 93.6875 784.183594 117.84375 784.183594 147.640625 C 784.183594 177.4375 808.339844 201.59375 838.136719 201.59375 C 867.9375 201.59375 892.089844 177.4375 892.089844 147.640625 C 892.089844 117.84375 867.9375 93.6875 838.136719 93.6875 " clip-rule="nonzero"/></clipPath><clipPath id="8c55126157"><path d="M 422.730469 229.933594 L 530.636719 229.933594 L 530.636719 297 L 422.730469 297 Z M 422.730469 229.933594 " clip-rule="nonzero"/></clipPath><clipPath id="b9a2e7f84e"><path d="M 476.683594 229.933594 C 446.886719 229.933594 422.730469 254.089844 422.730469 283.886719 C 422.730469 313.683594 446.886719 337.839844 476.683594 337.839844 C 506.480469 337.839844 530.636719 313.683594 530.636719 283.886719 C 530.636719 254.089844 506.480469 229.933594 476.683594 229.933594 " clip-rule="nonzero"/></clipPath><clipPath id="8780714b2f"><path d="M 476.683594 6.558594 L 597.703125 6.558594 L 597.703125 127.574219 L 476.683594 127.574219 Z M 476.683594 6.558594 " clip-rule="nonzero"/></clipPath><clipPath id="734b1dc9e2"><path d="M 537.195312 6.558594 C 503.777344 6.558594 476.683594 33.648438 476.683594 67.066406 C 476.683594 100.484375 503.777344 127.574219 537.195312 127.574219 C 570.613281 127.574219 597.703125 100.484375 597.703125 67.066406 C 597.703125 33.648438 570.613281 6.558594 537.195312 6.558594 " clip-rule="nonzero"/></clipPath><clipPath id="93fbbbbfd3"><path d="M 680.679688 243.046875 L 788.585938 243.046875 L 788.585938 297 L 680.679688 297 Z M 680.679688 243.046875 " clip-rule="nonzero"/></clipPath><clipPath id="03ec3ccd8e"><path d="M 734.632812 243.046875 C 704.835938 243.046875 680.679688 267.203125 680.679688 297 C 680.679688 326.796875 704.835938 350.953125 734.632812 350.953125 C 764.429688 350.953125 788.585938 326.796875 788.585938 297 C 788.585938 267.203125 764.429688 243.046875 734.632812 243.046875 " clip-rule="nonzero"/></clipPath></defs><rect x="-118.8" width="1425.6" fill="#ffffff" y="-29.699999" height="356.399992" fill-opacity="1"/><rect x="-118.8" width="1425.6" fill="#ffffff" y="-29.699999" height="356.399992" fill-opacity="1"/><rect x="-118.8" width="1425.6" fill="#ffffff" y="-29.699999" height="356.399992" fill-opacity="1"/><g clip-path="url(#7d73015bda)"><g clip-path="url(#94176dd33b)"><path fill="#f6ec89" d="M 680.679688 -3.730469 L 801.574219 -3.730469 L 801.574219 117.164062 L 680.679688 117.164062 Z M 680.679688 -3.730469 " fill-opacity="1" fill-rule="nonzero"/></g></g><g clip-path="url(#8accaa499d)"><path fill="#f6ec89" d="M 741.128906 -3.730469 L 1188.1875 -3.730469 L 1188.1875 117.164062 L 741.128906 117.164062 Z M 741.128906 -3.730469 " fill-opacity="1" fill-rule="nonzero"/></g><g clip-path="url(#86ffad74c2)"><g clip-path="url(#f6f2dcfe46)"><path fill="#e17473" d="M 948.546875 95.40625 L 1054.730469 95.40625 L 1054.730469 201.59375 L 948.546875 201.59375 Z M 948.546875 95.40625 " fill-opacity="1" fill-rule="nonzero"/></g></g><g clip-path="url(#9695ae9a0a)"><path fill="#e17473" d="M 1001.636719 95.40625 L 1368.3125 95.40625 L 1368.3125 201.59375 L 1001.636719 201.59375 Z M 1001.636719 95.40625 " fill-opacity="1" fill-rule="nonzero"/></g><g clip-path="url(#1617a25401)"><g clip-path="url(#b7b8e1b827)"><path fill="#234389" d="M 838.136719 229.933594 L 972.269531 229.933594 L 972.269531 364.066406 L 838.136719 364.066406 Z M 838.136719 229.933594 " fill-opacity="1" fill-rule="nonzero"/></g></g><g clip-path="url(#d30ae56442)"><path fill="#234389" d="M 905.203125 229.933594 L 1368.382812 229.933594 L 1368.382812 364.066406 L 905.203125 364.066406 Z M 905.203125 229.933594 " fill-opacity="1" fill-rule="nonzero"/></g><g clip-path="url(#7fc06e0ff1)"><g clip-path="url(#f3036eb5cf)"><path fill="#c0e9eb" d="M 644.390625 267.300781 L 530.25 267.300781 L 530.25 153.160156 L 644.390625 153.160156 Z M 644.390625 267.300781 " fill-opacity="1" fill-rule="nonzero"/></g></g><g clip-path="url(#3be39cf44a)"><path fill="#c0e9eb" d="M 587.320312 267.300781 L -0.03125 267.300781 L -0.03125 153.160156 L 587.320312 153.160156 Z M 587.320312 267.300781 " fill-opacity="1" fill-rule="nonzero"/></g><g clip-path="url(#78461d6335)"><g clip-path="url(#6aa578d0e2)"><path fill="#77c043" d="M 437.871094 134.121094 L 303.738281 134.121094 L 303.738281 -0.0117188 L 437.871094 -0.0117188 Z M 437.871094 134.121094 " fill-opacity="1" fill-rule="nonzero"/></g></g><g clip-path="url(#92d38c9143)"><path fill="#77c043" d="M 370.804688 134.121094 L -92.371094 134.121094 L -92.371094 -0.0117188 L 370.804688 -0.0117188 Z M 370.804688 134.121094 " fill-opacity="1" fill-rule="nonzero"/></g><g clip-path="url(#669328df52)"><g clip-path="url(#d5dd56a37b)"><path fill="#f6ec89" d="M 308.171875 345.972656 L 183.453125 345.972656 L 183.453125 221.253906 L 308.171875 221.253906 Z M 308.171875 345.972656 " fill-opacity="1" fill-rule="nonzero"/></g></g><g clip-path="url(#28affdd761)"><path fill="#f6ec89" d="M 245.8125 345.972656 L -184.863281 345.972656 L -184.863281 221.253906 L 245.8125 221.253906 Z M 245.8125 345.972656 " fill-opacity="1" fill-rule="nonzero"/></g><g clip-path="url(#932b0211dc)"><g clip-path="url(#d99a05d0a4)"><path fill="#e17473" d="M 784.183594 93.6875 L 892.089844 93.6875 L 892.089844 201.59375 L 784.183594 201.59375 Z M 784.183594 93.6875 " fill-opacity="1" fill-rule="nonzero"/></g></g><g clip-path="url(#8c55126157)"><g clip-path="url(#b9a2e7f84e)"><path fill="#f6ec89" d="M 422.730469 229.933594 L 530.636719 229.933594 L 530.636719 337.839844 L 422.730469 337.839844 Z M 422.730469 229.933594 " fill-opacity="1" fill-rule="nonzero"/></g></g><g clip-path="url(#8780714b2f)"><g clip-path="url(#734b1dc9e2)"><path fill="#77c043" d="M 476.683594 6.558594 L 597.703125 6.558594 L 597.703125 127.574219 L 476.683594 127.574219 Z M 476.683594 6.558594 " fill-opacity="1" fill-rule="nonzero"/></g></g><g clip-path="url(#93fbbbbfd3)"><g clip-path="url(#03ec3ccd8e)"><path fill="#234389" d="M 680.679688 243.046875 L 788.585938 243.046875 L 788.585938 350.953125 L 680.679688 350.953125 Z M 680.679688 243.046875 " fill-opacity="1" fill-rule="nonzero"/></g></g></svg>