<svg preserveAspectRatio="none" width="300" height="300" viewBox="64 30 260 267" fill="none" xmlns="http://www.w3.org/2000/svg">
<path d="M326.217 159.209C326.217 192.254 327.722 242.053 306.599 264.229C284.085 287.867 229.484 288.139 194.263 288.139C159.042 288.139 109.234 287.867 86.7197 264.229C65.5969 242.053 64.2402 192.254 64.2402 159.209C64.2402 128.517 68.2009 78.5856 86.7197 56.9735C109.39 30.5167 156.69 30.0249 194.263 30.0249C234.385 30.0249 284.018 27.352 306.599 56.9734C322.439 77.7513 326.217 131.066 326.217 159.209Z" fill="#D1EABF" fill-opacity="0.5"/>
<mask id="mask0_320_699" style="mask-type:alpha" maskUnits="userSpaceOnUse" x="0" y="0" width="300" height="300">
<circle cx="168.906" cy="168.78" r="168.543" fill="#D9D9D9"/>
</mask>
<g mask="url(#mask0_320_699)">
</g>
<g clip-path="url(#clip0_320_699)">
<path d="M249.951 168.723C253.193 169.157 256.419 169.703 259.627 170.361V170.952C256.439 170.304 253.214 169.765 249.951 169.336C243.761 168.52 237.525 168.107 231.282 168.1H231.071C211.011 168.115 191.189 172.448 172.952 180.805C169.173 182.53 165.479 184.415 161.87 186.462C149.907 193.247 138.978 201.711 129.416 211.597C122.952 218.279 117.159 225.578 112.121 233.391C111.482 234.378 110.857 235.374 110.245 236.381C107.786 240.414 105.532 244.569 103.492 248.83C99.1286 257.947 95.7787 267.516 93.5026 277.364C93.4483 277.575 93.4004 277.789 93.3525 278.003C93.3397 278.064 93.3237 278.127 93.3109 278.188L92.688 278.048C92.6912 278.032 92.6944 278.019 92.6976 278.003C92.7455 277.789 92.7934 277.578 92.8445 277.364C95.171 267.275 98.6081 257.475 103.093 248.143V248.14C105.244 243.649 107.632 239.275 110.245 235.036C110.859 234.039 111.484 233.05 112.121 232.068C117.158 224.321 122.934 217.08 129.368 210.447C133.303 206.391 137.477 202.574 141.869 199.017L141.872 199.014C148.142 193.939 154.832 189.405 161.87 185.462C164.85 183.788 167.874 182.236 170.939 180.805C189.85 171.947 210.489 167.388 231.371 167.458C237.585 167.474 243.792 167.897 249.951 168.723Z" fill="#3F3D56"/>
<path d="M182.675 96.2907C192.258 96.2907 200.026 88.5222 200.026 78.9393C200.026 69.3564 192.258 61.5879 182.675 61.5879C173.092 61.5879 165.323 69.3564 165.323 78.9393C165.323 88.5222 173.092 96.2907 182.675 96.2907Z" fill="#F2F2F2"/>
<path d="M107.92 274.246C108.461 276.247 110.315 277.486 110.315 277.486C110.315 277.486 111.291 275.481 110.75 273.481C110.209 271.481 108.355 270.242 108.355 270.242C108.355 270.242 107.379 272.246 107.92 274.246Z" fill="#B1DA92"/>
<path d="M108.715 273.817C110.2 275.262 110.382 277.484 110.382 277.484C110.382 277.484 108.156 277.363 106.671 275.917C105.186 274.472 105.004 272.25 105.004 272.25C105.004 272.25 107.231 272.371 108.715 273.817Z" fill="#B1DA92"/>
<path d="M149.131 274.246C149.672 276.247 151.525 277.486 151.525 277.486C151.525 277.486 152.502 275.481 151.96 273.481C151.419 271.481 149.566 270.242 149.566 270.242C149.566 270.242 148.59 272.246 149.131 274.246Z" fill="#B1DA92"/>
<path d="M149.926 273.817C151.411 275.262 151.592 277.484 151.592 277.484C151.592 277.484 149.366 277.363 147.881 275.917C146.396 274.472 146.215 272.25 146.215 272.25C146.215 272.25 148.441 272.371 149.926 273.817Z" fill="#B1DA92"/>
<path d="M259.627 98.817V119.475L249.951 125.998L235.735 135.575L219.938 146.223L195.148 133.828L163.825 118.168L157.302 114.907L150.778 109.687L170.92 91.701L176.705 86.5361C183.538 80.4354 192.378 77.0635 201.538 77.0635H237.874C240.731 77.0635 243.559 77.6262 246.199 78.7194C248.838 79.8126 251.236 81.4149 253.256 83.4349C255.276 85.455 256.878 87.8531 257.971 90.4923C259.065 93.1316 259.627 95.9603 259.627 98.817Z" fill="#D9D9D9"/>
<path d="M250.037 109.594L259.628 99.1699C276.396 161.025 277.767 220.824 259.628 278.019H247.459L246.805 277.364L229.841 260.404L219.996 250.558L220.254 248.66L221.149 242.134L223.114 227.781L225.257 212.121L227.401 196.464L229.544 180.804L231.282 168.099L231.372 167.457L231.688 165.144L233.831 149.485L235.735 135.575L235.975 133.828L237.553 122.302L238.208 117.516L249.951 109.686L250.037 109.594Z" fill="#CCCCCC"/>
<path d="M150.778 109.686H249.951V278.02H150.778C139.949 216.427 137.227 158.937 150.778 109.686Z" fill="#F2F2F2"/>
<path d="M207.541 236.915H189.272V278.02H207.541V236.915Z" fill="#D9D9D9"/>
<path d="M237.555 212.122H161.87V227.781H237.555V212.122Z" fill="#244188"/>
<path d="M243.335 249.536H211.066V256.213H243.335V249.536Z" fill="#CCCCCC"/>
<path d="M185.832 249.536H153.563V256.213H185.832V249.536Z" fill="#CCCCCC"/>
<path d="M237.555 180.804H161.87V196.463H237.555V180.804Z" fill="#244188"/>
<path d="M237.555 149.486H161.87V165.145H237.555V149.486Z" fill="#244188"/>
<path d="M237.555 118.168H161.87V133.827H237.555V118.168Z" fill="#244188"/>
<path d="M112.121 203.596H110.244V277.727H112.121V203.596Z" fill="#3F3D56"/>
<path d="M129.442 213.043C129.562 238.965 111.324 260.064 111.324 260.064C111.324 260.064 92.893 239.134 92.7735 213.212C92.6541 187.29 110.892 166.192 110.892 166.192C112.832 159.324 133.598 171.992 129.442 213.043Z" fill="url(#paint0_linear_320_699)"/>
<path d="M87.724 203.594H86.8008V277.728H87.724V203.594Z" fill="#3F3D56"/>
<path d="M105.045 213.044C127.038 218.741 103.402 232.263 99.0073 240.134V240.137C96.0442 246.896 92.2541 253.262 87.724 259.088C87.2161 259.726 86.9254 260.062 86.9254 260.062L86.8008 259.918V166.553C91.6405 172.522 95.6776 179.099 98.8092 186.117V186.12C102.208 193.73 95.3344 210.529 105.045 213.044Z" fill="#B1DA92"/>
<path d="M131.899 146.038C131.899 146.038 119.964 145.932 105.179 145.999C98.0745 146.031 91.6054 146.098 86.8008 146.162V137.898C91.9696 133.94 98.7869 130.787 105.128 134.358C117.587 141.38 131.899 146.038 131.899 146.038Z" fill="#F2F2F2"/>
<path d="M158.85 69.9679C144.066 70.0361 132.033 70.2545 132.033 70.2545C132.033 70.2545 146.337 51.3083 158.796 58.3277C171.256 65.3472 185.569 70.0078 185.569 70.0078C185.569 70.0078 173.633 69.8998 158.85 69.9679Z" fill="#F2F2F2"/>
<path d="M200.846 79.0786L240.519 77.0903C245.991 76.8161 251.362 78.6679 255.559 82.2758C259.757 85.8837 262.472 90.9821 263.162 96.5522L267.974 135.406L251.072 113.069L251.036 113.049L200.457 86.1609L199.453 85.6274C196.383 83.9956 197.392 79.2519 200.846 79.0786Z" fill="#D9D9D9"/>
<path d="M220.015 89.4875H187.746V96.164H220.015V89.4875Z" fill="#F2F2F2"/>
<path d="M207.556 232.675H192.542C182.084 191.851 182.084 151.812 192.542 112.558H207.556C217.115 153.287 217.457 193.35 207.556 232.675Z" fill="#F2F2F2"/>
</g>
<g filter="url(#filter0_d_320_699)">
<circle cx="269.109" cy="261.936" r="35.0233" fill="#244188"/>
<path d="M285.258 269.19L286.575 261.568C286.652 261.121 286.631 260.663 286.513 260.226C286.394 259.788 286.182 259.382 285.89 259.035C285.598 258.688 285.234 258.409 284.823 258.217C284.412 258.025 283.965 257.926 283.511 257.926H273.833C273.607 257.926 273.384 257.876 273.179 257.782C272.974 257.687 272.792 257.548 272.646 257.376C272.5 257.204 272.393 257.002 272.333 256.784C272.273 256.566 272.261 256.338 272.298 256.115L273.536 248.559C273.737 247.332 273.68 246.077 273.368 244.874C273.234 244.376 272.977 243.921 272.621 243.55C272.264 243.178 271.819 242.903 271.328 242.75L271.057 242.662C270.445 242.465 269.78 242.511 269.2 242.789C268.565 243.095 268.102 243.654 267.93 244.317L267.041 247.743C266.758 248.833 266.346 249.886 265.815 250.879C265.04 252.331 263.841 253.495 262.593 254.569L259.905 256.885C259.532 257.207 259.241 257.613 259.055 258.07C258.869 258.526 258.795 259.02 258.837 259.512L260.353 277.058C260.42 277.834 260.776 278.557 261.349 279.083C261.923 279.61 262.674 279.902 263.452 279.903H272.135C278.639 279.903 284.189 275.371 285.258 269.19Z" fill="white"/>
<path fill-rule="evenodd" clip-rule="evenodd" d="M252.938 256.524C253.299 256.509 253.652 256.633 253.924 256.871C254.195 257.11 254.364 257.444 254.395 257.804L256.207 278.793C256.238 279.105 256.204 279.421 256.109 279.72C256.014 280.02 255.858 280.296 255.653 280.533C255.447 280.771 255.195 280.963 254.912 281.1C254.629 281.236 254.321 281.314 254.008 281.327C253.694 281.341 253.38 281.29 253.087 281.179C252.793 281.067 252.526 280.897 252.3 280.679C252.074 280.46 251.896 280.198 251.775 279.908C251.654 279.618 251.593 279.307 251.597 278.993V257.923C251.597 257.562 251.737 257.215 251.986 256.955C252.236 256.694 252.577 256.54 252.938 256.524Z" fill="white"/>
</g>
<defs>
<filter id="filter0_d_320_699" x="221.627" y="217.123" width="87.8452" height="87.8455" filterUnits="userSpaceOnUse" color-interpolation-filters="sRGB">
<feFlood flood-opacity="0" result="BackgroundImageFix"/>
<feColorMatrix in="SourceAlpha" type="matrix" values="0 0 0 0 0 0 0 0 0 0 0 0 0 0 0 0 0 0 127 0" result="hardAlpha"/>
<feOffset dx="-3.55977" dy="-0.889942"/>
<feGaussianBlur stdDeviation="4.44971"/>
<feComposite in2="hardAlpha" operator="out"/>
<feColorMatrix type="matrix" values="0 0 0 0 0 0 0 0 0 0 0 0 0 0 0 0 0 0 0.1 0"/>
<feBlend mode="normal" in2="BackgroundImageFix" result="effect1_dropShadow_320_699"/>
<feBlend mode="normal" in="SourceGraphic" in2="effect1_dropShadow_320_699" result="shape"/>
</filter>
<linearGradient id="paint0_linear_320_699" x1="111.382" y1="164.427" x2="110.955" y2="301.872" gradientUnits="userSpaceOnUse">
<stop stop-color="#94CD6A"/>
<stop offset="0.395833" stop-color="#94CD6A" stop-opacity="0.75"/>
<stop offset="0.541667" stop-color="#94CD6A" stop-opacity="0.65625"/>
<stop offset="0.875" stop-color="#94CD6A" stop-opacity="0.65625"/>
<stop offset="0.979167" stop-color="#94CD6A" stop-opacity="0.65625"/>
<stop offset="1" stop-color="#94CD6A" stop-opacity="0"/>
</linearGradient>
<clipPath id="clip0_320_699">
<rect width="185.922" height="221.42" fill="white" transform="translate(86.8008 56.7678)"/>
</clipPath>
</defs>
</svg>
