<svg width="46" height="36" viewBox="0 0 46 36" fill="none" xmlns="http://www.w3.org/2000/svg">
<path d="M0.855771 32.0665L13.197 22.8426C11.3672 20.6585 9.4305 17.4275 9.4305 14.6107C9.4305 6.93013 17.4013 0.71875 27.2356 0.71875C37.0512 0.71875 45.022 6.9294 45.022 14.6107C45.022 22.2782 37.0512 28.5013 27.2356 28.5013C23.8026 28.5013 19.7091 27.2263 16.9993 25.9204L4.8196 35.2269C4.29051 35.6518 3.09216 36.0796 2.00319 35.2269L0.542835 34.1187C-0.546128 33.266 0.328552 32.479 0.855771 32.0665ZM27.2356 23.8852C33.7983 23.8852 39.1115 19.7348 39.1115 14.61C39.1115 9.4845 33.7983 5.32172 27.2356 5.32172C20.6729 5.32172 15.3428 9.4845 15.3428 14.61C15.3428 19.7348 20.6719 23.8852 27.2356 23.8852Z" fill="white"/>
</svg>
