<svg xmlns="http://www.w3.org/2000/svg" xmlns:xlink="http://www.w3.org/1999/xlink" width="56" zoomAndPan="magnify" viewBox="0 0 42 42.75" height="56" preserveAspectRatio="xMidYMid meet" version="1.0"><defs><clipPath id="8ea364d723"><path d="M 1.992188 0 L 40.085938 0 L 40.085938 39 L 1.992188 39 Z M 1.992188 0 " clip-rule="nonzero"/></clipPath><clipPath id="bde9312079"><path d="M 9 27 L 33 27 L 33 41.753906 L 9 41.753906 Z M 9 27 " clip-rule="nonzero"/></clipPath></defs><g clip-path="url(#8ea364d723)"><path fill="#77c043" d="M 40.089844 19.019531 C 40.089844 29.511719 31.5625 38.015625 21.042969 38.015625 C 10.523438 38.015625 1.996094 29.511719 1.996094 19.019531 C 1.996094 8.53125 10.523438 0.0234375 21.042969 0.0234375 C 31.5625 0.0234375 40.089844 8.53125 40.089844 19.019531 " fill-opacity="1" fill-rule="nonzero"/></g><path fill="#3f2463" d="M 29.152344 16.429688 C 29.152344 16.429688 29.175781 23.203125 28.890625 24.230469 C 28.609375 25.257812 27.699219 26.355469 27.699219 26.355469 C 27.699219 26.355469 27.03125 26.785156 26.546875 26.355469 L 26.546875 24.773438 L 26 26.355469 C 26 26.355469 24.644531 27.136719 23.109375 26.546875 C 21.574219 25.957031 23.109375 20.871094 23.109375 20.871094 L 29.152344 16.1875 " fill-opacity="1" fill-rule="nonzero"/><path fill="#3f2463" d="M 12.945312 16.429688 C 12.945312 16.429688 12.921875 23.203125 13.207031 24.230469 C 13.488281 25.257812 14.398438 26.355469 14.398438 26.355469 C 14.398438 26.355469 15.066406 26.785156 15.550781 26.355469 L 15.550781 24.773438 L 16.09375 26.355469 C 16.09375 26.355469 17.453125 27.136719 18.984375 26.546875 C 20.519531 25.957031 18.984375 20.871094 18.984375 20.871094 L 12.945312 16.1875 " fill-opacity="1" fill-rule="nonzero"/><g clip-path="url(#bde9312079)"><path fill="#c0e9eb" d="M 32.15625 38.070312 C 31.214844 38.769531 30.203125 39.386719 29.132812 39.898438 C 28.972656 39.976562 28.808594 40.054688 28.644531 40.125 C 26.324219 41.164062 23.75 41.742188 21.042969 41.742188 C 18.335938 41.742188 15.765625 41.164062 13.445312 40.125 C 13.277344 40.054688 13.113281 39.976562 12.953125 39.898438 C 11.882812 39.382812 10.875 38.769531 9.933594 38.070312 C 10.097656 34.398438 12.054688 31.1875 14.949219 29.296875 C 16.699219 28.148438 18.792969 27.484375 21.042969 27.484375 C 21.386719 27.484375 21.726562 27.5 22.058594 27.53125 C 23.925781 27.699219 25.652344 28.324219 27.136719 29.296875 C 28.46875 30.167969 29.605469 31.316406 30.457031 32.664062 C 31.457031 34.242188 32.066406 36.089844 32.15625 38.070312 " fill-opacity="1" fill-rule="nonzero"/></g><path fill="#f79b68" d="M 27.136719 29.296875 C 26.964844 30.574219 26.398438 31.734375 25.5625 32.636719 C 24.4375 33.851562 22.832031 34.613281 21.042969 34.613281 C 18.179688 34.613281 15.773438 32.660156 15.089844 30.015625 C 15.03125 29.78125 14.984375 29.539062 14.949219 29.296875 C 16.699219 28.148438 18.792969 27.484375 21.042969 27.484375 C 21.386719 27.484375 21.726562 27.5 22.0625 27.53125 C 22.121094 27.535156 22.175781 27.542969 22.234375 27.546875 C 22.269531 27.550781 22.308594 27.554688 22.34375 27.558594 C 22.382812 27.5625 22.421875 27.570312 22.460938 27.574219 C 22.484375 27.578125 22.511719 27.578125 22.535156 27.582031 C 22.570312 27.585938 22.605469 27.59375 22.644531 27.597656 C 22.671875 27.601562 22.699219 27.605469 22.726562 27.609375 C 22.753906 27.613281 22.777344 27.617188 22.800781 27.621094 C 22.84375 27.628906 22.882812 27.636719 22.921875 27.640625 C 23.101562 27.671875 23.277344 27.707031 23.449219 27.746094 L 23.566406 27.769531 C 23.589844 27.777344 23.609375 27.78125 23.632812 27.785156 C 23.675781 27.796875 23.714844 27.804688 23.757812 27.816406 C 23.765625 27.820312 23.769531 27.820312 23.773438 27.820312 C 23.828125 27.835938 23.878906 27.847656 23.929688 27.863281 C 23.984375 27.875 24.039062 27.890625 24.09375 27.90625 C 24.15625 27.921875 24.214844 27.941406 24.277344 27.960938 C 24.324219 27.972656 24.371094 27.988281 24.417969 28.003906 C 24.449219 28.015625 24.480469 28.023438 24.511719 28.035156 C 24.5625 28.050781 24.609375 28.066406 24.660156 28.082031 C 24.71875 28.105469 24.777344 28.125 24.839844 28.144531 C 24.84375 28.148438 24.847656 28.148438 24.851562 28.152344 C 24.914062 28.171875 24.972656 28.195312 25.035156 28.21875 C 25.078125 28.238281 25.125 28.253906 25.171875 28.273438 C 25.289062 28.320312 25.410156 28.371094 25.523438 28.421875 L 25.675781 28.488281 C 25.722656 28.511719 25.769531 28.53125 25.816406 28.554688 C 25.859375 28.574219 25.898438 28.59375 25.941406 28.613281 C 25.980469 28.632812 26.015625 28.652344 26.054688 28.671875 C 26.078125 28.683594 26.105469 28.695312 26.128906 28.707031 C 26.230469 28.757812 26.328125 28.8125 26.425781 28.867188 C 26.460938 28.886719 26.496094 28.90625 26.53125 28.925781 C 26.554688 28.9375 26.574219 28.949219 26.597656 28.960938 L 26.761719 29.0625 L 26.816406 29.09375 C 26.871094 29.125 26.921875 29.15625 26.972656 29.1875 C 27.027344 29.222656 27.082031 29.257812 27.136719 29.296875 " fill-opacity="1" fill-rule="nonzero"/><path fill="#f79b68" d="M 23.75 24.441406 L 23.75 29.757812 C 23.75 31.101562 22.648438 32.199219 21.300781 32.199219 L 20.785156 32.199219 C 19.4375 32.199219 18.335938 31.101562 18.335938 29.757812 L 18.335938 24.441406 C 18.335938 23.097656 19.4375 22 20.785156 22 L 21.300781 22 C 22.648438 22 23.75 23.097656 23.75 24.441406 " fill-opacity="1" fill-rule="nonzero"/><path fill="#f4716d" d="M 23.75 24.441406 L 23.75 27.253906 C 22.945312 27.699219 22.09375 27.960938 21.226562 27.960938 C 20.203125 27.960938 19.226562 27.675781 18.335938 27.183594 L 18.335938 24.441406 C 18.335938 23.097656 19.4375 22 20.785156 22 L 21.300781 22 C 22.648438 22 23.75 23.097656 23.75 24.441406 " fill-opacity="1" fill-rule="nonzero"/><path fill="#f79b68" d="M 27.648438 22.394531 C 27.648438 22.394531 28.914062 21.960938 29.726562 20.550781 C 30.605469 19.019531 30.054688 18.066406 29.878906 17.859375 C 29.402344 17.296875 28.664062 17.65625 28.542969 17.859375 C 28.421875 18.0625 26.667969 21.242188 27.648438 22.394531 " fill-opacity="1" fill-rule="nonzero"/><path fill="#f4716d" d="M 28.890625 18.363281 C 28.890625 18.363281 29.695312 18.464844 29.414062 19.59375 C 29.128906 20.722656 28.386719 21.167969 27.375 21.746094 C 26.363281 22.324219 27.878906 18.59375 28.890625 18.363281 " fill-opacity="1" fill-rule="nonzero"/><path fill="#f79b68" d="M 14.769531 22.394531 C 14.769531 22.394531 13.5 21.960938 12.691406 20.550781 C 11.808594 19.019531 12.363281 18.066406 12.539062 17.859375 C 13.015625 17.296875 13.75 17.65625 13.871094 17.859375 C 13.992188 18.0625 15.75 21.242188 14.769531 22.394531 " fill-opacity="1" fill-rule="nonzero"/><path fill="#f4716d" d="M 13.527344 18.363281 C 13.527344 18.363281 12.722656 18.464844 13.003906 19.59375 C 13.285156 20.722656 14.03125 21.167969 15.042969 21.746094 C 16.054688 22.324219 14.535156 18.59375 13.527344 18.363281 " fill-opacity="1" fill-rule="nonzero"/><path fill="#f79b68" d="M 28.890625 17.617188 C 28.890625 12.980469 25.460938 9.222656 21.226562 9.222656 C 16.992188 9.222656 13.558594 12.980469 13.558594 17.617188 C 13.558594 22.253906 16.992188 27.101562 21.226562 27.101562 C 25.203125 27.101562 28.890625 22.214844 28.890625 17.617188 " fill-opacity="1" fill-rule="nonzero"/><path fill="#3f2463" d="M 21.914062 14.230469 C 21.914062 14.230469 23.359375 18.859375 28.78125 18.398438 C 28.78125 18.398438 29.726562 17.035156 29.40625 14.066406 C 29.046875 10.71875 26.074219 7.902344 21.226562 8.910156 C 21.226562 8.910156 20.78125 11.289062 21.914062 14.230469 " fill-opacity="1" fill-rule="nonzero"/><path fill="#3f2463" d="M 22.15625 9.222656 C 22.15625 9.222656 22.359375 8.34375 21.632812 7.660156 C 20.902344 6.972656 10.660156 8.703125 13.210938 18.507812 C 13.210938 18.507812 15.804688 12.09375 21.753906 11.609375 L 22.15625 9.222656 " fill-opacity="1" fill-rule="nonzero"/></svg>