<svg width="35" height="36" viewBox="0 0 35 36" fill="none" xmlns="http://www.w3.org/2000/svg">
<path d="M17.517 34.3541C26.5019 34.3541 33.7855 27.0705 33.7855 18.0856C33.7855 9.1008 26.5019 1.81714 17.517 1.81714C8.53219 1.81714 1.24854 9.1008 1.24854 18.0856C1.24854 27.0705 8.53219 34.3541 17.517 34.3541Z" fill="white" stroke="#77C043" stroke-width="2.41015"/>
<path d="M26.3523 11.2659C27.5935 12.5842 28.2599 14.0628 28.2599 16.4597C28.2599 20.6775 25.3002 24.4578 20.9933 26.3269L19.9172 24.6663C23.9361 22.4923 24.7218 19.6713 25.0363 17.8926C24.3892 18.2276 23.542 18.3445 22.7105 18.2674C20.5366 18.0661 18.823 16.2814 18.823 14.0628C18.823 12.9442 19.2673 11.8714 20.0583 11.0804C20.8493 10.2895 21.9221 9.84509 23.0407 9.84509C24.3338 9.84509 25.5714 10.4356 26.3523 11.2659ZM14.3015 11.2659C15.5428 12.5842 16.2092 14.0628 16.2092 16.4597C16.2092 20.6775 13.2495 24.4578 8.94257 26.3269L7.86644 24.6663C11.8854 22.4923 12.6711 19.6713 12.9844 17.8926C12.3373 18.2276 11.4901 18.3445 10.6598 18.2674C8.48585 18.0661 6.77344 16.2814 6.77344 14.0628C6.77344 12.9442 7.21781 11.8714 8.00879 11.0804C8.79977 10.2895 9.87257 9.84509 10.9912 9.84509C12.2842 9.84509 13.5218 10.4356 14.3027 11.2659H14.3015Z" fill="#77C043"/>
</svg>
