<svg xmlns="http://www.w3.org/2000/svg" xmlns:xlink="http://www.w3.org/1999/xlink" width="56" zoomAndPan="magnify" viewBox="0 0 42 42.75" height="56" preserveAspectRatio="xMidYMid meet" version="1.0"><defs><clipPath id="51fcbe235a"><path d="M 1.992188 0 L 40.085938 0 L 40.085938 39 L 1.992188 39 Z M 1.992188 0 " clip-rule="nonzero"/></clipPath><clipPath id="c3c6339033"><path d="M 9 27 L 33 27 L 33 41.753906 L 9 41.753906 Z M 9 27 " clip-rule="nonzero"/></clipPath></defs><g clip-path="url(#51fcbe235a)"><path fill="#234389" d="M 40.089844 19.019531 C 40.089844 29.511719 31.5625 38.015625 21.042969 38.015625 C 10.523438 38.015625 1.996094 29.511719 1.996094 19.019531 C 1.996094 8.53125 10.523438 0.0234375 21.042969 0.0234375 C 31.5625 0.0234375 40.089844 8.53125 40.089844 19.019531 " fill-opacity="1" fill-rule="nonzero"/></g><path fill="#f6ec89" d="M 29.925781 17.253906 C 29.160156 18.085938 29.363281 18.5 30.125 19.175781 C 30.890625 19.859375 30.753906 20.820312 29.910156 21.472656 C 29.148438 22.0625 28.175781 22.242188 28.109375 23.363281 C 28.054688 24.230469 28.796875 25.304688 28.152344 26.074219 C 27.457031 26.902344 26.308594 26.046875 25.5 26.339844 C 24.695312 26.632812 24.632812 28.136719 23.675781 27.851562 C 23.230469 27.71875 22.984375 27.289062 22.46875 27.234375 C 22.058594 27.1875 21.578125 27.371094 21.210938 27.550781 C 20.800781 27.746094 20.46875 28.035156 20.027344 27.675781 C 19.640625 27.359375 19.871094 26.921875 19.25 26.867188 C 18.824219 26.832031 18.355469 27.28125 17.859375 27.234375 C 17.25 27.175781 17.234375 26.851562 17.066406 26.328125 C 16.734375 25.285156 15.796875 25.265625 14.828125 24.992188 C 13.925781 24.742188 13.058594 24.011719 13.070312 23 C 13.078125 22.125 14.078125 21.246094 13.617188 20.339844 C 13.441406 19.996094 12.898438 19.757812 12.660156 19.421875 C 12.34375 18.972656 12.339844 18.582031 12.34375 18.042969 C 12.34375 17.121094 12.519531 16.0625 13.054688 15.320312 C 14.355469 13.503906 17.109375 12.679688 19.207031 12.175781 C 20.625 11.835938 21.785156 11.75 23.136719 12.34375 C 24.226562 12.820312 25.261719 13.160156 26.273438 13.824219 C 27.136719 14.390625 27.847656 14.730469 28.605469 15.425781 C 29.097656 15.875 30.046875 16.742188 30.046875 17.375 " fill-opacity="1" fill-rule="nonzero"/><g clip-path="url(#c3c6339033)"><path fill="#e17473" d="M 32.15625 38.070312 C 31.214844 38.769531 30.203125 39.386719 29.132812 39.898438 C 28.972656 39.976562 28.808594 40.054688 28.644531 40.125 C 26.324219 41.164062 23.75 41.742188 21.042969 41.742188 C 18.335938 41.742188 15.765625 41.164062 13.445312 40.125 C 13.277344 40.054688 13.113281 39.976562 12.953125 39.898438 C 11.882812 39.382812 10.875 38.769531 9.933594 38.070312 C 10.097656 34.398438 12.054688 31.1875 14.949219 29.296875 C 16.699219 28.148438 18.792969 27.484375 21.042969 27.484375 C 21.386719 27.484375 21.726562 27.5 22.058594 27.53125 C 23.925781 27.699219 25.652344 28.324219 27.136719 29.296875 C 28.46875 30.167969 29.605469 31.316406 30.457031 32.664062 C 31.457031 34.242188 32.066406 36.089844 32.15625 38.070312 " fill-opacity="1" fill-rule="nonzero"/></g><path fill="#fbd5c0" d="M 27.136719 29.296875 C 26.964844 30.574219 26.398438 31.734375 25.5625 32.636719 C 24.4375 33.851562 22.832031 34.613281 21.042969 34.613281 C 18.179688 34.613281 15.773438 32.660156 15.089844 30.015625 C 15.03125 29.78125 14.984375 29.539062 14.949219 29.296875 C 16.699219 28.148438 18.792969 27.484375 21.042969 27.484375 C 21.386719 27.484375 21.726562 27.5 22.0625 27.53125 C 22.121094 27.535156 22.175781 27.542969 22.234375 27.546875 C 22.269531 27.550781 22.308594 27.554688 22.34375 27.558594 C 22.382812 27.5625 22.421875 27.570312 22.460938 27.574219 C 22.484375 27.578125 22.511719 27.578125 22.535156 27.582031 C 22.570312 27.585938 22.605469 27.59375 22.644531 27.597656 C 22.671875 27.601562 22.699219 27.605469 22.726562 27.609375 C 22.753906 27.613281 22.777344 27.617188 22.800781 27.621094 C 22.84375 27.628906 22.882812 27.636719 22.921875 27.640625 C 23.101562 27.671875 23.277344 27.707031 23.449219 27.746094 L 23.566406 27.769531 C 23.589844 27.777344 23.609375 27.78125 23.632812 27.785156 C 23.675781 27.796875 23.714844 27.804688 23.757812 27.816406 C 23.765625 27.820312 23.769531 27.820312 23.773438 27.820312 C 23.828125 27.835938 23.878906 27.847656 23.929688 27.863281 C 23.984375 27.875 24.039062 27.890625 24.09375 27.90625 C 24.15625 27.921875 24.214844 27.941406 24.277344 27.960938 C 24.324219 27.972656 24.371094 27.988281 24.417969 28.003906 C 24.449219 28.015625 24.480469 28.023438 24.511719 28.035156 C 24.5625 28.050781 24.609375 28.066406 24.660156 28.082031 C 24.71875 28.105469 24.777344 28.125 24.839844 28.144531 C 24.84375 28.148438 24.847656 28.148438 24.851562 28.152344 C 24.914062 28.171875 24.972656 28.195312 25.035156 28.21875 C 25.078125 28.238281 25.125 28.253906 25.171875 28.273438 C 25.289062 28.320312 25.410156 28.371094 25.523438 28.421875 L 25.675781 28.488281 C 25.722656 28.511719 25.769531 28.53125 25.816406 28.554688 C 25.859375 28.574219 25.898438 28.59375 25.941406 28.613281 C 25.980469 28.632812 26.015625 28.652344 26.054688 28.671875 C 26.078125 28.683594 26.105469 28.695312 26.128906 28.707031 C 26.230469 28.757812 26.328125 28.8125 26.425781 28.867188 C 26.460938 28.886719 26.496094 28.90625 26.53125 28.925781 C 26.554688 28.9375 26.574219 28.949219 26.597656 28.960938 L 26.761719 29.0625 L 26.816406 29.09375 C 26.871094 29.125 26.921875 29.15625 26.972656 29.1875 C 27.027344 29.222656 27.082031 29.257812 27.136719 29.296875 " fill-opacity="1" fill-rule="nonzero"/><path fill="#fbd5c0" d="M 23.75 24.441406 L 23.75 29.757812 C 23.75 31.101562 22.648438 32.199219 21.300781 32.199219 L 20.785156 32.199219 C 19.4375 32.199219 18.335938 31.101562 18.335938 29.757812 L 18.335938 24.441406 C 18.335938 23.097656 19.4375 22 20.785156 22 L 21.300781 22 C 22.648438 22 23.75 23.097656 23.75 24.441406 " fill-opacity="1" fill-rule="nonzero"/><path fill="#f8a29e" d="M 23.75 24.441406 L 23.75 27.253906 C 22.945312 27.699219 22.09375 27.960938 21.226562 27.960938 C 20.203125 27.960938 19.226562 27.675781 18.335938 27.183594 L 18.335938 24.441406 C 18.335938 23.097656 19.4375 22 20.785156 22 L 21.300781 22 C 22.648438 22 23.75 23.097656 23.75 24.441406 " fill-opacity="1" fill-rule="nonzero"/><path fill="#fbd5c0" d="M 27.648438 22.394531 C 27.648438 22.394531 28.914062 21.960938 29.726562 20.550781 C 30.605469 19.019531 30.054688 18.066406 29.878906 17.859375 C 29.402344 17.296875 28.664062 17.65625 28.542969 17.859375 C 28.421875 18.0625 26.667969 21.242188 27.648438 22.394531 " fill-opacity="1" fill-rule="nonzero"/><path fill="#f8a29e" d="M 28.890625 18.363281 C 28.890625 18.363281 29.695312 18.464844 29.414062 19.59375 C 29.128906 20.722656 28.386719 21.167969 27.375 21.746094 C 26.363281 22.324219 27.878906 18.59375 28.890625 18.363281 " fill-opacity="1" fill-rule="nonzero"/><path fill="#fbd5c0" d="M 14.769531 22.394531 C 14.769531 22.394531 13.5 21.960938 12.691406 20.550781 C 11.808594 19.019531 12.363281 18.066406 12.539062 17.859375 C 13.015625 17.296875 13.75 17.65625 13.871094 17.859375 C 13.992188 18.0625 15.75 21.242188 14.769531 22.394531 " fill-opacity="1" fill-rule="nonzero"/><path fill="#f8a29e" d="M 13.527344 18.363281 C 13.527344 18.363281 12.722656 18.464844 13.003906 19.59375 C 13.285156 20.722656 14.03125 21.167969 15.042969 21.746094 C 16.054688 22.324219 14.535156 18.59375 13.527344 18.363281 " fill-opacity="1" fill-rule="nonzero"/><path fill="#fbd5c0" d="M 28.890625 17.617188 C 28.890625 12.980469 25.460938 9.222656 21.226562 9.222656 C 16.992188 9.222656 13.558594 12.980469 13.558594 17.617188 C 13.558594 22.253906 16.992188 27.101562 21.226562 27.101562 C 25.203125 27.101562 28.890625 22.214844 28.890625 17.617188 " fill-opacity="1" fill-rule="nonzero"/><path fill="#f6ec89" d="M 22.582031 14.828125 C 22.683594 15.859375 22.726562 16.59375 23.765625 17.195312 C 24.691406 17.726562 25.796875 17.710938 26.8125 17.808594 C 27.796875 17.90625 30.078125 19.390625 30.261719 19.316406 C 30.996094 19.019531 31.148438 17.609375 30.980469 16.75 C 30.714844 15.421875 30.394531 14.28125 29.433594 13.742188 C 28.457031 13.195312 27.753906 13.5 27.554688 12.15625 C 27.410156 11.183594 27.382812 10.335938 26.75 9.507812 C 26.214844 8.808594 25.296875 8.226562 24.398438 8.1875 C 23.871094 8.164062 23.339844 8.308594 22.894531 8.582031 C 22.589844 8.765625 22.390625 9.164062 22.046875 9.28125 C 21.746094 9.378906 21.492188 9.21875 21.171875 9.300781 C 20.5 9.476562 20.203125 10.136719 20.167969 10.769531 C 20.125 11.492188 20.300781 12.03125 20.875 12.453125 C 21.816406 13.144531 22.4375 13.429688 22.566406 14.675781 C 22.570312 14.726562 22.578125 14.777344 22.582031 14.828125 " fill-opacity="1" fill-rule="nonzero"/><path fill="#f6ec89" d="M 22.5625 9.402344 C 22.917969 7.300781 20.675781 7.019531 19.15625 7.097656 C 18.210938 7.144531 17.152344 7.472656 16.449219 8.128906 C 15.65625 8.867188 15.597656 9.828125 15.070312 10.703125 C 14.582031 11.503906 13.835938 11.953125 13.167969 12.582031 C 12.347656 13.347656 11.828125 14.535156 11.929688 15.679688 C 12.023438 16.707031 13.4375 19.503906 14.050781 17.390625 C 14.214844 16.820312 14.511719 16.519531 15.152344 16.464844 C 16.167969 16.371094 17.121094 16.835938 17.1875 15.347656 C 17.234375 14.324219 16.621094 12.941406 18.304688 12.992188 C 19.269531 13.019531 19.9375 13.710938 20.996094 13.453125 C 22.074219 13.1875 22.167969 12.59375 22.210938 11.644531 C 22.246094 10.898438 22.4375 10.140625 22.5625 9.402344 " fill-opacity="1" fill-rule="nonzero"/><path fill="#f6ec89" d="M 22.230469 11.261719 C 22.882812 12.046875 22.574219 13.085938 22.085938 13.398438 C 21.773438 13.601562 21.109375 13.238281 20.65625 13.65625 C 20.160156 14.117188 20.304688 14.421875 20.550781 14.871094 C 21.109375 15.878906 20.105469 16.09375 19.460938 16.425781 C 19.21875 16.550781 18.652344 17.128906 19.054688 18.160156 C 18.21875 17.976562 17.269531 17.152344 17.679688 16.269531 C 17.871094 15.859375 18.246094 15.710938 18.445312 15.355469 C 18.683594 14.925781 18.605469 14.738281 18.394531 14.410156 C 17.121094 12.425781 19.835938 11.355469 21.378906 10.960938 C 21.566406 10.910156 21.785156 10.886719 21.972656 10.847656 C 22.203125 11.054688 22.386719 11.308594 22.53125 11.566406 " fill-opacity="1" fill-rule="nonzero"/></svg>